%
M48
M72
T01C0.02756
T02C0.03150
T03C0.03200
T04C0.03600
T05C0.04000
T06C0.12598
%
T01
X31800Y64300
X46800Y71800
X61800Y81800
X161800Y131800
X114300Y156800
T02
X86800Y111800
X86800Y101800
X86800Y91800
X86800Y81800
X86800Y71800
X86800Y61800
X86800Y51800
X86800Y41800
X16800Y41800
X16800Y51800
X16800Y61800
X16800Y71800
X16800Y81800
X16800Y91800
X16800Y101800
X16800Y111800
T03
X34300Y134300
X31800Y151800
X41800Y151800
X51800Y151800
X61800Y151800
X71800Y151800
X81800Y151800
X91800Y151800
X84300Y134300
X111800Y96800
X131800Y96800
X156800Y76800
X176800Y71800
X176800Y61800
X176800Y51800
X176800Y41800
X156800Y26800
X141800Y21800
X131800Y21800
X121800Y21800
X111800Y21800
X101800Y21800
X186800Y21800
X196800Y21800
X206800Y21800
X216800Y21800
X226800Y21800
X236800Y21800
X244300Y36800
X259300Y36800
X274300Y36800
X206800Y41800
X206800Y51800
X206800Y61800
X206800Y71800
X236800Y86800
X244300Y86800
X251800Y86800
X259300Y86800
X266800Y86800
X274300Y86800
X211800Y91800
X211800Y101800
X211800Y111800
X211800Y121800
X211800Y131800
X211800Y141800
X211800Y151800
X236800Y136800
X251800Y136800
X266800Y136800
X251800Y149300
X251800Y159300
X181800Y151800
X181800Y141800
X181800Y131800
X181800Y121800
X181800Y111800
X181800Y101800
X181800Y91800
T04
X301800Y91800
X311800Y91800
X311800Y101800
X301800Y101800
X301800Y111800
X311800Y111800
X311800Y121800
X301800Y121800
X301800Y81800
X311800Y81800
T05
X131800Y66800
X111800Y66800
X116800Y116800
X126800Y116800
X126800Y126800
X116800Y126800
X116800Y136800
X126800Y136800
X126800Y146800
X116800Y146800
T06
X16800Y21800
X16800Y156800
X306800Y21800
X311800Y156800
M30
