G75*
%MOIN*%
%OFA0B0*%
%FSLAX25Y25*%
%IPPOS*%
%LPD*%
%AMOC8*
5,1,8,0,0,1.08239X$1,22.5*
%
%ADD10C,0.05200*%
%ADD11C,0.05600*%
%ADD12OC8,0.05600*%
%ADD13C,0.06400*%
%ADD14OC8,0.05200*%
%ADD15OC8,0.06600*%
%ADD16OC8,0.06000*%
%ADD17C,0.10000*%
%ADD18OC8,0.10000*%
%ADD19C,0.04356*%
%ADD20C,0.02400*%
%ADD21C,0.01600*%
D10*
X0101800Y0019200D02*
X0101800Y0024400D01*
X0111800Y0024400D02*
X0111800Y0019200D01*
X0121800Y0019200D02*
X0121800Y0024400D01*
X0131800Y0024400D02*
X0131800Y0019200D01*
X0141800Y0019200D02*
X0141800Y0024400D01*
X0171600Y0041800D02*
X0176800Y0041800D01*
X0176800Y0051800D02*
X0171600Y0051800D01*
X0171600Y0061800D02*
X0176800Y0061800D01*
X0176800Y0071800D02*
X0171600Y0071800D01*
X0206800Y0071800D02*
X0212000Y0071800D01*
X0212000Y0061800D02*
X0206800Y0061800D01*
X0206800Y0051800D02*
X0212000Y0051800D01*
X0212000Y0041800D02*
X0206800Y0041800D01*
X0206800Y0024400D02*
X0206800Y0019200D01*
X0216800Y0019200D02*
X0216800Y0024400D01*
X0226800Y0024400D02*
X0226800Y0019200D01*
X0236800Y0019200D02*
X0236800Y0024400D01*
X0196800Y0024400D02*
X0196800Y0019200D01*
X0186800Y0019200D02*
X0186800Y0024400D01*
X0091800Y0149200D02*
X0091800Y0154400D01*
X0081800Y0154400D02*
X0081800Y0149200D01*
X0071800Y0149200D02*
X0071800Y0154400D01*
X0061800Y0154400D02*
X0061800Y0149200D01*
X0051800Y0149200D02*
X0051800Y0154400D01*
X0041800Y0154400D02*
X0041800Y0149200D01*
X0031800Y0149200D02*
X0031800Y0154400D01*
D11*
X0311800Y0121800D03*
D12*
X0301800Y0121800D03*
X0301800Y0111800D03*
X0311800Y0111800D03*
X0311800Y0101800D03*
X0301800Y0101800D03*
X0301800Y0091800D03*
X0311800Y0091800D03*
X0311800Y0081800D03*
X0301800Y0081800D03*
D13*
X0211800Y0091800D03*
X0211800Y0101800D03*
X0211800Y0111800D03*
X0211800Y0121800D03*
X0211800Y0131800D03*
X0211800Y0141800D03*
X0211800Y0151800D03*
X0181800Y0151800D03*
X0181800Y0141800D03*
X0181800Y0131800D03*
X0181800Y0121800D03*
X0181800Y0111800D03*
X0181800Y0101800D03*
X0181800Y0091800D03*
D14*
X0156800Y0076800D03*
X0131800Y0096800D03*
X0111800Y0096800D03*
X0084300Y0134300D03*
X0034300Y0134300D03*
X0236800Y0136800D03*
X0251800Y0136800D03*
X0266800Y0136800D03*
X0251800Y0149300D03*
X0251800Y0159300D03*
X0251800Y0086800D03*
X0244300Y0086800D03*
X0236800Y0086800D03*
X0259300Y0086800D03*
X0266800Y0086800D03*
X0274300Y0086800D03*
X0274300Y0036800D03*
X0259300Y0036800D03*
X0244300Y0036800D03*
X0156800Y0026800D03*
D15*
X0086800Y0041800D03*
X0086800Y0051800D03*
X0086800Y0061800D03*
X0086800Y0071800D03*
X0086800Y0081800D03*
X0086800Y0091800D03*
X0086800Y0101800D03*
X0086800Y0111800D03*
X0016800Y0111800D03*
X0016800Y0101800D03*
X0016800Y0091800D03*
X0016800Y0081800D03*
X0016800Y0071800D03*
X0016800Y0061800D03*
X0016800Y0051800D03*
X0016800Y0041800D03*
D16*
X0116800Y0116800D03*
X0126800Y0116800D03*
X0126800Y0126800D03*
X0116800Y0126800D03*
X0116800Y0136800D03*
X0126800Y0136800D03*
X0126800Y0146800D03*
X0116800Y0146800D03*
D17*
X0131800Y0066800D03*
D18*
X0111800Y0066800D03*
D19*
X0061800Y0081800D03*
X0046800Y0071800D03*
X0031800Y0064300D03*
X0161800Y0131800D03*
X0114300Y0156800D03*
D20*
X0156800Y0156800D01*
X0161800Y0151800D01*
X0181800Y0151800D01*
X0189300Y0151800D01*
X0194300Y0146800D01*
X0194300Y0059300D01*
X0201800Y0051800D01*
X0206800Y0051800D01*
X0256800Y0051800D01*
X0259300Y0049300D01*
X0259300Y0036800D01*
X0274300Y0036800D02*
X0274300Y0021800D01*
X0236800Y0021800D01*
X0186800Y0021800D02*
X0161800Y0021800D01*
X0156800Y0026800D01*
X0111800Y0029300D02*
X0111800Y0021800D01*
X0111800Y0029300D02*
X0109300Y0031800D01*
X0099300Y0031800D01*
X0096800Y0029300D01*
X0066800Y0029300D01*
X0031800Y0064300D01*
X0031800Y0076800D02*
X0046800Y0061800D01*
X0086800Y0061800D01*
X0091800Y0061800D01*
X0096800Y0066800D01*
X0096800Y0099300D01*
X0106800Y0109300D01*
X0159300Y0109300D01*
X0161800Y0111800D01*
X0161800Y0131800D01*
X0169300Y0136800D02*
X0174300Y0141800D01*
X0181800Y0141800D01*
X0169300Y0136800D02*
X0169300Y0106800D01*
X0166800Y0104300D01*
X0106800Y0104300D01*
X0101800Y0099300D01*
X0101800Y0056800D01*
X0094300Y0049300D01*
X0094300Y0036800D01*
X0091800Y0034300D01*
X0069300Y0034300D01*
X0026800Y0076800D01*
X0026800Y0126800D01*
X0034300Y0134300D01*
X0041800Y0131800D02*
X0041800Y0151800D01*
X0051800Y0151800D02*
X0051800Y0156800D01*
X0056800Y0161800D01*
X0191800Y0161800D01*
X0201800Y0151800D01*
X0211800Y0151800D01*
X0236800Y0136800D02*
X0236800Y0126800D01*
X0231800Y0121800D01*
X0211800Y0121800D01*
X0211800Y0111800D02*
X0246800Y0111800D01*
X0256800Y0121800D01*
X0256800Y0144300D01*
X0251800Y0149300D01*
X0251800Y0159300D02*
X0266800Y0144300D01*
X0266800Y0136800D01*
X0301800Y0121800D02*
X0301800Y0111800D01*
X0286800Y0111800D01*
X0286800Y0086800D01*
X0274300Y0086800D01*
X0274300Y0071800D01*
X0271800Y0069300D01*
X0261800Y0069300D01*
X0259300Y0071800D01*
X0259300Y0086800D01*
X0244300Y0086800D02*
X0244300Y0066800D01*
X0236800Y0059300D01*
X0209300Y0059300D01*
X0206800Y0061800D01*
X0176800Y0061800D02*
X0161800Y0061800D01*
X0156800Y0066800D01*
X0156800Y0076800D01*
X0211800Y0091800D02*
X0231800Y0091800D01*
X0236800Y0086800D01*
X0301800Y0121800D02*
X0311800Y0121800D01*
X0311800Y0111800D01*
X0086800Y0081800D02*
X0061800Y0081800D01*
X0046800Y0071800D02*
X0086800Y0071800D01*
X0031800Y0076800D02*
X0031800Y0121800D01*
X0041800Y0131800D01*
D21*
X0027143Y0017516D02*
X0026614Y0016600D01*
X0098250Y0016600D01*
X0098037Y0016894D01*
X0097722Y0017511D01*
X0097508Y0018170D01*
X0097400Y0018854D01*
X0097400Y0021800D01*
X0101800Y0021800D01*
X0101800Y0021800D01*
X0101800Y0028800D01*
X0102146Y0028800D01*
X0102830Y0028692D01*
X0103489Y0028478D01*
X0104106Y0028163D01*
X0104666Y0027756D01*
X0105156Y0027266D01*
X0105563Y0026706D01*
X0105878Y0026089D01*
X0106092Y0025430D01*
X0106200Y0024746D01*
X0106200Y0021800D01*
X0101800Y0021800D01*
X0101800Y0021800D01*
X0101800Y0028800D01*
X0101454Y0028800D01*
X0100770Y0028692D01*
X0100111Y0028478D01*
X0099757Y0028297D01*
X0100460Y0029000D01*
X0108140Y0029000D01*
X0109000Y0028140D01*
X0109000Y0027540D01*
X0108239Y0026779D01*
X0107600Y0025235D01*
X0107600Y0018365D01*
X0108239Y0016821D01*
X0108460Y0016600D01*
X0105350Y0016600D01*
X0105563Y0016894D01*
X0105878Y0017511D01*
X0106092Y0018170D01*
X0106200Y0018854D01*
X0106200Y0021800D01*
X0101800Y0021800D01*
X0101800Y0021800D01*
X0097400Y0021800D01*
X0097400Y0024746D01*
X0097508Y0025430D01*
X0097722Y0026089D01*
X0098037Y0026706D01*
X0098115Y0026814D01*
X0097357Y0026500D01*
X0066243Y0026500D01*
X0065214Y0026926D01*
X0031618Y0060522D01*
X0031049Y0060522D01*
X0029660Y0061097D01*
X0028597Y0062160D01*
X0028022Y0063549D01*
X0028022Y0065051D01*
X0028597Y0066440D01*
X0029660Y0067503D01*
X0031049Y0068078D01*
X0031562Y0068078D01*
X0024426Y0075214D01*
X0024000Y0076243D01*
X0024000Y0127357D01*
X0024426Y0128386D01*
X0030100Y0134060D01*
X0030100Y0136040D01*
X0032560Y0138500D01*
X0036040Y0138500D01*
X0038500Y0136040D01*
X0038500Y0132560D01*
X0036040Y0130100D01*
X0034060Y0130100D01*
X0029600Y0125640D01*
X0029600Y0123560D01*
X0039000Y0132960D01*
X0039000Y0146060D01*
X0038239Y0146821D01*
X0037600Y0148365D01*
X0037600Y0155235D01*
X0038239Y0156779D01*
X0039421Y0157961D01*
X0040965Y0158600D01*
X0042635Y0158600D01*
X0044179Y0157961D01*
X0045361Y0156779D01*
X0046000Y0155235D01*
X0046000Y0148365D01*
X0045361Y0146821D01*
X0044600Y0146060D01*
X0044600Y0131243D01*
X0044174Y0130214D01*
X0043386Y0129426D01*
X0034600Y0120640D01*
X0034600Y0077960D01*
X0047960Y0064600D01*
X0082670Y0064600D01*
X0084770Y0066700D01*
X0088830Y0066700D01*
X0090785Y0064745D01*
X0094000Y0067960D01*
X0094000Y0099857D01*
X0094426Y0100886D01*
X0095214Y0101674D01*
X0105214Y0111674D01*
X0106243Y0112100D01*
X0114712Y0112100D01*
X0112000Y0114812D01*
X0112000Y0116600D01*
X0116600Y0116600D01*
X0116600Y0117000D01*
X0116600Y0121600D01*
X0114812Y0121600D01*
X0112000Y0118788D01*
X0112000Y0117000D01*
X0116600Y0117000D01*
X0117000Y0117000D01*
X0117000Y0121600D01*
X0118788Y0121600D01*
X0121600Y0118788D01*
X0121600Y0117000D01*
X0117000Y0117000D01*
X0117000Y0116600D01*
X0121600Y0116600D01*
X0121600Y0114812D01*
X0118888Y0112100D01*
X0158140Y0112100D01*
X0159000Y0112960D01*
X0159000Y0129257D01*
X0158597Y0129660D01*
X0158022Y0131049D01*
X0158022Y0132551D01*
X0158597Y0133940D01*
X0159660Y0135003D01*
X0161049Y0135578D01*
X0162551Y0135578D01*
X0163940Y0135003D01*
X0165003Y0133940D01*
X0165578Y0132551D01*
X0165578Y0131049D01*
X0165003Y0129660D01*
X0164600Y0129257D01*
X0164600Y0111243D01*
X0164174Y0110214D01*
X0161674Y0107714D01*
X0161674Y0107714D01*
X0161060Y0107100D01*
X0165640Y0107100D01*
X0166500Y0107960D01*
X0166500Y0137357D01*
X0166926Y0138386D01*
X0171926Y0143386D01*
X0172714Y0144174D01*
X0173743Y0144600D01*
X0177812Y0144600D01*
X0179081Y0145869D01*
X0180845Y0146600D01*
X0182755Y0146600D01*
X0184519Y0145869D01*
X0185869Y0144519D01*
X0186600Y0142755D01*
X0186600Y0140845D01*
X0185869Y0139081D01*
X0184519Y0137731D01*
X0182755Y0137000D01*
X0180845Y0137000D01*
X0179081Y0137731D01*
X0177812Y0139000D01*
X0175460Y0139000D01*
X0172100Y0135640D01*
X0172100Y0106243D01*
X0171674Y0105214D01*
X0170886Y0104426D01*
X0168386Y0101926D01*
X0167357Y0101500D01*
X0107960Y0101500D01*
X0104600Y0098140D01*
X0104600Y0056243D01*
X0104174Y0055214D01*
X0103386Y0054426D01*
X0097100Y0048140D01*
X0097100Y0036243D01*
X0096674Y0035214D01*
X0094174Y0032714D01*
X0093560Y0032100D01*
X0095640Y0032100D01*
X0097714Y0034174D01*
X0098743Y0034600D01*
X0109857Y0034600D01*
X0110886Y0034174D01*
X0111674Y0033386D01*
X0114174Y0030886D01*
X0114600Y0029857D01*
X0114600Y0027540D01*
X0115361Y0026779D01*
X0116000Y0025235D01*
X0116000Y0018365D01*
X0115361Y0016821D01*
X0115140Y0016600D01*
X0118460Y0016600D01*
X0118239Y0016821D01*
X0117600Y0018365D01*
X0117600Y0025235D01*
X0118239Y0026779D01*
X0119421Y0027961D01*
X0120965Y0028600D01*
X0122635Y0028600D01*
X0124179Y0027961D01*
X0125361Y0026779D01*
X0126000Y0025235D01*
X0126000Y0018365D01*
X0125361Y0016821D01*
X0125140Y0016600D01*
X0128250Y0016600D01*
X0128037Y0016894D01*
X0127722Y0017511D01*
X0127508Y0018170D01*
X0127400Y0018854D01*
X0127400Y0021800D01*
X0131800Y0021800D01*
X0131800Y0021800D01*
X0131800Y0028800D01*
X0132146Y0028800D01*
X0132830Y0028692D01*
X0133489Y0028478D01*
X0134106Y0028163D01*
X0134666Y0027756D01*
X0135156Y0027266D01*
X0135563Y0026706D01*
X0135878Y0026089D01*
X0136092Y0025430D01*
X0136200Y0024746D01*
X0136200Y0021800D01*
X0131800Y0021800D01*
X0131800Y0021800D01*
X0131800Y0021800D01*
X0131800Y0028800D01*
X0131454Y0028800D01*
X0130770Y0028692D01*
X0130111Y0028478D01*
X0129494Y0028163D01*
X0128934Y0027756D01*
X0128444Y0027266D01*
X0128037Y0026706D01*
X0127722Y0026089D01*
X0127508Y0025430D01*
X0127400Y0024746D01*
X0127400Y0021800D01*
X0131800Y0021800D01*
X0136200Y0021800D01*
X0136200Y0018854D01*
X0136092Y0018170D01*
X0135878Y0017511D01*
X0135563Y0016894D01*
X0135350Y0016600D01*
X0138460Y0016600D01*
X0138239Y0016821D01*
X0137600Y0018365D01*
X0137600Y0025235D01*
X0138239Y0026779D01*
X0139421Y0027961D01*
X0140965Y0028600D01*
X0142635Y0028600D01*
X0144179Y0027961D01*
X0145361Y0026779D01*
X0146000Y0025235D01*
X0146000Y0018365D01*
X0145361Y0016821D01*
X0145140Y0016600D01*
X0183460Y0016600D01*
X0183239Y0016821D01*
X0182600Y0018365D01*
X0182600Y0019000D01*
X0161243Y0019000D01*
X0160214Y0019426D01*
X0157040Y0022600D01*
X0155060Y0022600D01*
X0152600Y0025060D01*
X0152600Y0028540D01*
X0155060Y0031000D01*
X0158540Y0031000D01*
X0161000Y0028540D01*
X0161000Y0026560D01*
X0162960Y0024600D01*
X0182600Y0024600D01*
X0182600Y0025235D01*
X0183239Y0026779D01*
X0184421Y0027961D01*
X0185965Y0028600D01*
X0187635Y0028600D01*
X0189179Y0027961D01*
X0190361Y0026779D01*
X0191000Y0025235D01*
X0191000Y0018365D01*
X0190361Y0016821D01*
X0190140Y0016600D01*
X0193460Y0016600D01*
X0193239Y0016821D01*
X0192600Y0018365D01*
X0192600Y0025235D01*
X0193239Y0026779D01*
X0194421Y0027961D01*
X0195965Y0028600D01*
X0197635Y0028600D01*
X0199179Y0027961D01*
X0200361Y0026779D01*
X0201000Y0025235D01*
X0201000Y0018365D01*
X0200361Y0016821D01*
X0200140Y0016600D01*
X0203460Y0016600D01*
X0203239Y0016821D01*
X0202600Y0018365D01*
X0202600Y0025235D01*
X0203239Y0026779D01*
X0204421Y0027961D01*
X0205965Y0028600D01*
X0207635Y0028600D01*
X0209179Y0027961D01*
X0210361Y0026779D01*
X0211000Y0025235D01*
X0211000Y0018365D01*
X0210361Y0016821D01*
X0210140Y0016600D01*
X0213250Y0016600D01*
X0213037Y0016894D01*
X0212722Y0017511D01*
X0212508Y0018170D01*
X0212400Y0018854D01*
X0212400Y0021800D01*
X0216800Y0021800D01*
X0216800Y0021800D01*
X0216800Y0028800D01*
X0217146Y0028800D01*
X0217830Y0028692D01*
X0218489Y0028478D01*
X0219106Y0028163D01*
X0219666Y0027756D01*
X0220156Y0027266D01*
X0220563Y0026706D01*
X0220878Y0026089D01*
X0221092Y0025430D01*
X0221200Y0024746D01*
X0221200Y0021800D01*
X0216800Y0021800D01*
X0216800Y0021800D01*
X0216800Y0021800D01*
X0216800Y0028800D01*
X0216454Y0028800D01*
X0215770Y0028692D01*
X0215111Y0028478D01*
X0214494Y0028163D01*
X0213934Y0027756D01*
X0213444Y0027266D01*
X0213037Y0026706D01*
X0212722Y0026089D01*
X0212508Y0025430D01*
X0212400Y0024746D01*
X0212400Y0021800D01*
X0216800Y0021800D01*
X0221200Y0021800D01*
X0221200Y0018854D01*
X0221092Y0018170D01*
X0220878Y0017511D01*
X0220563Y0016894D01*
X0220350Y0016600D01*
X0223460Y0016600D01*
X0223239Y0016821D01*
X0222600Y0018365D01*
X0222600Y0025235D01*
X0223239Y0026779D01*
X0224421Y0027961D01*
X0225965Y0028600D01*
X0227635Y0028600D01*
X0229179Y0027961D01*
X0230361Y0026779D01*
X0231000Y0025235D01*
X0231000Y0018365D01*
X0230361Y0016821D01*
X0230140Y0016600D01*
X0233460Y0016600D01*
X0233239Y0016821D01*
X0232600Y0018365D01*
X0232600Y0025235D01*
X0233239Y0026779D01*
X0234421Y0027961D01*
X0235965Y0028600D01*
X0237635Y0028600D01*
X0239179Y0027961D01*
X0240361Y0026779D01*
X0241000Y0025235D01*
X0241000Y0024600D01*
X0271500Y0024600D01*
X0271500Y0033660D01*
X0270100Y0035060D01*
X0270100Y0038540D01*
X0272560Y0041000D01*
X0276040Y0041000D01*
X0278500Y0038540D01*
X0278500Y0035060D01*
X0277100Y0033660D01*
X0277100Y0021243D01*
X0276674Y0020214D01*
X0275886Y0019426D01*
X0274857Y0019000D01*
X0241000Y0019000D01*
X0241000Y0018365D01*
X0240361Y0016821D01*
X0240140Y0016600D01*
X0296986Y0016600D01*
X0296457Y0017516D01*
X0295701Y0020339D01*
X0295701Y0023261D01*
X0296457Y0026084D01*
X0297918Y0028615D01*
X0299985Y0030682D01*
X0302516Y0032143D01*
X0305339Y0032899D01*
X0308261Y0032899D01*
X0311084Y0032143D01*
X0313615Y0030682D01*
X0315682Y0028615D01*
X0316961Y0026400D01*
X0316961Y0146963D01*
X0316084Y0146457D01*
X0313261Y0145701D01*
X0310339Y0145701D01*
X0307516Y0146457D01*
X0304985Y0147918D01*
X0302918Y0149985D01*
X0301457Y0152516D01*
X0300701Y0155339D01*
X0300701Y0158261D01*
X0301457Y0161084D01*
X0302918Y0163615D01*
X0303784Y0164480D01*
X0192646Y0164480D01*
X0193386Y0164174D01*
X0194174Y0163386D01*
X0194174Y0163386D01*
X0202960Y0154600D01*
X0207812Y0154600D01*
X0209081Y0155869D01*
X0210845Y0156600D01*
X0212755Y0156600D01*
X0214519Y0155869D01*
X0215869Y0154519D01*
X0216600Y0152755D01*
X0216600Y0150845D01*
X0215869Y0149081D01*
X0214519Y0147731D01*
X0212755Y0147000D01*
X0210845Y0147000D01*
X0209081Y0147731D01*
X0207812Y0149000D01*
X0201243Y0149000D01*
X0200214Y0149426D01*
X0199426Y0150214D01*
X0190640Y0159000D01*
X0158560Y0159000D01*
X0159174Y0158386D01*
X0162960Y0154600D01*
X0177812Y0154600D01*
X0179081Y0155869D01*
X0180845Y0156600D01*
X0182755Y0156600D01*
X0184519Y0155869D01*
X0185788Y0154600D01*
X0189857Y0154600D01*
X0190886Y0154174D01*
X0191674Y0153386D01*
X0196674Y0148386D01*
X0197100Y0147357D01*
X0197100Y0060460D01*
X0202960Y0054600D01*
X0203660Y0054600D01*
X0204421Y0055361D01*
X0205965Y0056000D01*
X0212835Y0056000D01*
X0214379Y0055361D01*
X0215140Y0054600D01*
X0257357Y0054600D01*
X0258386Y0054174D01*
X0260886Y0051674D01*
X0261674Y0050886D01*
X0262100Y0049857D01*
X0262100Y0039940D01*
X0263500Y0038540D01*
X0263500Y0035060D01*
X0261040Y0032600D01*
X0257560Y0032600D01*
X0255100Y0035060D01*
X0255100Y0038540D01*
X0256500Y0039940D01*
X0256500Y0048140D01*
X0255640Y0049000D01*
X0215140Y0049000D01*
X0214379Y0048239D01*
X0212835Y0047600D01*
X0205965Y0047600D01*
X0204421Y0048239D01*
X0203660Y0049000D01*
X0201243Y0049000D01*
X0200214Y0049426D01*
X0192714Y0056926D01*
X0191926Y0057714D01*
X0191500Y0058743D01*
X0191500Y0145640D01*
X0188140Y0149000D01*
X0185788Y0149000D01*
X0184519Y0147731D01*
X0182755Y0147000D01*
X0180845Y0147000D01*
X0179081Y0147731D01*
X0177812Y0149000D01*
X0161243Y0149000D01*
X0160214Y0149426D01*
X0155640Y0154000D01*
X0116843Y0154000D01*
X0116440Y0153597D01*
X0115051Y0153022D01*
X0113549Y0153022D01*
X0112160Y0153597D01*
X0111097Y0154660D01*
X0110522Y0156049D01*
X0110522Y0157551D01*
X0111097Y0158940D01*
X0111157Y0159000D01*
X0057960Y0159000D01*
X0055471Y0156512D01*
X0056000Y0155235D01*
X0056000Y0148365D01*
X0055361Y0146821D01*
X0054179Y0145639D01*
X0052635Y0145000D01*
X0050965Y0145000D01*
X0049421Y0145639D01*
X0048239Y0146821D01*
X0047600Y0148365D01*
X0047600Y0155235D01*
X0048239Y0156779D01*
X0049129Y0157669D01*
X0049426Y0158386D01*
X0050214Y0159174D01*
X0055214Y0164174D01*
X0055954Y0164480D01*
X0024816Y0164480D01*
X0025682Y0163615D01*
X0027143Y0161084D01*
X0027899Y0158261D01*
X0027899Y0155958D01*
X0028239Y0156779D01*
X0029421Y0157961D01*
X0030965Y0158600D01*
X0032635Y0158600D01*
X0034179Y0157961D01*
X0035361Y0156779D01*
X0036000Y0155235D01*
X0036000Y0148365D01*
X0035361Y0146821D01*
X0034179Y0145639D01*
X0032635Y0145000D01*
X0030965Y0145000D01*
X0029421Y0145639D01*
X0028239Y0146821D01*
X0027600Y0148365D01*
X0027600Y0154222D01*
X0027143Y0152516D01*
X0025682Y0149985D01*
X0023615Y0147918D01*
X0021084Y0146457D01*
X0018261Y0145701D01*
X0015339Y0145701D01*
X0012516Y0146457D01*
X0011600Y0146986D01*
X0011600Y0031614D01*
X0012516Y0032143D01*
X0015339Y0032899D01*
X0018261Y0032899D01*
X0021084Y0032143D01*
X0023615Y0030682D01*
X0025682Y0028615D01*
X0027143Y0026084D01*
X0027899Y0023261D01*
X0027899Y0020339D01*
X0027143Y0017516D01*
X0027325Y0018194D02*
X0097504Y0018194D01*
X0097400Y0019793D02*
X0027753Y0019793D01*
X0027899Y0021391D02*
X0097400Y0021391D01*
X0097400Y0022990D02*
X0027899Y0022990D01*
X0027544Y0024588D02*
X0097400Y0024588D01*
X0097772Y0026187D02*
X0027084Y0026187D01*
X0026161Y0027785D02*
X0064355Y0027785D01*
X0062757Y0029384D02*
X0024913Y0029384D01*
X0023094Y0030982D02*
X0061158Y0030982D01*
X0059560Y0032581D02*
X0019450Y0032581D01*
X0018830Y0036900D02*
X0014770Y0036900D01*
X0011900Y0039770D01*
X0011900Y0043830D01*
X0014770Y0046700D01*
X0018830Y0046700D01*
X0021700Y0043830D01*
X0021700Y0039770D01*
X0018830Y0036900D01*
X0019306Y0037376D02*
X0054764Y0037376D01*
X0056363Y0035778D02*
X0011600Y0035778D01*
X0011600Y0037376D02*
X0014294Y0037376D01*
X0012696Y0038975D02*
X0011600Y0038975D01*
X0011600Y0040573D02*
X0011900Y0040573D01*
X0011900Y0042172D02*
X0011600Y0042172D01*
X0011600Y0043770D02*
X0011900Y0043770D01*
X0011600Y0045369D02*
X0013439Y0045369D01*
X0014770Y0046900D02*
X0018830Y0046900D01*
X0021700Y0049770D01*
X0021700Y0053830D01*
X0018830Y0056700D01*
X0014770Y0056700D01*
X0011900Y0053830D01*
X0011900Y0049770D01*
X0014770Y0046900D01*
X0014703Y0046967D02*
X0011600Y0046967D01*
X0011600Y0048566D02*
X0013105Y0048566D01*
X0011900Y0050164D02*
X0011600Y0050164D01*
X0011600Y0051763D02*
X0011900Y0051763D01*
X0011900Y0053361D02*
X0011600Y0053361D01*
X0011600Y0054960D02*
X0013030Y0054960D01*
X0011600Y0056558D02*
X0014629Y0056558D01*
X0014770Y0056900D02*
X0018830Y0056900D01*
X0021700Y0059770D01*
X0021700Y0063830D01*
X0018830Y0066700D01*
X0014770Y0066700D01*
X0011900Y0063830D01*
X0011900Y0059770D01*
X0014770Y0056900D01*
X0013514Y0058157D02*
X0011600Y0058157D01*
X0011600Y0059755D02*
X0011915Y0059755D01*
X0011900Y0061354D02*
X0011600Y0061354D01*
X0011600Y0062952D02*
X0011900Y0062952D01*
X0011600Y0064551D02*
X0012621Y0064551D01*
X0011600Y0066149D02*
X0014220Y0066149D01*
X0014770Y0066900D02*
X0018830Y0066900D01*
X0021700Y0069770D01*
X0021700Y0073830D01*
X0018830Y0076700D01*
X0014770Y0076700D01*
X0011900Y0073830D01*
X0011900Y0069770D01*
X0014770Y0066900D01*
X0013922Y0067748D02*
X0011600Y0067748D01*
X0011600Y0069346D02*
X0012324Y0069346D01*
X0011900Y0070945D02*
X0011600Y0070945D01*
X0011600Y0072543D02*
X0011900Y0072543D01*
X0011600Y0074142D02*
X0012212Y0074142D01*
X0011600Y0075740D02*
X0013811Y0075740D01*
X0014770Y0076900D02*
X0018830Y0076900D01*
X0021700Y0079770D01*
X0021700Y0083830D01*
X0018830Y0086700D01*
X0014770Y0086700D01*
X0011900Y0083830D01*
X0011900Y0079770D01*
X0014770Y0076900D01*
X0014331Y0077339D02*
X0011600Y0077339D01*
X0011600Y0078937D02*
X0012733Y0078937D01*
X0011900Y0080536D02*
X0011600Y0080536D01*
X0011600Y0082134D02*
X0011900Y0082134D01*
X0011900Y0083733D02*
X0011600Y0083733D01*
X0011600Y0085332D02*
X0013402Y0085332D01*
X0014770Y0086900D02*
X0018830Y0086900D01*
X0021700Y0089770D01*
X0021700Y0093830D01*
X0018830Y0096700D01*
X0014770Y0096700D01*
X0011900Y0093830D01*
X0011900Y0089770D01*
X0014770Y0086900D01*
X0014740Y0086930D02*
X0011600Y0086930D01*
X0011600Y0088529D02*
X0013142Y0088529D01*
X0011900Y0090127D02*
X0011600Y0090127D01*
X0011600Y0091726D02*
X0011900Y0091726D01*
X0011900Y0093324D02*
X0011600Y0093324D01*
X0011600Y0094923D02*
X0012993Y0094923D01*
X0011600Y0096521D02*
X0014591Y0096521D01*
X0014688Y0096700D02*
X0016800Y0096700D01*
X0018912Y0096700D01*
X0021900Y0099688D01*
X0021900Y0101800D01*
X0021900Y0103912D01*
X0018912Y0106900D01*
X0016800Y0106900D01*
X0016800Y0101800D01*
X0021900Y0101800D01*
X0016800Y0101800D01*
X0016800Y0101800D01*
X0016800Y0101800D01*
X0016800Y0096700D01*
X0016800Y0101800D01*
X0016800Y0101800D01*
X0016800Y0101800D01*
X0011700Y0101800D01*
X0011700Y0103912D01*
X0014688Y0106900D01*
X0016800Y0106900D01*
X0016800Y0101800D01*
X0011700Y0101800D01*
X0011700Y0099688D01*
X0014688Y0096700D01*
X0013268Y0098120D02*
X0011600Y0098120D01*
X0011600Y0099718D02*
X0011700Y0099718D01*
X0011700Y0101317D02*
X0011600Y0101317D01*
X0011600Y0102915D02*
X0011700Y0102915D01*
X0011600Y0104514D02*
X0012301Y0104514D01*
X0011600Y0106112D02*
X0013900Y0106112D01*
X0014770Y0106900D02*
X0018830Y0106900D01*
X0021700Y0109770D01*
X0021700Y0113830D01*
X0018830Y0116700D01*
X0014770Y0116700D01*
X0011900Y0113830D01*
X0011900Y0109770D01*
X0014770Y0106900D01*
X0013960Y0107711D02*
X0011600Y0107711D01*
X0011600Y0109309D02*
X0012361Y0109309D01*
X0011900Y0110908D02*
X0011600Y0110908D01*
X0011600Y0112506D02*
X0011900Y0112506D01*
X0012175Y0114105D02*
X0011600Y0114105D01*
X0011600Y0115703D02*
X0013774Y0115703D01*
X0011600Y0117302D02*
X0024000Y0117302D01*
X0024000Y0118900D02*
X0011600Y0118900D01*
X0011600Y0120499D02*
X0024000Y0120499D01*
X0024000Y0122097D02*
X0011600Y0122097D01*
X0011600Y0123696D02*
X0024000Y0123696D01*
X0024000Y0125294D02*
X0011600Y0125294D01*
X0011600Y0126893D02*
X0024000Y0126893D01*
X0024532Y0128491D02*
X0011600Y0128491D01*
X0011600Y0130090D02*
X0026130Y0130090D01*
X0027729Y0131688D02*
X0011600Y0131688D01*
X0011600Y0133287D02*
X0029327Y0133287D01*
X0030100Y0134885D02*
X0011600Y0134885D01*
X0011600Y0136484D02*
X0030544Y0136484D01*
X0032143Y0138082D02*
X0011600Y0138082D01*
X0011600Y0139681D02*
X0039000Y0139681D01*
X0039000Y0141279D02*
X0011600Y0141279D01*
X0011600Y0142878D02*
X0039000Y0142878D01*
X0039000Y0144476D02*
X0011600Y0144476D01*
X0011600Y0146075D02*
X0013942Y0146075D01*
X0019658Y0146075D02*
X0028985Y0146075D01*
X0027886Y0147673D02*
X0023191Y0147673D01*
X0024969Y0149272D02*
X0027600Y0149272D01*
X0027600Y0150870D02*
X0026193Y0150870D01*
X0027116Y0152469D02*
X0027600Y0152469D01*
X0027559Y0154068D02*
X0027600Y0154068D01*
X0027899Y0157265D02*
X0028725Y0157265D01*
X0027738Y0158863D02*
X0049903Y0158863D01*
X0048725Y0157265D02*
X0044875Y0157265D01*
X0045822Y0155666D02*
X0047778Y0155666D01*
X0047600Y0154068D02*
X0046000Y0154068D01*
X0046000Y0152469D02*
X0047600Y0152469D01*
X0047600Y0150870D02*
X0046000Y0150870D01*
X0046000Y0149272D02*
X0047600Y0149272D01*
X0047886Y0147673D02*
X0045714Y0147673D01*
X0044615Y0146075D02*
X0048985Y0146075D01*
X0044600Y0144476D02*
X0112335Y0144476D01*
X0112000Y0144812D02*
X0114812Y0142000D01*
X0116600Y0142000D01*
X0116600Y0146600D01*
X0112000Y0146600D01*
X0112000Y0144812D01*
X0112000Y0146075D02*
X0094897Y0146075D01*
X0094666Y0145844D02*
X0095156Y0146334D01*
X0095563Y0146894D01*
X0095878Y0147511D01*
X0096092Y0148170D01*
X0096200Y0148854D01*
X0096200Y0151800D01*
X0096200Y0154746D01*
X0096092Y0155430D01*
X0095878Y0156089D01*
X0095563Y0156706D01*
X0095156Y0157266D01*
X0094666Y0157756D01*
X0094106Y0158163D01*
X0093489Y0158478D01*
X0092830Y0158692D01*
X0092146Y0158800D01*
X0091800Y0158800D01*
X0091800Y0151800D01*
X0096200Y0151800D01*
X0091800Y0151800D01*
X0091800Y0151800D01*
X0091800Y0151800D01*
X0091800Y0144800D01*
X0092146Y0144800D01*
X0092830Y0144908D01*
X0093489Y0145122D01*
X0094106Y0145437D01*
X0094666Y0145844D01*
X0095930Y0147673D02*
X0112000Y0147673D01*
X0112000Y0147000D02*
X0116600Y0147000D01*
X0116600Y0151600D01*
X0114812Y0151600D01*
X0112000Y0148788D01*
X0112000Y0147000D01*
X0112484Y0149272D02*
X0096200Y0149272D01*
X0096200Y0150870D02*
X0114082Y0150870D01*
X0116600Y0150870D02*
X0117000Y0150870D01*
X0117000Y0151600D02*
X0117000Y0147000D01*
X0116600Y0147000D01*
X0116600Y0146600D01*
X0117000Y0146600D01*
X0117000Y0147000D01*
X0121600Y0147000D01*
X0121600Y0148788D01*
X0118788Y0151600D01*
X0117000Y0151600D01*
X0117000Y0149272D02*
X0116600Y0149272D01*
X0116600Y0147673D02*
X0117000Y0147673D01*
X0117000Y0146600D02*
X0121600Y0146600D01*
X0121600Y0144812D01*
X0118788Y0142000D01*
X0117000Y0142000D01*
X0117000Y0146600D01*
X0117000Y0146075D02*
X0116600Y0146075D01*
X0116600Y0144476D02*
X0117000Y0144476D01*
X0117000Y0142878D02*
X0116600Y0142878D01*
X0116600Y0141600D02*
X0114812Y0141600D01*
X0112000Y0138788D01*
X0112000Y0137000D01*
X0116600Y0137000D01*
X0116600Y0141600D01*
X0116600Y0141279D02*
X0117000Y0141279D01*
X0117000Y0141600D02*
X0117000Y0137000D01*
X0116600Y0137000D01*
X0116600Y0136600D01*
X0112000Y0136600D01*
X0112000Y0134812D01*
X0114812Y0132000D01*
X0116600Y0132000D01*
X0116600Y0136600D01*
X0117000Y0136600D01*
X0117000Y0137000D01*
X0121600Y0137000D01*
X0121600Y0138788D01*
X0118788Y0141600D01*
X0117000Y0141600D01*
X0117000Y0139681D02*
X0116600Y0139681D01*
X0116600Y0138082D02*
X0117000Y0138082D01*
X0117000Y0136600D02*
X0121600Y0136600D01*
X0121600Y0134812D01*
X0118788Y0132000D01*
X0117000Y0132000D01*
X0117000Y0136600D01*
X0117000Y0136484D02*
X0116600Y0136484D01*
X0116600Y0134885D02*
X0117000Y0134885D01*
X0117000Y0133287D02*
X0116600Y0133287D01*
X0116600Y0131600D02*
X0114812Y0131600D01*
X0112000Y0128788D01*
X0112000Y0127000D01*
X0116600Y0127000D01*
X0116600Y0131600D01*
X0117000Y0131600D02*
X0117000Y0127000D01*
X0116600Y0127000D01*
X0116600Y0126600D01*
X0112000Y0126600D01*
X0112000Y0124812D01*
X0114812Y0122000D01*
X0116600Y0122000D01*
X0116600Y0126600D01*
X0117000Y0126600D01*
X0117000Y0127000D01*
X0121600Y0127000D01*
X0121600Y0128788D01*
X0118788Y0131600D01*
X0117000Y0131600D01*
X0117000Y0130090D02*
X0116600Y0130090D01*
X0116600Y0128491D02*
X0117000Y0128491D01*
X0117000Y0126893D02*
X0122200Y0126893D01*
X0121600Y0126600D02*
X0117000Y0126600D01*
X0117000Y0122000D01*
X0118788Y0122000D01*
X0121600Y0124812D01*
X0121600Y0126600D01*
X0121600Y0125294D02*
X0122200Y0125294D01*
X0122200Y0124895D02*
X0124895Y0122200D01*
X0128705Y0122200D01*
X0131400Y0124895D01*
X0131400Y0128705D01*
X0128705Y0131400D01*
X0124895Y0131400D01*
X0122200Y0128705D01*
X0122200Y0124895D01*
X0123399Y0123696D02*
X0120484Y0123696D01*
X0118885Y0122097D02*
X0159000Y0122097D01*
X0159000Y0120499D02*
X0129607Y0120499D01*
X0128705Y0121400D02*
X0131400Y0118705D01*
X0131400Y0114895D01*
X0128705Y0112200D01*
X0124895Y0112200D01*
X0122200Y0114895D01*
X0122200Y0118705D01*
X0124895Y0121400D01*
X0128705Y0121400D01*
X0131205Y0118900D02*
X0159000Y0118900D01*
X0159000Y0117302D02*
X0131400Y0117302D01*
X0131400Y0115703D02*
X0159000Y0115703D01*
X0159000Y0114105D02*
X0130610Y0114105D01*
X0129012Y0112506D02*
X0158546Y0112506D01*
X0163269Y0109309D02*
X0166500Y0109309D01*
X0166500Y0110908D02*
X0164461Y0110908D01*
X0164600Y0112506D02*
X0166500Y0112506D01*
X0166500Y0114105D02*
X0164600Y0114105D01*
X0164600Y0115703D02*
X0166500Y0115703D01*
X0166500Y0117302D02*
X0164600Y0117302D01*
X0164600Y0118900D02*
X0166500Y0118900D01*
X0166500Y0120499D02*
X0164600Y0120499D01*
X0164600Y0122097D02*
X0166500Y0122097D01*
X0166500Y0123696D02*
X0164600Y0123696D01*
X0164600Y0125294D02*
X0166500Y0125294D01*
X0166500Y0126893D02*
X0164600Y0126893D01*
X0164600Y0128491D02*
X0166500Y0128491D01*
X0166500Y0130090D02*
X0165181Y0130090D01*
X0165578Y0131688D02*
X0166500Y0131688D01*
X0166500Y0133287D02*
X0165273Y0133287D01*
X0164057Y0134885D02*
X0166500Y0134885D01*
X0166500Y0136484D02*
X0131400Y0136484D01*
X0131400Y0134895D02*
X0128705Y0132200D01*
X0124895Y0132200D01*
X0122200Y0134895D01*
X0122200Y0138705D01*
X0124895Y0141400D01*
X0128705Y0141400D01*
X0131400Y0138705D01*
X0131400Y0134895D01*
X0131391Y0134885D02*
X0159543Y0134885D01*
X0158327Y0133287D02*
X0129792Y0133287D01*
X0130016Y0130090D02*
X0158419Y0130090D01*
X0158022Y0131688D02*
X0087628Y0131688D01*
X0088500Y0132560D02*
X0086040Y0130100D01*
X0082560Y0130100D01*
X0080100Y0132560D01*
X0080100Y0136040D01*
X0082560Y0138500D01*
X0086040Y0138500D01*
X0088500Y0136040D01*
X0088500Y0132560D01*
X0088500Y0133287D02*
X0113525Y0133287D01*
X0112000Y0134885D02*
X0088500Y0134885D01*
X0088056Y0136484D02*
X0112000Y0136484D01*
X0112000Y0138082D02*
X0086457Y0138082D01*
X0082143Y0138082D02*
X0044600Y0138082D01*
X0044600Y0136484D02*
X0080544Y0136484D01*
X0080100Y0134885D02*
X0044600Y0134885D01*
X0044600Y0133287D02*
X0080100Y0133287D01*
X0080972Y0131688D02*
X0044600Y0131688D01*
X0044050Y0130090D02*
X0113302Y0130090D01*
X0112000Y0128491D02*
X0042451Y0128491D01*
X0040853Y0126893D02*
X0116600Y0126893D01*
X0116600Y0125294D02*
X0117000Y0125294D01*
X0117000Y0123696D02*
X0116600Y0123696D01*
X0116600Y0122097D02*
X0117000Y0122097D01*
X0117000Y0120499D02*
X0116600Y0120499D01*
X0116600Y0118900D02*
X0117000Y0118900D01*
X0117000Y0117302D02*
X0116600Y0117302D01*
X0112000Y0117302D02*
X0034600Y0117302D01*
X0034600Y0118900D02*
X0112112Y0118900D01*
X0113711Y0120499D02*
X0034600Y0120499D01*
X0036057Y0122097D02*
X0114714Y0122097D01*
X0113116Y0123696D02*
X0037656Y0123696D01*
X0039254Y0125294D02*
X0112000Y0125294D01*
X0120298Y0130090D02*
X0123584Y0130090D01*
X0122200Y0128491D02*
X0121600Y0128491D01*
X0120075Y0133287D02*
X0123808Y0133287D01*
X0122209Y0134885D02*
X0121600Y0134885D01*
X0121600Y0136484D02*
X0122200Y0136484D01*
X0122200Y0138082D02*
X0121600Y0138082D01*
X0120707Y0139681D02*
X0123176Y0139681D01*
X0124774Y0141279D02*
X0119109Y0141279D01*
X0119666Y0142878D02*
X0124217Y0142878D01*
X0124895Y0142200D02*
X0128705Y0142200D01*
X0131400Y0144895D01*
X0131400Y0148705D01*
X0128705Y0151400D01*
X0124895Y0151400D01*
X0122200Y0148705D01*
X0122200Y0144895D01*
X0124895Y0142200D01*
X0122618Y0144476D02*
X0121265Y0144476D01*
X0121600Y0146075D02*
X0122200Y0146075D01*
X0122200Y0147673D02*
X0121600Y0147673D01*
X0121116Y0149272D02*
X0122767Y0149272D01*
X0124365Y0150870D02*
X0119518Y0150870D01*
X0111690Y0154068D02*
X0096200Y0154068D01*
X0096200Y0152469D02*
X0157171Y0152469D01*
X0158770Y0150870D02*
X0129235Y0150870D01*
X0130833Y0149272D02*
X0160586Y0149272D01*
X0161894Y0155666D02*
X0178878Y0155666D01*
X0184722Y0155666D02*
X0193974Y0155666D01*
X0192376Y0157265D02*
X0160295Y0157265D01*
X0158697Y0158863D02*
X0190777Y0158863D01*
X0190992Y0154068D02*
X0195573Y0154068D01*
X0197171Y0152469D02*
X0192591Y0152469D01*
X0194189Y0150870D02*
X0198770Y0150870D01*
X0200586Y0149272D02*
X0195788Y0149272D01*
X0196969Y0147673D02*
X0209219Y0147673D01*
X0209578Y0146075D02*
X0197100Y0146075D01*
X0197100Y0144476D02*
X0207713Y0144476D01*
X0207731Y0144519D02*
X0207000Y0142755D01*
X0207000Y0140845D01*
X0207731Y0139081D01*
X0209081Y0137731D01*
X0210845Y0137000D01*
X0212755Y0137000D01*
X0214519Y0137731D01*
X0215869Y0139081D01*
X0216600Y0140845D01*
X0216600Y0142755D01*
X0215869Y0144519D01*
X0214519Y0145869D01*
X0212755Y0146600D01*
X0210845Y0146600D01*
X0209081Y0145869D01*
X0207731Y0144519D01*
X0207051Y0142878D02*
X0197100Y0142878D01*
X0197100Y0141279D02*
X0207000Y0141279D01*
X0207482Y0139681D02*
X0197100Y0139681D01*
X0197100Y0138082D02*
X0208729Y0138082D01*
X0209081Y0135869D02*
X0207731Y0134519D01*
X0207000Y0132755D01*
X0207000Y0130845D01*
X0207731Y0129081D01*
X0209081Y0127731D01*
X0210845Y0127000D01*
X0212755Y0127000D01*
X0214519Y0127731D01*
X0215869Y0129081D01*
X0216600Y0130845D01*
X0216600Y0132755D01*
X0215869Y0134519D01*
X0214519Y0135869D01*
X0212755Y0136600D01*
X0210845Y0136600D01*
X0209081Y0135869D01*
X0208097Y0134885D02*
X0197100Y0134885D01*
X0197100Y0133287D02*
X0207220Y0133287D01*
X0207000Y0131688D02*
X0197100Y0131688D01*
X0197100Y0130090D02*
X0207313Y0130090D01*
X0208320Y0128491D02*
X0197100Y0128491D01*
X0197100Y0126893D02*
X0232933Y0126893D01*
X0234000Y0127960D02*
X0230640Y0124600D01*
X0215788Y0124600D01*
X0214519Y0125869D01*
X0212755Y0126600D01*
X0210845Y0126600D01*
X0209081Y0125869D01*
X0207731Y0124519D01*
X0207000Y0122755D01*
X0207000Y0120845D01*
X0207731Y0119081D01*
X0209081Y0117731D01*
X0210845Y0117000D01*
X0212755Y0117000D01*
X0214519Y0117731D01*
X0215788Y0119000D01*
X0232357Y0119000D01*
X0233386Y0119426D01*
X0234174Y0120214D01*
X0239174Y0125214D01*
X0239600Y0126243D01*
X0239600Y0133660D01*
X0241000Y0135060D01*
X0241000Y0138540D01*
X0238540Y0141000D01*
X0235060Y0141000D01*
X0232600Y0138540D01*
X0232600Y0135060D01*
X0234000Y0133660D01*
X0234000Y0127960D01*
X0234000Y0128491D02*
X0215280Y0128491D01*
X0216287Y0130090D02*
X0234000Y0130090D01*
X0234000Y0131688D02*
X0216600Y0131688D01*
X0216380Y0133287D02*
X0234000Y0133287D01*
X0232775Y0134885D02*
X0215503Y0134885D01*
X0213035Y0136484D02*
X0232600Y0136484D01*
X0232600Y0138082D02*
X0214871Y0138082D01*
X0216118Y0139681D02*
X0233741Y0139681D01*
X0239859Y0139681D02*
X0248741Y0139681D01*
X0247600Y0138540D02*
X0250060Y0141000D01*
X0253540Y0141000D01*
X0254000Y0140540D01*
X0254000Y0143140D01*
X0252040Y0145100D01*
X0250060Y0145100D01*
X0247600Y0147560D01*
X0247600Y0151040D01*
X0250060Y0153500D01*
X0253540Y0153500D01*
X0256000Y0151040D01*
X0256000Y0149060D01*
X0258386Y0146674D01*
X0259174Y0145886D01*
X0259600Y0144857D01*
X0259600Y0121243D01*
X0259174Y0120214D01*
X0249174Y0110214D01*
X0248386Y0109426D01*
X0247357Y0109000D01*
X0215788Y0109000D01*
X0214519Y0107731D01*
X0212755Y0107000D01*
X0210845Y0107000D01*
X0209081Y0107731D01*
X0207731Y0109081D01*
X0207000Y0110845D01*
X0207000Y0112755D01*
X0207731Y0114519D01*
X0209081Y0115869D01*
X0210845Y0116600D01*
X0212755Y0116600D01*
X0214519Y0115869D01*
X0215788Y0114600D01*
X0245640Y0114600D01*
X0254000Y0122960D01*
X0254000Y0133060D01*
X0253540Y0132600D01*
X0250060Y0132600D01*
X0247600Y0135060D01*
X0247600Y0138540D01*
X0247600Y0138082D02*
X0241000Y0138082D01*
X0241000Y0136484D02*
X0247600Y0136484D01*
X0247775Y0134885D02*
X0240825Y0134885D01*
X0239600Y0133287D02*
X0249373Y0133287D01*
X0254000Y0131688D02*
X0239600Y0131688D01*
X0239600Y0130090D02*
X0254000Y0130090D01*
X0254000Y0128491D02*
X0239600Y0128491D01*
X0239600Y0126893D02*
X0254000Y0126893D01*
X0254000Y0125294D02*
X0239207Y0125294D01*
X0237656Y0123696D02*
X0254000Y0123696D01*
X0253137Y0122097D02*
X0236057Y0122097D01*
X0234459Y0120499D02*
X0251539Y0120499D01*
X0249940Y0118900D02*
X0215688Y0118900D01*
X0213483Y0117302D02*
X0248342Y0117302D01*
X0246743Y0115703D02*
X0214685Y0115703D01*
X0210117Y0117302D02*
X0197100Y0117302D01*
X0197100Y0118900D02*
X0207912Y0118900D01*
X0207143Y0120499D02*
X0197100Y0120499D01*
X0197100Y0122097D02*
X0207000Y0122097D01*
X0207390Y0123696D02*
X0197100Y0123696D01*
X0197100Y0125294D02*
X0208506Y0125294D01*
X0215094Y0125294D02*
X0231335Y0125294D01*
X0234174Y0120214D02*
X0234174Y0120214D01*
X0249867Y0110908D02*
X0284000Y0110908D01*
X0284000Y0112357D02*
X0284000Y0089600D01*
X0277440Y0089600D01*
X0276700Y0090340D01*
X0276700Y0097277D01*
X0276335Y0098159D01*
X0273835Y0100659D01*
X0273159Y0101335D01*
X0272277Y0101700D01*
X0243823Y0101700D01*
X0242941Y0101335D01*
X0235441Y0093835D01*
X0234765Y0093159D01*
X0234658Y0092901D01*
X0234174Y0093386D01*
X0233386Y0094174D01*
X0232357Y0094600D01*
X0215788Y0094600D01*
X0214519Y0095869D01*
X0212755Y0096600D01*
X0210845Y0096600D01*
X0209081Y0095869D01*
X0207731Y0094519D01*
X0207000Y0092755D01*
X0207000Y0090845D01*
X0207731Y0089081D01*
X0209081Y0087731D01*
X0210845Y0087000D01*
X0212755Y0087000D01*
X0214519Y0087731D01*
X0215788Y0089000D01*
X0230640Y0089000D01*
X0232600Y0087040D01*
X0232600Y0085060D01*
X0235060Y0082600D01*
X0238540Y0082600D01*
X0240550Y0084610D01*
X0241500Y0083660D01*
X0241500Y0067960D01*
X0235640Y0062100D01*
X0216200Y0062100D01*
X0216200Y0062635D01*
X0215561Y0064179D01*
X0214379Y0065361D01*
X0212835Y0066000D01*
X0205965Y0066000D01*
X0204421Y0065361D01*
X0203239Y0064179D01*
X0202600Y0062635D01*
X0202600Y0060965D01*
X0203239Y0059421D01*
X0204421Y0058239D01*
X0205965Y0057600D01*
X0207040Y0057600D01*
X0207714Y0056926D01*
X0208743Y0056500D01*
X0237357Y0056500D01*
X0238386Y0056926D01*
X0245886Y0064426D01*
X0246674Y0065214D01*
X0247100Y0066243D01*
X0247100Y0083660D01*
X0248050Y0084610D01*
X0250060Y0082600D01*
X0253540Y0082600D01*
X0255550Y0084610D01*
X0256500Y0083660D01*
X0256500Y0071243D01*
X0256926Y0070214D01*
X0259426Y0067714D01*
X0260214Y0066926D01*
X0261243Y0066500D01*
X0272357Y0066500D01*
X0273386Y0066926D01*
X0275886Y0069426D01*
X0276674Y0070214D01*
X0277100Y0071243D01*
X0277100Y0083660D01*
X0277440Y0084000D01*
X0287357Y0084000D01*
X0288386Y0084426D01*
X0289174Y0085214D01*
X0289600Y0086243D01*
X0289600Y0109000D01*
X0298377Y0109000D01*
X0299977Y0107400D01*
X0303623Y0107400D01*
X0306200Y0109977D01*
X0306200Y0113623D01*
X0304600Y0115223D01*
X0304600Y0118377D01*
X0305223Y0119000D01*
X0308377Y0119000D01*
X0309000Y0118377D01*
X0309000Y0115223D01*
X0307400Y0113623D01*
X0307400Y0109977D01*
X0309977Y0107400D01*
X0313623Y0107400D01*
X0316200Y0109977D01*
X0316200Y0113623D01*
X0314600Y0115223D01*
X0314600Y0118377D01*
X0315530Y0119308D01*
X0316200Y0120925D01*
X0316200Y0122675D01*
X0315530Y0124292D01*
X0314292Y0125530D01*
X0312675Y0126200D01*
X0310925Y0126200D01*
X0309308Y0125530D01*
X0308377Y0124600D01*
X0305223Y0124600D01*
X0303623Y0126200D01*
X0299977Y0126200D01*
X0297400Y0123623D01*
X0297400Y0119977D01*
X0299000Y0118377D01*
X0299000Y0115223D01*
X0298377Y0114600D01*
X0286243Y0114600D01*
X0285214Y0114174D01*
X0284426Y0113386D01*
X0284000Y0112357D01*
X0284062Y0112506D02*
X0251466Y0112506D01*
X0253065Y0114105D02*
X0285145Y0114105D01*
X0284000Y0109309D02*
X0248103Y0109309D01*
X0254663Y0115703D02*
X0299000Y0115703D01*
X0299000Y0117302D02*
X0256262Y0117302D01*
X0257860Y0118900D02*
X0298477Y0118900D01*
X0297400Y0120499D02*
X0259292Y0120499D01*
X0259600Y0122097D02*
X0297400Y0122097D01*
X0297473Y0123696D02*
X0259600Y0123696D01*
X0259600Y0125294D02*
X0299072Y0125294D01*
X0304528Y0125294D02*
X0309072Y0125294D01*
X0314528Y0125294D02*
X0316961Y0125294D01*
X0316961Y0123696D02*
X0315777Y0123696D01*
X0316200Y0122097D02*
X0316961Y0122097D01*
X0316961Y0120499D02*
X0316024Y0120499D01*
X0315123Y0118900D02*
X0316961Y0118900D01*
X0316961Y0117302D02*
X0314600Y0117302D01*
X0314600Y0115703D02*
X0316961Y0115703D01*
X0316961Y0114105D02*
X0315718Y0114105D01*
X0316200Y0112506D02*
X0316961Y0112506D01*
X0316961Y0110908D02*
X0316200Y0110908D01*
X0315532Y0109309D02*
X0316961Y0109309D01*
X0316961Y0107711D02*
X0313933Y0107711D01*
X0313623Y0106200D02*
X0309977Y0106200D01*
X0307400Y0103623D01*
X0307400Y0099977D01*
X0309977Y0097400D01*
X0313623Y0097400D01*
X0316200Y0099977D01*
X0316200Y0103623D01*
X0313623Y0106200D01*
X0313710Y0106112D02*
X0316961Y0106112D01*
X0316961Y0104514D02*
X0315309Y0104514D01*
X0316200Y0102915D02*
X0316961Y0102915D01*
X0316961Y0101317D02*
X0316200Y0101317D01*
X0315941Y0099718D02*
X0316961Y0099718D01*
X0316961Y0098120D02*
X0314342Y0098120D01*
X0313705Y0096400D02*
X0311900Y0096400D01*
X0311900Y0091900D01*
X0311700Y0091900D01*
X0311700Y0096400D01*
X0309895Y0096400D01*
X0307200Y0093705D01*
X0307200Y0091900D01*
X0311700Y0091900D01*
X0311700Y0091700D01*
X0307200Y0091700D01*
X0307200Y0089895D01*
X0309895Y0087200D01*
X0311700Y0087200D01*
X0311700Y0091700D01*
X0311900Y0091700D01*
X0311900Y0091900D01*
X0316400Y0091900D01*
X0316400Y0093705D01*
X0313705Y0096400D01*
X0315183Y0094923D02*
X0316961Y0094923D01*
X0316961Y0096521D02*
X0289600Y0096521D01*
X0289600Y0094923D02*
X0298417Y0094923D01*
X0297200Y0093705D02*
X0297200Y0091900D01*
X0301700Y0091900D01*
X0301700Y0096400D01*
X0299895Y0096400D01*
X0297200Y0093705D01*
X0297200Y0093324D02*
X0289600Y0093324D01*
X0289600Y0091726D02*
X0301700Y0091726D01*
X0301700Y0091700D02*
X0297200Y0091700D01*
X0297200Y0089895D01*
X0299895Y0087200D01*
X0301700Y0087200D01*
X0301700Y0091700D01*
X0301700Y0091900D01*
X0301900Y0091900D01*
X0301900Y0096400D01*
X0303705Y0096400D01*
X0306400Y0093705D01*
X0306400Y0091900D01*
X0301900Y0091900D01*
X0301900Y0091700D01*
X0306400Y0091700D01*
X0306400Y0089895D01*
X0303705Y0087200D01*
X0301900Y0087200D01*
X0301900Y0091700D01*
X0301700Y0091700D01*
X0301900Y0091726D02*
X0311700Y0091726D01*
X0311900Y0091726D02*
X0316961Y0091726D01*
X0316400Y0091700D02*
X0311900Y0091700D01*
X0311900Y0087200D01*
X0313705Y0087200D01*
X0316400Y0089895D01*
X0316400Y0091700D01*
X0316400Y0090127D02*
X0316961Y0090127D01*
X0316961Y0088529D02*
X0315034Y0088529D01*
X0316961Y0086930D02*
X0289600Y0086930D01*
X0289600Y0088529D02*
X0298566Y0088529D01*
X0297200Y0090127D02*
X0289600Y0090127D01*
X0284000Y0090127D02*
X0276913Y0090127D01*
X0276700Y0091726D02*
X0284000Y0091726D01*
X0284000Y0093324D02*
X0276700Y0093324D01*
X0276700Y0094923D02*
X0284000Y0094923D01*
X0284000Y0096521D02*
X0276700Y0096521D01*
X0276351Y0098120D02*
X0284000Y0098120D01*
X0284000Y0099718D02*
X0274776Y0099718D01*
X0273177Y0101317D02*
X0284000Y0101317D01*
X0284000Y0102915D02*
X0216534Y0102915D01*
X0216600Y0102755D02*
X0215869Y0104519D01*
X0214519Y0105869D01*
X0212755Y0106600D01*
X0210845Y0106600D01*
X0209081Y0105869D01*
X0207731Y0104519D01*
X0207000Y0102755D01*
X0207000Y0100845D01*
X0207731Y0099081D01*
X0209081Y0097731D01*
X0210845Y0097000D01*
X0212755Y0097000D01*
X0214519Y0097731D01*
X0215869Y0099081D01*
X0216600Y0100845D01*
X0216600Y0102755D01*
X0216600Y0101317D02*
X0242923Y0101317D01*
X0241324Y0099718D02*
X0216133Y0099718D01*
X0214908Y0098120D02*
X0239726Y0098120D01*
X0238127Y0096521D02*
X0212945Y0096521D01*
X0210655Y0096521D02*
X0197100Y0096521D01*
X0197100Y0094923D02*
X0208134Y0094923D01*
X0207236Y0093324D02*
X0197100Y0093324D01*
X0197100Y0091726D02*
X0207000Y0091726D01*
X0207297Y0090127D02*
X0197100Y0090127D01*
X0197100Y0088529D02*
X0208283Y0088529D01*
X0215317Y0088529D02*
X0231112Y0088529D01*
X0232600Y0086930D02*
X0197100Y0086930D01*
X0197100Y0085332D02*
X0232600Y0085332D01*
X0233927Y0083733D02*
X0197100Y0083733D01*
X0197100Y0082134D02*
X0241500Y0082134D01*
X0241500Y0080536D02*
X0197100Y0080536D01*
X0197100Y0078937D02*
X0241500Y0078937D01*
X0241500Y0077339D02*
X0197100Y0077339D01*
X0197100Y0075740D02*
X0205338Y0075740D01*
X0205965Y0076000D02*
X0204421Y0075361D01*
X0203239Y0074179D01*
X0202600Y0072635D01*
X0202600Y0070965D01*
X0203239Y0069421D01*
X0204421Y0068239D01*
X0205965Y0067600D01*
X0212835Y0067600D01*
X0214379Y0068239D01*
X0215561Y0069421D01*
X0216200Y0070965D01*
X0216200Y0072635D01*
X0215561Y0074179D01*
X0214379Y0075361D01*
X0212835Y0076000D01*
X0205965Y0076000D01*
X0203224Y0074142D02*
X0197100Y0074142D01*
X0197100Y0072543D02*
X0202600Y0072543D01*
X0202608Y0070945D02*
X0197100Y0070945D01*
X0197100Y0069346D02*
X0203314Y0069346D01*
X0205607Y0067748D02*
X0197100Y0067748D01*
X0197100Y0066149D02*
X0239690Y0066149D01*
X0241288Y0067748D02*
X0213192Y0067748D01*
X0215486Y0069346D02*
X0241500Y0069346D01*
X0241500Y0070945D02*
X0216192Y0070945D01*
X0216200Y0072543D02*
X0241500Y0072543D01*
X0241500Y0074142D02*
X0215576Y0074142D01*
X0213462Y0075740D02*
X0241500Y0075740D01*
X0247100Y0075740D02*
X0256500Y0075740D01*
X0256500Y0074142D02*
X0247100Y0074142D01*
X0247100Y0072543D02*
X0256500Y0072543D01*
X0256623Y0070945D02*
X0247100Y0070945D01*
X0247100Y0069346D02*
X0257794Y0069346D01*
X0259392Y0067748D02*
X0247100Y0067748D01*
X0247061Y0066149D02*
X0316961Y0066149D01*
X0316961Y0064551D02*
X0246011Y0064551D01*
X0244412Y0062952D02*
X0316961Y0062952D01*
X0316961Y0061354D02*
X0242814Y0061354D01*
X0241215Y0059755D02*
X0316961Y0059755D01*
X0316961Y0058157D02*
X0239617Y0058157D01*
X0237498Y0056558D02*
X0316961Y0056558D01*
X0316961Y0054960D02*
X0214780Y0054960D01*
X0208602Y0056558D02*
X0201001Y0056558D01*
X0199403Y0058157D02*
X0204620Y0058157D01*
X0203101Y0059755D02*
X0197804Y0059755D01*
X0197100Y0061354D02*
X0202600Y0061354D01*
X0202731Y0062952D02*
X0197100Y0062952D01*
X0197100Y0064551D02*
X0203611Y0064551D01*
X0215189Y0064551D02*
X0238091Y0064551D01*
X0236493Y0062952D02*
X0216069Y0062952D01*
X0204020Y0054960D02*
X0202600Y0054960D01*
X0196279Y0053361D02*
X0180699Y0053361D01*
X0181000Y0052635D02*
X0180361Y0054179D01*
X0179179Y0055361D01*
X0177635Y0056000D01*
X0170765Y0056000D01*
X0169221Y0055361D01*
X0168039Y0054179D01*
X0167400Y0052635D01*
X0167400Y0050965D01*
X0168039Y0049421D01*
X0169221Y0048239D01*
X0170765Y0047600D01*
X0177635Y0047600D01*
X0179179Y0048239D01*
X0180361Y0049421D01*
X0181000Y0050965D01*
X0181000Y0052635D01*
X0181000Y0051763D02*
X0197877Y0051763D01*
X0199476Y0050164D02*
X0180668Y0050164D01*
X0179505Y0048566D02*
X0204095Y0048566D01*
X0205111Y0045878D02*
X0204494Y0045563D01*
X0203934Y0045156D01*
X0203444Y0044666D01*
X0203037Y0044106D01*
X0202722Y0043489D01*
X0202508Y0042830D01*
X0202400Y0042146D01*
X0202400Y0041800D01*
X0206800Y0041800D01*
X0206800Y0041800D01*
X0206800Y0046200D01*
X0212346Y0046200D01*
X0213030Y0046092D01*
X0213689Y0045878D01*
X0214306Y0045563D01*
X0214866Y0045156D01*
X0215356Y0044666D01*
X0215763Y0044106D01*
X0216078Y0043489D01*
X0216292Y0042830D01*
X0216400Y0042146D01*
X0216400Y0041800D01*
X0206800Y0041800D01*
X0206800Y0041800D01*
X0206800Y0037400D01*
X0212346Y0037400D01*
X0213030Y0037508D01*
X0213689Y0037722D01*
X0214306Y0038037D01*
X0214866Y0038444D01*
X0215356Y0038934D01*
X0215763Y0039494D01*
X0216078Y0040111D01*
X0216292Y0040770D01*
X0216400Y0041454D01*
X0216400Y0041800D01*
X0206800Y0041800D01*
X0206800Y0041800D01*
X0206800Y0041800D01*
X0206800Y0046200D01*
X0206454Y0046200D01*
X0205770Y0046092D01*
X0205111Y0045878D01*
X0204226Y0045369D02*
X0179159Y0045369D01*
X0179179Y0045361D02*
X0177635Y0046000D01*
X0170765Y0046000D01*
X0169221Y0045361D01*
X0168039Y0044179D01*
X0167400Y0042635D01*
X0167400Y0040965D01*
X0168039Y0039421D01*
X0169221Y0038239D01*
X0170765Y0037600D01*
X0177635Y0037600D01*
X0179179Y0038239D01*
X0180361Y0039421D01*
X0181000Y0040965D01*
X0181000Y0042635D01*
X0180361Y0044179D01*
X0179179Y0045361D01*
X0180530Y0043770D02*
X0202866Y0043770D01*
X0202404Y0042172D02*
X0181000Y0042172D01*
X0180838Y0040573D02*
X0202572Y0040573D01*
X0202508Y0040770D02*
X0202722Y0040111D01*
X0203037Y0039494D01*
X0203444Y0038934D01*
X0203934Y0038444D01*
X0204494Y0038037D01*
X0205111Y0037722D01*
X0205770Y0037508D01*
X0206454Y0037400D01*
X0206800Y0037400D01*
X0206800Y0041800D01*
X0202400Y0041800D01*
X0202400Y0041454D01*
X0202508Y0040770D01*
X0203414Y0038975D02*
X0179914Y0038975D01*
X0168486Y0038975D02*
X0097100Y0038975D01*
X0097100Y0040573D02*
X0167562Y0040573D01*
X0167400Y0042172D02*
X0097100Y0042172D01*
X0097100Y0043770D02*
X0167870Y0043770D01*
X0169241Y0045369D02*
X0097100Y0045369D01*
X0097100Y0046967D02*
X0256500Y0046967D01*
X0256500Y0045369D02*
X0214574Y0045369D01*
X0215934Y0043770D02*
X0256500Y0043770D01*
X0256500Y0042172D02*
X0216396Y0042172D01*
X0216228Y0040573D02*
X0241851Y0040573D01*
X0242477Y0041200D02*
X0239900Y0038623D01*
X0239900Y0036800D01*
X0244300Y0036800D01*
X0244300Y0036800D01*
X0244300Y0041200D01*
X0246123Y0041200D01*
X0248700Y0038623D01*
X0248700Y0036800D01*
X0244300Y0036800D01*
X0244300Y0036800D01*
X0244300Y0036800D01*
X0244300Y0041200D01*
X0242477Y0041200D01*
X0244300Y0040573D02*
X0244300Y0040573D01*
X0244300Y0038975D02*
X0244300Y0038975D01*
X0244300Y0037376D02*
X0244300Y0037376D01*
X0244300Y0036800D02*
X0239900Y0036800D01*
X0239900Y0034977D01*
X0242477Y0032400D01*
X0244300Y0032400D01*
X0246123Y0032400D01*
X0248700Y0034977D01*
X0248700Y0036800D01*
X0244300Y0036800D01*
X0244300Y0032400D01*
X0244300Y0036800D01*
X0244300Y0036800D01*
X0244300Y0035778D02*
X0244300Y0035778D01*
X0244300Y0034179D02*
X0244300Y0034179D01*
X0244300Y0032581D02*
X0244300Y0032581D01*
X0246303Y0032581D02*
X0271500Y0032581D01*
X0271500Y0030982D02*
X0158558Y0030982D01*
X0160156Y0029384D02*
X0271500Y0029384D01*
X0271500Y0027785D02*
X0239355Y0027785D01*
X0240606Y0026187D02*
X0271500Y0026187D01*
X0277100Y0026187D02*
X0296516Y0026187D01*
X0296056Y0024588D02*
X0277100Y0024588D01*
X0277100Y0022990D02*
X0295701Y0022990D01*
X0295701Y0021391D02*
X0277100Y0021391D01*
X0276252Y0019793D02*
X0295847Y0019793D01*
X0296275Y0018194D02*
X0240929Y0018194D01*
X0232671Y0018194D02*
X0230929Y0018194D01*
X0231000Y0019793D02*
X0232600Y0019793D01*
X0232600Y0021391D02*
X0231000Y0021391D01*
X0231000Y0022990D02*
X0232600Y0022990D01*
X0232600Y0024588D02*
X0231000Y0024588D01*
X0230606Y0026187D02*
X0232994Y0026187D01*
X0234245Y0027785D02*
X0229355Y0027785D01*
X0224245Y0027785D02*
X0219627Y0027785D01*
X0220828Y0026187D02*
X0222994Y0026187D01*
X0222600Y0024588D02*
X0221200Y0024588D01*
X0221200Y0022990D02*
X0222600Y0022990D01*
X0222600Y0021391D02*
X0221200Y0021391D01*
X0221200Y0019793D02*
X0222600Y0019793D01*
X0222671Y0018194D02*
X0221095Y0018194D01*
X0216800Y0022990D02*
X0216800Y0022990D01*
X0216800Y0024588D02*
X0216800Y0024588D01*
X0216800Y0026187D02*
X0216800Y0026187D01*
X0216800Y0027785D02*
X0216800Y0027785D01*
X0213973Y0027785D02*
X0209355Y0027785D01*
X0210606Y0026187D02*
X0212772Y0026187D01*
X0212400Y0024588D02*
X0211000Y0024588D01*
X0211000Y0022990D02*
X0212400Y0022990D01*
X0212400Y0021391D02*
X0211000Y0021391D01*
X0211000Y0019793D02*
X0212400Y0019793D01*
X0212504Y0018194D02*
X0210929Y0018194D01*
X0202671Y0018194D02*
X0200929Y0018194D01*
X0201000Y0019793D02*
X0202600Y0019793D01*
X0202600Y0021391D02*
X0201000Y0021391D01*
X0201000Y0022990D02*
X0202600Y0022990D01*
X0202600Y0024588D02*
X0201000Y0024588D01*
X0200606Y0026187D02*
X0202994Y0026187D01*
X0204245Y0027785D02*
X0199355Y0027785D01*
X0194245Y0027785D02*
X0189355Y0027785D01*
X0190606Y0026187D02*
X0192994Y0026187D01*
X0192600Y0024588D02*
X0191000Y0024588D01*
X0191000Y0022990D02*
X0192600Y0022990D01*
X0192600Y0021391D02*
X0191000Y0021391D01*
X0191000Y0019793D02*
X0192600Y0019793D01*
X0192671Y0018194D02*
X0190929Y0018194D01*
X0182671Y0018194D02*
X0145929Y0018194D01*
X0146000Y0019793D02*
X0159848Y0019793D01*
X0158249Y0021391D02*
X0146000Y0021391D01*
X0146000Y0022990D02*
X0154671Y0022990D01*
X0153072Y0024588D02*
X0146000Y0024588D01*
X0145606Y0026187D02*
X0152600Y0026187D01*
X0152600Y0027785D02*
X0144355Y0027785D01*
X0139245Y0027785D02*
X0134627Y0027785D01*
X0135828Y0026187D02*
X0137994Y0026187D01*
X0137600Y0024588D02*
X0136200Y0024588D01*
X0136200Y0022990D02*
X0137600Y0022990D01*
X0137600Y0021391D02*
X0136200Y0021391D01*
X0136200Y0019793D02*
X0137600Y0019793D01*
X0137671Y0018194D02*
X0136095Y0018194D01*
X0131800Y0022990D02*
X0131800Y0022990D01*
X0131800Y0024588D02*
X0131800Y0024588D01*
X0131800Y0026187D02*
X0131800Y0026187D01*
X0131800Y0027785D02*
X0131800Y0027785D01*
X0128973Y0027785D02*
X0124355Y0027785D01*
X0125606Y0026187D02*
X0127772Y0026187D01*
X0127400Y0024588D02*
X0126000Y0024588D01*
X0126000Y0022990D02*
X0127400Y0022990D01*
X0127400Y0021391D02*
X0126000Y0021391D01*
X0126000Y0019793D02*
X0127400Y0019793D01*
X0127504Y0018194D02*
X0125929Y0018194D01*
X0117671Y0018194D02*
X0115929Y0018194D01*
X0116000Y0019793D02*
X0117600Y0019793D01*
X0117600Y0021391D02*
X0116000Y0021391D01*
X0116000Y0022990D02*
X0117600Y0022990D01*
X0117600Y0024588D02*
X0116000Y0024588D01*
X0115606Y0026187D02*
X0117994Y0026187D01*
X0119245Y0027785D02*
X0114600Y0027785D01*
X0114600Y0029384D02*
X0153444Y0029384D01*
X0155042Y0030982D02*
X0114078Y0030982D01*
X0112479Y0032581D02*
X0242297Y0032581D01*
X0240698Y0034179D02*
X0110873Y0034179D01*
X0109000Y0027785D02*
X0104627Y0027785D01*
X0105828Y0026187D02*
X0107994Y0026187D01*
X0107600Y0024588D02*
X0106200Y0024588D01*
X0106200Y0022990D02*
X0107600Y0022990D01*
X0107600Y0021391D02*
X0106200Y0021391D01*
X0106200Y0019793D02*
X0107600Y0019793D01*
X0107671Y0018194D02*
X0106095Y0018194D01*
X0101800Y0022990D02*
X0101800Y0022990D01*
X0101800Y0024588D02*
X0101800Y0024588D01*
X0101800Y0026187D02*
X0101800Y0026187D01*
X0101800Y0027785D02*
X0101800Y0027785D01*
X0096121Y0032581D02*
X0094040Y0032581D01*
X0095639Y0034179D02*
X0097727Y0034179D01*
X0096907Y0035778D02*
X0239900Y0035778D01*
X0239900Y0037376D02*
X0097100Y0037376D01*
X0097526Y0048566D02*
X0168895Y0048566D01*
X0167731Y0050164D02*
X0099124Y0050164D01*
X0100723Y0051763D02*
X0167400Y0051763D01*
X0167701Y0053361D02*
X0102321Y0053361D01*
X0103920Y0054960D02*
X0168820Y0054960D01*
X0169420Y0058157D02*
X0104600Y0058157D01*
X0104600Y0059755D02*
X0159885Y0059755D01*
X0160214Y0059426D02*
X0161243Y0059000D01*
X0168460Y0059000D01*
X0169221Y0058239D01*
X0170765Y0057600D01*
X0177635Y0057600D01*
X0179179Y0058239D01*
X0180361Y0059421D01*
X0181000Y0060965D01*
X0181000Y0062635D01*
X0180361Y0064179D01*
X0179179Y0065361D01*
X0177635Y0066000D01*
X0170765Y0066000D01*
X0169221Y0065361D01*
X0168460Y0064600D01*
X0162960Y0064600D01*
X0159600Y0067960D01*
X0159600Y0073660D01*
X0161000Y0075060D01*
X0161000Y0078540D01*
X0158540Y0081000D01*
X0155060Y0081000D01*
X0152600Y0078540D01*
X0152600Y0075060D01*
X0154000Y0073660D01*
X0154000Y0066243D01*
X0154426Y0065214D01*
X0155214Y0064426D01*
X0160214Y0059426D01*
X0158286Y0061354D02*
X0135688Y0061354D01*
X0135539Y0061205D02*
X0137395Y0063061D01*
X0138400Y0065487D01*
X0138400Y0068113D01*
X0137395Y0070539D01*
X0135539Y0072395D01*
X0133113Y0073400D01*
X0130487Y0073400D01*
X0128061Y0072395D01*
X0126205Y0070539D01*
X0125200Y0068113D01*
X0125200Y0065487D01*
X0126205Y0063061D01*
X0128061Y0061205D01*
X0130487Y0060200D01*
X0133113Y0060200D01*
X0135539Y0061205D01*
X0137286Y0062952D02*
X0156688Y0062952D01*
X0155089Y0064551D02*
X0138012Y0064551D01*
X0138400Y0066149D02*
X0154039Y0066149D01*
X0154000Y0067748D02*
X0138400Y0067748D01*
X0137889Y0069346D02*
X0154000Y0069346D01*
X0154000Y0070945D02*
X0136989Y0070945D01*
X0135181Y0072543D02*
X0154000Y0072543D01*
X0153518Y0074142D02*
X0104600Y0074142D01*
X0104600Y0075740D02*
X0152600Y0075740D01*
X0152600Y0077339D02*
X0104600Y0077339D01*
X0104600Y0078937D02*
X0152998Y0078937D01*
X0154596Y0080536D02*
X0104600Y0080536D01*
X0104600Y0082134D02*
X0191500Y0082134D01*
X0191500Y0080536D02*
X0159004Y0080536D01*
X0160602Y0078937D02*
X0191500Y0078937D01*
X0191500Y0077339D02*
X0161000Y0077339D01*
X0161000Y0075740D02*
X0170138Y0075740D01*
X0170765Y0076000D02*
X0169221Y0075361D01*
X0168039Y0074179D01*
X0167400Y0072635D01*
X0167400Y0070965D01*
X0168039Y0069421D01*
X0169221Y0068239D01*
X0170765Y0067600D01*
X0177635Y0067600D01*
X0179179Y0068239D01*
X0180361Y0069421D01*
X0181000Y0070965D01*
X0181000Y0072635D01*
X0180361Y0074179D01*
X0179179Y0075361D01*
X0177635Y0076000D01*
X0170765Y0076000D01*
X0168024Y0074142D02*
X0160082Y0074142D01*
X0159600Y0072543D02*
X0167400Y0072543D01*
X0167408Y0070945D02*
X0159600Y0070945D01*
X0159600Y0069346D02*
X0168114Y0069346D01*
X0170407Y0067748D02*
X0159812Y0067748D01*
X0161410Y0066149D02*
X0191500Y0066149D01*
X0191500Y0064551D02*
X0179989Y0064551D01*
X0180869Y0062952D02*
X0191500Y0062952D01*
X0191500Y0061354D02*
X0181000Y0061354D01*
X0180499Y0059755D02*
X0191500Y0059755D01*
X0191743Y0058157D02*
X0178980Y0058157D01*
X0179580Y0054960D02*
X0194680Y0054960D01*
X0193082Y0056558D02*
X0104600Y0056558D01*
X0108983Y0060000D02*
X0111600Y0060000D01*
X0111600Y0066600D01*
X0112000Y0066600D01*
X0112000Y0067000D01*
X0118600Y0067000D01*
X0118600Y0069617D01*
X0114617Y0073600D01*
X0112000Y0073600D01*
X0112000Y0067000D01*
X0111600Y0067000D01*
X0111600Y0073600D01*
X0108983Y0073600D01*
X0105000Y0069617D01*
X0105000Y0067000D01*
X0111600Y0067000D01*
X0111600Y0066600D01*
X0105000Y0066600D01*
X0105000Y0063983D01*
X0108983Y0060000D01*
X0107629Y0061354D02*
X0104600Y0061354D01*
X0104600Y0062952D02*
X0106031Y0062952D01*
X0105000Y0064551D02*
X0104600Y0064551D01*
X0104600Y0066149D02*
X0105000Y0066149D01*
X0105000Y0067748D02*
X0104600Y0067748D01*
X0104600Y0069346D02*
X0105000Y0069346D01*
X0104600Y0070945D02*
X0106328Y0070945D01*
X0107927Y0072543D02*
X0104600Y0072543D01*
X0111600Y0072543D02*
X0112000Y0072543D01*
X0112000Y0070945D02*
X0111600Y0070945D01*
X0111600Y0069346D02*
X0112000Y0069346D01*
X0112000Y0067748D02*
X0111600Y0067748D01*
X0112000Y0066600D02*
X0118600Y0066600D01*
X0118600Y0063983D01*
X0114617Y0060000D01*
X0112000Y0060000D01*
X0112000Y0066600D01*
X0112000Y0066149D02*
X0111600Y0066149D01*
X0111600Y0064551D02*
X0112000Y0064551D01*
X0112000Y0062952D02*
X0111600Y0062952D01*
X0111600Y0061354D02*
X0112000Y0061354D01*
X0115970Y0061354D02*
X0127912Y0061354D01*
X0126314Y0062952D02*
X0117569Y0062952D01*
X0118600Y0064551D02*
X0125588Y0064551D01*
X0125200Y0066149D02*
X0118600Y0066149D01*
X0118600Y0067748D02*
X0125200Y0067748D01*
X0125711Y0069346D02*
X0118600Y0069346D01*
X0117272Y0070945D02*
X0126611Y0070945D01*
X0128419Y0072543D02*
X0115673Y0072543D01*
X0104600Y0083733D02*
X0191500Y0083733D01*
X0191500Y0085332D02*
X0104600Y0085332D01*
X0104600Y0086930D02*
X0180608Y0086930D01*
X0180629Y0086923D02*
X0179881Y0087166D01*
X0179179Y0087524D01*
X0178543Y0087986D01*
X0177986Y0088543D01*
X0177524Y0089179D01*
X0177166Y0089881D01*
X0176923Y0090629D01*
X0176800Y0091406D01*
X0176800Y0091800D01*
X0181800Y0091800D01*
X0186800Y0091800D01*
X0186800Y0092194D01*
X0186677Y0092971D01*
X0186434Y0093719D01*
X0186076Y0094421D01*
X0185614Y0095057D01*
X0185057Y0095614D01*
X0184421Y0096076D01*
X0183719Y0096434D01*
X0182971Y0096677D01*
X0182194Y0096800D01*
X0181800Y0096800D01*
X0181800Y0091800D01*
X0181800Y0091800D01*
X0181800Y0091800D01*
X0186800Y0091800D01*
X0186800Y0091406D01*
X0186677Y0090629D01*
X0186434Y0089881D01*
X0186076Y0089179D01*
X0185614Y0088543D01*
X0185057Y0087986D01*
X0184421Y0087524D01*
X0183719Y0087166D01*
X0182971Y0086923D01*
X0182194Y0086800D01*
X0181800Y0086800D01*
X0181800Y0091800D01*
X0181800Y0091800D01*
X0181800Y0091800D01*
X0181800Y0096800D01*
X0181406Y0096800D01*
X0180629Y0096677D01*
X0179881Y0096434D01*
X0179179Y0096076D01*
X0178543Y0095614D01*
X0177986Y0095057D01*
X0177524Y0094421D01*
X0177166Y0093719D01*
X0176923Y0092971D01*
X0176800Y0092194D01*
X0176800Y0091800D01*
X0181800Y0091800D01*
X0181800Y0086800D01*
X0181406Y0086800D01*
X0180629Y0086923D01*
X0181800Y0086930D02*
X0181800Y0086930D01*
X0182992Y0086930D02*
X0191500Y0086930D01*
X0191500Y0088529D02*
X0185600Y0088529D01*
X0186514Y0090127D02*
X0191500Y0090127D01*
X0191500Y0091726D02*
X0186800Y0091726D01*
X0186562Y0093324D02*
X0191500Y0093324D01*
X0191500Y0094923D02*
X0185712Y0094923D01*
X0183450Y0096521D02*
X0191500Y0096521D01*
X0191500Y0098120D02*
X0184908Y0098120D01*
X0184519Y0097731D02*
X0185869Y0099081D01*
X0186600Y0100845D01*
X0186600Y0102755D01*
X0185869Y0104519D01*
X0184519Y0105869D01*
X0182755Y0106600D01*
X0180845Y0106600D01*
X0179081Y0105869D01*
X0177731Y0104519D01*
X0177000Y0102755D01*
X0177000Y0100845D01*
X0177731Y0099081D01*
X0179081Y0097731D01*
X0180845Y0097000D01*
X0182755Y0097000D01*
X0184519Y0097731D01*
X0186133Y0099718D02*
X0191500Y0099718D01*
X0191500Y0101317D02*
X0186600Y0101317D01*
X0186534Y0102915D02*
X0191500Y0102915D01*
X0191500Y0104514D02*
X0185871Y0104514D01*
X0183932Y0106112D02*
X0191500Y0106112D01*
X0191500Y0107711D02*
X0184470Y0107711D01*
X0184519Y0107731D02*
X0185869Y0109081D01*
X0186600Y0110845D01*
X0186600Y0112755D01*
X0185869Y0114519D01*
X0184519Y0115869D01*
X0182755Y0116600D01*
X0180845Y0116600D01*
X0179081Y0115869D01*
X0177731Y0114519D01*
X0177000Y0112755D01*
X0177000Y0110845D01*
X0177731Y0109081D01*
X0179081Y0107731D01*
X0180845Y0107000D01*
X0182755Y0107000D01*
X0184519Y0107731D01*
X0185964Y0109309D02*
X0191500Y0109309D01*
X0191500Y0110908D02*
X0186600Y0110908D01*
X0186600Y0112506D02*
X0191500Y0112506D01*
X0191500Y0114105D02*
X0186041Y0114105D01*
X0184685Y0115703D02*
X0191500Y0115703D01*
X0191500Y0117302D02*
X0183483Y0117302D01*
X0182755Y0117000D02*
X0184519Y0117731D01*
X0185869Y0119081D01*
X0186600Y0120845D01*
X0186600Y0122755D01*
X0185869Y0124519D01*
X0184519Y0125869D01*
X0182755Y0126600D01*
X0180845Y0126600D01*
X0179081Y0125869D01*
X0177731Y0124519D01*
X0177000Y0122755D01*
X0177000Y0120845D01*
X0177731Y0119081D01*
X0179081Y0117731D01*
X0180845Y0117000D01*
X0182755Y0117000D01*
X0180117Y0117302D02*
X0172100Y0117302D01*
X0172100Y0118900D02*
X0177912Y0118900D01*
X0177143Y0120499D02*
X0172100Y0120499D01*
X0172100Y0122097D02*
X0177000Y0122097D01*
X0177390Y0123696D02*
X0172100Y0123696D01*
X0172100Y0125294D02*
X0178506Y0125294D01*
X0179081Y0127731D02*
X0180845Y0127000D01*
X0182755Y0127000D01*
X0184519Y0127731D01*
X0185869Y0129081D01*
X0186600Y0130845D01*
X0186600Y0132755D01*
X0185869Y0134519D01*
X0184519Y0135869D01*
X0182755Y0136600D01*
X0180845Y0136600D01*
X0179081Y0135869D01*
X0177731Y0134519D01*
X0177000Y0132755D01*
X0177000Y0130845D01*
X0177731Y0129081D01*
X0179081Y0127731D01*
X0178320Y0128491D02*
X0172100Y0128491D01*
X0172100Y0126893D02*
X0191500Y0126893D01*
X0191500Y0128491D02*
X0185280Y0128491D01*
X0186287Y0130090D02*
X0191500Y0130090D01*
X0191500Y0131688D02*
X0186600Y0131688D01*
X0186380Y0133287D02*
X0191500Y0133287D01*
X0191500Y0134885D02*
X0185503Y0134885D01*
X0183035Y0136484D02*
X0191500Y0136484D01*
X0191500Y0138082D02*
X0184871Y0138082D01*
X0186118Y0139681D02*
X0191500Y0139681D01*
X0191500Y0141279D02*
X0186600Y0141279D01*
X0186549Y0142878D02*
X0191500Y0142878D01*
X0191500Y0144476D02*
X0185887Y0144476D01*
X0184022Y0146075D02*
X0191065Y0146075D01*
X0189467Y0147673D02*
X0184381Y0147673D01*
X0179578Y0146075D02*
X0131400Y0146075D01*
X0131400Y0147673D02*
X0179219Y0147673D01*
X0173445Y0144476D02*
X0130982Y0144476D01*
X0129383Y0142878D02*
X0171418Y0142878D01*
X0169820Y0141279D02*
X0128826Y0141279D01*
X0130424Y0139681D02*
X0168221Y0139681D01*
X0166800Y0138082D02*
X0131400Y0138082D01*
X0114491Y0141279D02*
X0044600Y0141279D01*
X0044600Y0139681D02*
X0112893Y0139681D01*
X0113934Y0142878D02*
X0044600Y0142878D01*
X0038985Y0146075D02*
X0034615Y0146075D01*
X0035714Y0147673D02*
X0037886Y0147673D01*
X0037600Y0149272D02*
X0036000Y0149272D01*
X0036000Y0150870D02*
X0037600Y0150870D01*
X0037600Y0152469D02*
X0036000Y0152469D01*
X0036000Y0154068D02*
X0037600Y0154068D01*
X0037778Y0155666D02*
X0035822Y0155666D01*
X0034875Y0157265D02*
X0038725Y0157265D01*
X0027310Y0160462D02*
X0051502Y0160462D01*
X0053100Y0162060D02*
X0026579Y0162060D01*
X0025638Y0163659D02*
X0054699Y0163659D01*
X0057823Y0158863D02*
X0111065Y0158863D01*
X0110522Y0157265D02*
X0095157Y0157265D01*
X0096015Y0155666D02*
X0110680Y0155666D01*
X0091800Y0155666D02*
X0091800Y0155666D01*
X0091800Y0154068D02*
X0091800Y0154068D01*
X0091800Y0152469D02*
X0091800Y0152469D01*
X0091800Y0151800D02*
X0091800Y0158800D01*
X0091454Y0158800D01*
X0090770Y0158692D01*
X0090111Y0158478D01*
X0089494Y0158163D01*
X0088934Y0157756D01*
X0088444Y0157266D01*
X0088037Y0156706D01*
X0087722Y0156089D01*
X0087508Y0155430D01*
X0087400Y0154746D01*
X0087400Y0151800D01*
X0091800Y0151800D01*
X0091800Y0151800D01*
X0091800Y0151800D01*
X0091800Y0144800D01*
X0091454Y0144800D01*
X0090770Y0144908D01*
X0090111Y0145122D01*
X0089494Y0145437D01*
X0088934Y0145844D01*
X0088444Y0146334D01*
X0088037Y0146894D01*
X0087722Y0147511D01*
X0087508Y0148170D01*
X0087400Y0148854D01*
X0087400Y0151800D01*
X0091800Y0151800D01*
X0091800Y0150870D02*
X0091800Y0150870D01*
X0091800Y0149272D02*
X0091800Y0149272D01*
X0091800Y0147673D02*
X0091800Y0147673D01*
X0091800Y0146075D02*
X0091800Y0146075D01*
X0088702Y0146075D02*
X0084615Y0146075D01*
X0084179Y0145639D02*
X0085361Y0146821D01*
X0086000Y0148365D01*
X0086000Y0155235D01*
X0085361Y0156779D01*
X0084179Y0157961D01*
X0082635Y0158600D01*
X0080965Y0158600D01*
X0079421Y0157961D01*
X0078239Y0156779D01*
X0077600Y0155235D01*
X0077600Y0148365D01*
X0078239Y0146821D01*
X0079421Y0145639D01*
X0080965Y0145000D01*
X0082635Y0145000D01*
X0084179Y0145639D01*
X0085714Y0147673D02*
X0087670Y0147673D01*
X0087400Y0149272D02*
X0086000Y0149272D01*
X0086000Y0150870D02*
X0087400Y0150870D01*
X0087400Y0152469D02*
X0086000Y0152469D01*
X0086000Y0154068D02*
X0087400Y0154068D01*
X0087585Y0155666D02*
X0085822Y0155666D01*
X0084875Y0157265D02*
X0088443Y0157265D01*
X0091800Y0157265D02*
X0091800Y0157265D01*
X0078725Y0157265D02*
X0074875Y0157265D01*
X0075361Y0156779D02*
X0074179Y0157961D01*
X0072635Y0158600D01*
X0070965Y0158600D01*
X0069421Y0157961D01*
X0068239Y0156779D01*
X0067600Y0155235D01*
X0067600Y0148365D01*
X0068239Y0146821D01*
X0069421Y0145639D01*
X0070965Y0145000D01*
X0072635Y0145000D01*
X0074179Y0145639D01*
X0075361Y0146821D01*
X0076000Y0148365D01*
X0076000Y0155235D01*
X0075361Y0156779D01*
X0075822Y0155666D02*
X0077778Y0155666D01*
X0077600Y0154068D02*
X0076000Y0154068D01*
X0076000Y0152469D02*
X0077600Y0152469D01*
X0077600Y0150870D02*
X0076000Y0150870D01*
X0076000Y0149272D02*
X0077600Y0149272D01*
X0077886Y0147673D02*
X0075714Y0147673D01*
X0074615Y0146075D02*
X0078985Y0146075D01*
X0068985Y0146075D02*
X0064615Y0146075D01*
X0064179Y0145639D02*
X0065361Y0146821D01*
X0066000Y0148365D01*
X0066000Y0155235D01*
X0065361Y0156779D01*
X0064179Y0157961D01*
X0062635Y0158600D01*
X0060965Y0158600D01*
X0059421Y0157961D01*
X0058239Y0156779D01*
X0057600Y0155235D01*
X0057600Y0148365D01*
X0058239Y0146821D01*
X0059421Y0145639D01*
X0060965Y0145000D01*
X0062635Y0145000D01*
X0064179Y0145639D01*
X0065714Y0147673D02*
X0067886Y0147673D01*
X0067600Y0149272D02*
X0066000Y0149272D01*
X0066000Y0150870D02*
X0067600Y0150870D01*
X0067600Y0152469D02*
X0066000Y0152469D01*
X0066000Y0154068D02*
X0067600Y0154068D01*
X0067778Y0155666D02*
X0065822Y0155666D01*
X0064875Y0157265D02*
X0068725Y0157265D01*
X0058725Y0157265D02*
X0056224Y0157265D01*
X0055822Y0155666D02*
X0057778Y0155666D01*
X0057600Y0154068D02*
X0056000Y0154068D01*
X0056000Y0152469D02*
X0057600Y0152469D01*
X0057600Y0150870D02*
X0056000Y0150870D01*
X0056000Y0149272D02*
X0057600Y0149272D01*
X0057886Y0147673D02*
X0055714Y0147673D01*
X0054615Y0146075D02*
X0058985Y0146075D01*
X0039000Y0138082D02*
X0036457Y0138082D01*
X0038056Y0136484D02*
X0039000Y0136484D01*
X0039000Y0134885D02*
X0038500Y0134885D01*
X0038500Y0133287D02*
X0039000Y0133287D01*
X0037729Y0131688D02*
X0037628Y0131688D01*
X0036130Y0130090D02*
X0034050Y0130090D01*
X0034532Y0128491D02*
X0032451Y0128491D01*
X0032933Y0126893D02*
X0030853Y0126893D01*
X0031335Y0125294D02*
X0029600Y0125294D01*
X0029600Y0123696D02*
X0029736Y0123696D01*
X0034600Y0115703D02*
X0083774Y0115703D01*
X0084770Y0116700D02*
X0081900Y0113830D01*
X0081900Y0109770D01*
X0084770Y0106900D01*
X0088830Y0106900D01*
X0091700Y0109770D01*
X0091700Y0113830D01*
X0088830Y0116700D01*
X0084770Y0116700D01*
X0082175Y0114105D02*
X0034600Y0114105D01*
X0034600Y0112506D02*
X0081900Y0112506D01*
X0081900Y0110908D02*
X0034600Y0110908D01*
X0034600Y0109309D02*
X0082361Y0109309D01*
X0083960Y0107711D02*
X0034600Y0107711D01*
X0034600Y0106112D02*
X0083900Y0106112D01*
X0084688Y0106900D02*
X0081700Y0103912D01*
X0081700Y0101800D01*
X0086800Y0101800D01*
X0091900Y0101800D01*
X0091900Y0103912D01*
X0088912Y0106900D01*
X0086800Y0106900D01*
X0086800Y0101800D01*
X0086800Y0101800D01*
X0086800Y0101800D01*
X0091900Y0101800D01*
X0091900Y0099688D01*
X0088912Y0096700D01*
X0086800Y0096700D01*
X0086800Y0101800D01*
X0086800Y0101800D01*
X0086800Y0101800D01*
X0086800Y0106900D01*
X0084688Y0106900D01*
X0086800Y0106112D02*
X0086800Y0106112D01*
X0086800Y0104514D02*
X0086800Y0104514D01*
X0086800Y0102915D02*
X0086800Y0102915D01*
X0086800Y0101800D02*
X0081700Y0101800D01*
X0081700Y0099688D01*
X0084688Y0096700D01*
X0086800Y0096700D01*
X0086800Y0101800D01*
X0086800Y0101317D02*
X0086800Y0101317D01*
X0086800Y0099718D02*
X0086800Y0099718D01*
X0086800Y0098120D02*
X0086800Y0098120D01*
X0088830Y0096700D02*
X0084770Y0096700D01*
X0081900Y0093830D01*
X0081900Y0089770D01*
X0084770Y0086900D01*
X0088830Y0086900D01*
X0091700Y0089770D01*
X0091700Y0093830D01*
X0088830Y0096700D01*
X0089009Y0096521D02*
X0094000Y0096521D01*
X0094000Y0094923D02*
X0090607Y0094923D01*
X0091700Y0093324D02*
X0094000Y0093324D01*
X0094000Y0091726D02*
X0091700Y0091726D01*
X0091700Y0090127D02*
X0094000Y0090127D01*
X0094000Y0088529D02*
X0090458Y0088529D01*
X0088860Y0086930D02*
X0094000Y0086930D01*
X0094000Y0085332D02*
X0090198Y0085332D01*
X0088830Y0086700D02*
X0091700Y0083830D01*
X0091700Y0079770D01*
X0088830Y0076900D01*
X0084770Y0076900D01*
X0082670Y0079000D01*
X0064343Y0079000D01*
X0063940Y0078597D01*
X0062551Y0078022D01*
X0061049Y0078022D01*
X0059660Y0078597D01*
X0058597Y0079660D01*
X0058022Y0081049D01*
X0058022Y0082551D01*
X0058597Y0083940D01*
X0059660Y0085003D01*
X0061049Y0085578D01*
X0062551Y0085578D01*
X0063940Y0085003D01*
X0064343Y0084600D01*
X0082670Y0084600D01*
X0084770Y0086700D01*
X0088830Y0086700D01*
X0084740Y0086930D02*
X0034600Y0086930D01*
X0034600Y0085332D02*
X0060454Y0085332D01*
X0058511Y0083733D02*
X0034600Y0083733D01*
X0034600Y0082134D02*
X0058022Y0082134D01*
X0058234Y0080536D02*
X0034600Y0080536D01*
X0034600Y0078937D02*
X0059320Y0078937D01*
X0064280Y0078937D02*
X0082733Y0078937D01*
X0084331Y0077339D02*
X0035221Y0077339D01*
X0036819Y0075740D02*
X0083811Y0075740D01*
X0084770Y0076700D02*
X0082670Y0074600D01*
X0049343Y0074600D01*
X0048940Y0075003D01*
X0047551Y0075578D01*
X0046049Y0075578D01*
X0044660Y0075003D01*
X0043597Y0073940D01*
X0043022Y0072551D01*
X0043022Y0071049D01*
X0043597Y0069660D01*
X0044660Y0068597D01*
X0046049Y0068022D01*
X0047551Y0068022D01*
X0048940Y0068597D01*
X0049343Y0069000D01*
X0082670Y0069000D01*
X0084770Y0066900D01*
X0088830Y0066900D01*
X0091700Y0069770D01*
X0091700Y0073830D01*
X0088830Y0076700D01*
X0084770Y0076700D01*
X0089269Y0077339D02*
X0094000Y0077339D01*
X0094000Y0078937D02*
X0090867Y0078937D01*
X0091700Y0080536D02*
X0094000Y0080536D01*
X0094000Y0082134D02*
X0091700Y0082134D01*
X0091700Y0083733D02*
X0094000Y0083733D01*
X0083402Y0085332D02*
X0063146Y0085332D01*
X0081900Y0090127D02*
X0034600Y0090127D01*
X0034600Y0088529D02*
X0083142Y0088529D01*
X0081900Y0091726D02*
X0034600Y0091726D01*
X0034600Y0093324D02*
X0081900Y0093324D01*
X0082993Y0094923D02*
X0034600Y0094923D01*
X0034600Y0096521D02*
X0084591Y0096521D01*
X0083268Y0098120D02*
X0034600Y0098120D01*
X0034600Y0099718D02*
X0081700Y0099718D01*
X0081700Y0101317D02*
X0034600Y0101317D01*
X0034600Y0102915D02*
X0081700Y0102915D01*
X0082301Y0104514D02*
X0034600Y0104514D01*
X0024000Y0104514D02*
X0021299Y0104514D01*
X0021900Y0102915D02*
X0024000Y0102915D01*
X0024000Y0101317D02*
X0021900Y0101317D01*
X0021900Y0099718D02*
X0024000Y0099718D01*
X0024000Y0098120D02*
X0020332Y0098120D01*
X0019009Y0096521D02*
X0024000Y0096521D01*
X0024000Y0094923D02*
X0020607Y0094923D01*
X0021700Y0093324D02*
X0024000Y0093324D01*
X0024000Y0091726D02*
X0021700Y0091726D01*
X0021700Y0090127D02*
X0024000Y0090127D01*
X0024000Y0088529D02*
X0020458Y0088529D01*
X0018860Y0086930D02*
X0024000Y0086930D01*
X0024000Y0085332D02*
X0020198Y0085332D01*
X0021700Y0083733D02*
X0024000Y0083733D01*
X0024000Y0082134D02*
X0021700Y0082134D01*
X0021700Y0080536D02*
X0024000Y0080536D01*
X0024000Y0078937D02*
X0020867Y0078937D01*
X0019269Y0077339D02*
X0024000Y0077339D01*
X0024208Y0075740D02*
X0019789Y0075740D01*
X0021388Y0074142D02*
X0025498Y0074142D01*
X0027097Y0072543D02*
X0021700Y0072543D01*
X0021700Y0070945D02*
X0028695Y0070945D01*
X0030294Y0069346D02*
X0021276Y0069346D01*
X0019678Y0067748D02*
X0030252Y0067748D01*
X0028477Y0066149D02*
X0019380Y0066149D01*
X0020979Y0064551D02*
X0028022Y0064551D01*
X0028269Y0062952D02*
X0021700Y0062952D01*
X0021700Y0061354D02*
X0029403Y0061354D01*
X0032385Y0059755D02*
X0021685Y0059755D01*
X0020086Y0058157D02*
X0033983Y0058157D01*
X0035582Y0056558D02*
X0018971Y0056558D01*
X0020570Y0054960D02*
X0037180Y0054960D01*
X0038779Y0053361D02*
X0021700Y0053361D01*
X0021700Y0051763D02*
X0040377Y0051763D01*
X0041976Y0050164D02*
X0021700Y0050164D01*
X0020495Y0048566D02*
X0043574Y0048566D01*
X0045173Y0046967D02*
X0018897Y0046967D01*
X0020161Y0045369D02*
X0046771Y0045369D01*
X0048370Y0043770D02*
X0021700Y0043770D01*
X0021700Y0042172D02*
X0049968Y0042172D01*
X0051567Y0040573D02*
X0021700Y0040573D01*
X0020904Y0038975D02*
X0053166Y0038975D01*
X0057961Y0034179D02*
X0011600Y0034179D01*
X0011600Y0032581D02*
X0014150Y0032581D01*
X0046410Y0066149D02*
X0084220Y0066149D01*
X0083922Y0067748D02*
X0044812Y0067748D01*
X0043911Y0069346D02*
X0043213Y0069346D01*
X0043065Y0070945D02*
X0041615Y0070945D01*
X0043022Y0072543D02*
X0040016Y0072543D01*
X0038418Y0074142D02*
X0043799Y0074142D01*
X0016800Y0098120D02*
X0016800Y0098120D01*
X0016800Y0099718D02*
X0016800Y0099718D01*
X0016800Y0101317D02*
X0016800Y0101317D01*
X0016800Y0102915D02*
X0016800Y0102915D01*
X0016800Y0104514D02*
X0016800Y0104514D01*
X0016800Y0106112D02*
X0016800Y0106112D01*
X0019700Y0106112D02*
X0024000Y0106112D01*
X0024000Y0107711D02*
X0019640Y0107711D01*
X0021239Y0109309D02*
X0024000Y0109309D01*
X0024000Y0110908D02*
X0021700Y0110908D01*
X0021700Y0112506D02*
X0024000Y0112506D01*
X0024000Y0114105D02*
X0021425Y0114105D01*
X0019826Y0115703D02*
X0024000Y0115703D01*
X0089826Y0115703D02*
X0112000Y0115703D01*
X0112707Y0114105D02*
X0091425Y0114105D01*
X0091700Y0112506D02*
X0114306Y0112506D01*
X0119294Y0112506D02*
X0124588Y0112506D01*
X0122990Y0114105D02*
X0120893Y0114105D01*
X0121600Y0115703D02*
X0122200Y0115703D01*
X0122200Y0117302D02*
X0121600Y0117302D01*
X0121488Y0118900D02*
X0122395Y0118900D01*
X0123993Y0120499D02*
X0119889Y0120499D01*
X0130201Y0123696D02*
X0159000Y0123696D01*
X0159000Y0125294D02*
X0131400Y0125294D01*
X0131400Y0126893D02*
X0159000Y0126893D01*
X0159000Y0128491D02*
X0131400Y0128491D01*
X0104448Y0110908D02*
X0091700Y0110908D01*
X0091239Y0109309D02*
X0102849Y0109309D01*
X0101251Y0107711D02*
X0089640Y0107711D01*
X0089700Y0106112D02*
X0099652Y0106112D01*
X0098054Y0104514D02*
X0091299Y0104514D01*
X0091900Y0102915D02*
X0096455Y0102915D01*
X0094857Y0101317D02*
X0091900Y0101317D01*
X0091900Y0099718D02*
X0094000Y0099718D01*
X0094000Y0098120D02*
X0090332Y0098120D01*
X0104600Y0098120D02*
X0107400Y0098120D01*
X0107400Y0098623D02*
X0107400Y0096800D01*
X0111800Y0096800D01*
X0116200Y0096800D01*
X0116200Y0098623D01*
X0113623Y0101200D01*
X0111800Y0101200D01*
X0111800Y0096800D01*
X0111800Y0096800D01*
X0111800Y0096800D01*
X0116200Y0096800D01*
X0116200Y0094977D01*
X0113623Y0092400D01*
X0111800Y0092400D01*
X0111800Y0096800D01*
X0111800Y0096800D01*
X0111800Y0096800D01*
X0111800Y0101200D01*
X0109977Y0101200D01*
X0107400Y0098623D01*
X0108496Y0099718D02*
X0106178Y0099718D01*
X0107776Y0101317D02*
X0177000Y0101317D01*
X0177066Y0102915D02*
X0169375Y0102915D01*
X0170973Y0104514D02*
X0177729Y0104514D01*
X0179668Y0106112D02*
X0172046Y0106112D01*
X0172100Y0107711D02*
X0179129Y0107711D01*
X0177636Y0109309D02*
X0172100Y0109309D01*
X0172100Y0110908D02*
X0177000Y0110908D01*
X0177000Y0112506D02*
X0172100Y0112506D01*
X0172100Y0114105D02*
X0177559Y0114105D01*
X0178915Y0115703D02*
X0172100Y0115703D01*
X0166251Y0107711D02*
X0161670Y0107711D01*
X0177467Y0099718D02*
X0134822Y0099718D01*
X0136000Y0098540D02*
X0133540Y0101000D01*
X0130060Y0101000D01*
X0127600Y0098540D01*
X0127600Y0095060D01*
X0130060Y0092600D01*
X0133540Y0092600D01*
X0136000Y0095060D01*
X0136000Y0098540D01*
X0136000Y0098120D02*
X0178692Y0098120D01*
X0180150Y0096521D02*
X0136000Y0096521D01*
X0135862Y0094923D02*
X0177888Y0094923D01*
X0177038Y0093324D02*
X0134264Y0093324D01*
X0129336Y0093324D02*
X0114547Y0093324D01*
X0116145Y0094923D02*
X0127738Y0094923D01*
X0127600Y0096521D02*
X0116200Y0096521D01*
X0116200Y0098120D02*
X0127600Y0098120D01*
X0128778Y0099718D02*
X0115104Y0099718D01*
X0111800Y0099718D02*
X0111800Y0099718D01*
X0111800Y0098120D02*
X0111800Y0098120D01*
X0111800Y0096800D02*
X0107400Y0096800D01*
X0107400Y0094977D01*
X0109977Y0092400D01*
X0111800Y0092400D01*
X0111800Y0096800D01*
X0111800Y0096521D02*
X0111800Y0096521D01*
X0111800Y0094923D02*
X0111800Y0094923D01*
X0111800Y0093324D02*
X0111800Y0093324D01*
X0109053Y0093324D02*
X0104600Y0093324D01*
X0104600Y0091726D02*
X0176800Y0091726D01*
X0177086Y0090127D02*
X0104600Y0090127D01*
X0104600Y0088529D02*
X0178000Y0088529D01*
X0181800Y0088529D02*
X0181800Y0088529D01*
X0181800Y0090127D02*
X0181800Y0090127D01*
X0181800Y0091726D02*
X0181800Y0091726D01*
X0181800Y0093324D02*
X0181800Y0093324D01*
X0181800Y0094923D02*
X0181800Y0094923D01*
X0181800Y0096521D02*
X0181800Y0096521D01*
X0197100Y0098120D02*
X0208692Y0098120D01*
X0207467Y0099718D02*
X0197100Y0099718D01*
X0197100Y0101317D02*
X0207000Y0101317D01*
X0207066Y0102915D02*
X0197100Y0102915D01*
X0197100Y0104514D02*
X0207729Y0104514D01*
X0209668Y0106112D02*
X0197100Y0106112D01*
X0197100Y0107711D02*
X0209129Y0107711D01*
X0207636Y0109309D02*
X0197100Y0109309D01*
X0197100Y0110908D02*
X0207000Y0110908D01*
X0207000Y0112506D02*
X0197100Y0112506D01*
X0197100Y0114105D02*
X0207559Y0114105D01*
X0208915Y0115703D02*
X0197100Y0115703D01*
X0191500Y0118900D02*
X0185688Y0118900D01*
X0186456Y0120499D02*
X0191500Y0120499D01*
X0191500Y0122097D02*
X0186600Y0122097D01*
X0186210Y0123696D02*
X0191500Y0123696D01*
X0191500Y0125294D02*
X0185094Y0125294D01*
X0177313Y0130090D02*
X0172100Y0130090D01*
X0172100Y0131688D02*
X0177000Y0131688D01*
X0177220Y0133287D02*
X0172100Y0133287D01*
X0172100Y0134885D02*
X0178097Y0134885D01*
X0180565Y0136484D02*
X0172944Y0136484D01*
X0174542Y0138082D02*
X0178729Y0138082D01*
X0197100Y0136484D02*
X0210565Y0136484D01*
X0216600Y0141279D02*
X0254000Y0141279D01*
X0254000Y0142878D02*
X0216549Y0142878D01*
X0215887Y0144476D02*
X0252664Y0144476D01*
X0249085Y0146075D02*
X0214022Y0146075D01*
X0214381Y0147673D02*
X0247600Y0147673D01*
X0247600Y0149272D02*
X0215948Y0149272D01*
X0216600Y0150870D02*
X0247600Y0150870D01*
X0249029Y0152469D02*
X0216600Y0152469D01*
X0216056Y0154068D02*
X0253073Y0154068D01*
X0252040Y0155100D02*
X0264000Y0143140D01*
X0264000Y0139940D01*
X0262600Y0138540D01*
X0262600Y0135060D01*
X0265060Y0132600D01*
X0268540Y0132600D01*
X0271000Y0135060D01*
X0271000Y0138540D01*
X0269600Y0139940D01*
X0269600Y0144857D01*
X0269174Y0145886D01*
X0268386Y0146674D01*
X0256000Y0159060D01*
X0256000Y0161040D01*
X0253540Y0163500D01*
X0250060Y0163500D01*
X0247600Y0161040D01*
X0247600Y0157560D01*
X0250060Y0155100D01*
X0252040Y0155100D01*
X0249494Y0155666D02*
X0214722Y0155666D01*
X0208878Y0155666D02*
X0201894Y0155666D01*
X0200295Y0157265D02*
X0247896Y0157265D01*
X0247600Y0158863D02*
X0198697Y0158863D01*
X0197098Y0160462D02*
X0247600Y0160462D01*
X0248620Y0162060D02*
X0195500Y0162060D01*
X0193901Y0163659D02*
X0302962Y0163659D01*
X0302021Y0162060D02*
X0254980Y0162060D01*
X0256000Y0160462D02*
X0301290Y0160462D01*
X0300862Y0158863D02*
X0256197Y0158863D01*
X0257795Y0157265D02*
X0300701Y0157265D01*
X0300701Y0155666D02*
X0259394Y0155666D01*
X0260992Y0154068D02*
X0301041Y0154068D01*
X0301484Y0152469D02*
X0262591Y0152469D01*
X0264189Y0150870D02*
X0302407Y0150870D01*
X0303631Y0149272D02*
X0265788Y0149272D01*
X0267386Y0147673D02*
X0305409Y0147673D01*
X0308942Y0146075D02*
X0268985Y0146075D01*
X0269600Y0144476D02*
X0316961Y0144476D01*
X0316961Y0142878D02*
X0269600Y0142878D01*
X0269600Y0141279D02*
X0316961Y0141279D01*
X0316961Y0139681D02*
X0269859Y0139681D01*
X0271000Y0138082D02*
X0316961Y0138082D01*
X0316961Y0136484D02*
X0271000Y0136484D01*
X0270825Y0134885D02*
X0316961Y0134885D01*
X0316961Y0133287D02*
X0269227Y0133287D01*
X0264373Y0133287D02*
X0259600Y0133287D01*
X0259600Y0134885D02*
X0262775Y0134885D01*
X0262600Y0136484D02*
X0259600Y0136484D01*
X0259600Y0138082D02*
X0262600Y0138082D01*
X0263741Y0139681D02*
X0259600Y0139681D01*
X0259600Y0141279D02*
X0264000Y0141279D01*
X0264000Y0142878D02*
X0259600Y0142878D01*
X0259600Y0144476D02*
X0262664Y0144476D01*
X0261065Y0146075D02*
X0258985Y0146075D01*
X0259467Y0147673D02*
X0257386Y0147673D01*
X0257868Y0149272D02*
X0256000Y0149272D01*
X0256000Y0150870D02*
X0256270Y0150870D01*
X0254671Y0152469D02*
X0254571Y0152469D01*
X0259600Y0131688D02*
X0316961Y0131688D01*
X0316961Y0130090D02*
X0259600Y0130090D01*
X0259600Y0128491D02*
X0316961Y0128491D01*
X0316961Y0126893D02*
X0259600Y0126893D01*
X0284000Y0107711D02*
X0214470Y0107711D01*
X0213932Y0106112D02*
X0284000Y0106112D01*
X0284000Y0104514D02*
X0215871Y0104514D01*
X0215466Y0094923D02*
X0236528Y0094923D01*
X0234930Y0093324D02*
X0234236Y0093324D01*
X0236800Y0091800D02*
X0236800Y0086800D01*
X0239200Y0090340D02*
X0240550Y0088990D01*
X0242560Y0091000D01*
X0246040Y0091000D01*
X0248050Y0088990D01*
X0250060Y0091000D01*
X0253540Y0091000D01*
X0255550Y0088990D01*
X0257560Y0091000D01*
X0261040Y0091000D01*
X0262909Y0089131D01*
X0264977Y0091200D01*
X0266800Y0091200D01*
X0266800Y0086800D01*
X0266800Y0086800D01*
X0266800Y0082400D01*
X0268623Y0082400D01*
X0270691Y0084469D01*
X0271500Y0083660D01*
X0271500Y0072960D01*
X0270640Y0072100D01*
X0262960Y0072100D01*
X0262100Y0072960D01*
X0262100Y0083660D01*
X0262909Y0084469D01*
X0264977Y0082400D01*
X0266800Y0082400D01*
X0266800Y0086800D01*
X0266800Y0086800D01*
X0266800Y0091200D01*
X0268623Y0091200D01*
X0270691Y0089131D01*
X0271900Y0090340D01*
X0271900Y0095806D01*
X0270806Y0096900D01*
X0245294Y0096900D01*
X0239200Y0090806D01*
X0239200Y0090340D01*
X0239413Y0090127D02*
X0241687Y0090127D01*
X0240120Y0091726D02*
X0271900Y0091726D01*
X0271900Y0093324D02*
X0241718Y0093324D01*
X0243317Y0094923D02*
X0271900Y0094923D01*
X0271185Y0096521D02*
X0244915Y0096521D01*
X0244300Y0099300D02*
X0236800Y0091800D01*
X0246913Y0090127D02*
X0249187Y0090127D01*
X0254413Y0090127D02*
X0256687Y0090127D01*
X0261913Y0090127D02*
X0263905Y0090127D01*
X0266800Y0090127D02*
X0266800Y0090127D01*
X0266800Y0088529D02*
X0266800Y0088529D01*
X0266800Y0086930D02*
X0266800Y0086930D01*
X0266800Y0085332D02*
X0266800Y0085332D01*
X0266800Y0083733D02*
X0266800Y0083733D01*
X0269956Y0083733D02*
X0271427Y0083733D01*
X0271500Y0082134D02*
X0262100Y0082134D01*
X0262100Y0080536D02*
X0271500Y0080536D01*
X0271500Y0078937D02*
X0262100Y0078937D01*
X0262100Y0077339D02*
X0271500Y0077339D01*
X0271500Y0075740D02*
X0262100Y0075740D01*
X0262100Y0074142D02*
X0271500Y0074142D01*
X0271084Y0072543D02*
X0262516Y0072543D01*
X0256500Y0077339D02*
X0247100Y0077339D01*
X0247100Y0078937D02*
X0256500Y0078937D01*
X0256500Y0080536D02*
X0247100Y0080536D01*
X0247100Y0082134D02*
X0256500Y0082134D01*
X0256427Y0083733D02*
X0254673Y0083733D01*
X0248927Y0083733D02*
X0247173Y0083733D01*
X0241427Y0083733D02*
X0239673Y0083733D01*
X0262173Y0083733D02*
X0263644Y0083733D01*
X0274300Y0086800D02*
X0274300Y0096800D01*
X0271800Y0099300D01*
X0244300Y0099300D01*
X0269695Y0090127D02*
X0271687Y0090127D01*
X0277173Y0083733D02*
X0297228Y0083733D01*
X0297200Y0083705D02*
X0297200Y0081900D01*
X0301700Y0081900D01*
X0301700Y0086400D01*
X0299895Y0086400D01*
X0297200Y0083705D01*
X0297200Y0082134D02*
X0277100Y0082134D01*
X0277100Y0080536D02*
X0297200Y0080536D01*
X0297200Y0079895D02*
X0297200Y0081700D01*
X0301700Y0081700D01*
X0301700Y0081900D01*
X0301900Y0081900D01*
X0301900Y0086400D01*
X0303705Y0086400D01*
X0306400Y0083705D01*
X0306400Y0081900D01*
X0301900Y0081900D01*
X0301900Y0081700D01*
X0306400Y0081700D01*
X0306400Y0079895D01*
X0303705Y0077200D01*
X0301900Y0077200D01*
X0301900Y0081700D01*
X0301700Y0081700D01*
X0301700Y0077200D01*
X0299895Y0077200D01*
X0297200Y0079895D01*
X0298157Y0078937D02*
X0277100Y0078937D01*
X0277100Y0077339D02*
X0299756Y0077339D01*
X0301700Y0077339D02*
X0301900Y0077339D01*
X0301900Y0078937D02*
X0301700Y0078937D01*
X0301700Y0080536D02*
X0301900Y0080536D01*
X0301900Y0082134D02*
X0301700Y0082134D01*
X0301700Y0083733D02*
X0301900Y0083733D01*
X0301900Y0085332D02*
X0301700Y0085332D01*
X0298826Y0085332D02*
X0289222Y0085332D01*
X0301700Y0088529D02*
X0301900Y0088529D01*
X0301900Y0090127D02*
X0301700Y0090127D01*
X0305034Y0088529D02*
X0308566Y0088529D01*
X0307200Y0090127D02*
X0306400Y0090127D01*
X0311700Y0090127D02*
X0311900Y0090127D01*
X0311900Y0088529D02*
X0311700Y0088529D01*
X0311700Y0086400D02*
X0309895Y0086400D01*
X0307200Y0083705D01*
X0307200Y0081900D01*
X0311700Y0081900D01*
X0311700Y0086400D01*
X0311900Y0086400D02*
X0311900Y0081900D01*
X0311700Y0081900D01*
X0311700Y0081700D01*
X0307200Y0081700D01*
X0307200Y0079895D01*
X0309895Y0077200D01*
X0311700Y0077200D01*
X0311700Y0081700D01*
X0311900Y0081700D01*
X0311900Y0081900D01*
X0316400Y0081900D01*
X0316400Y0083705D01*
X0313705Y0086400D01*
X0311900Y0086400D01*
X0311900Y0085332D02*
X0311700Y0085332D01*
X0311700Y0083733D02*
X0311900Y0083733D01*
X0311900Y0082134D02*
X0311700Y0082134D01*
X0311900Y0081700D02*
X0316400Y0081700D01*
X0316400Y0079895D01*
X0313705Y0077200D01*
X0311900Y0077200D01*
X0311900Y0081700D01*
X0311900Y0080536D02*
X0311700Y0080536D01*
X0311700Y0078937D02*
X0311900Y0078937D01*
X0311900Y0077339D02*
X0311700Y0077339D01*
X0309756Y0077339D02*
X0303844Y0077339D01*
X0305443Y0078937D02*
X0308157Y0078937D01*
X0307200Y0080536D02*
X0306400Y0080536D01*
X0306400Y0082134D02*
X0307200Y0082134D01*
X0307228Y0083733D02*
X0306372Y0083733D01*
X0304774Y0085332D02*
X0308826Y0085332D01*
X0314774Y0085332D02*
X0316961Y0085332D01*
X0316961Y0083733D02*
X0316372Y0083733D01*
X0316400Y0082134D02*
X0316961Y0082134D01*
X0316961Y0080536D02*
X0316400Y0080536D01*
X0316961Y0078937D02*
X0315443Y0078937D01*
X0316961Y0077339D02*
X0313844Y0077339D01*
X0316961Y0075740D02*
X0277100Y0075740D01*
X0277100Y0074142D02*
X0316961Y0074142D01*
X0316961Y0072543D02*
X0277100Y0072543D01*
X0276977Y0070945D02*
X0316961Y0070945D01*
X0316961Y0069346D02*
X0275806Y0069346D01*
X0274208Y0067748D02*
X0316961Y0067748D01*
X0316961Y0053361D02*
X0259198Y0053361D01*
X0260797Y0051763D02*
X0316961Y0051763D01*
X0316961Y0050164D02*
X0261973Y0050164D01*
X0262100Y0048566D02*
X0316961Y0048566D01*
X0316961Y0046967D02*
X0262100Y0046967D01*
X0262100Y0045369D02*
X0316961Y0045369D01*
X0316961Y0043770D02*
X0262100Y0043770D01*
X0262100Y0042172D02*
X0316961Y0042172D01*
X0316961Y0040573D02*
X0276466Y0040573D01*
X0278065Y0038975D02*
X0316961Y0038975D01*
X0316961Y0037376D02*
X0278500Y0037376D01*
X0278500Y0035778D02*
X0316961Y0035778D01*
X0316961Y0034179D02*
X0277619Y0034179D01*
X0277100Y0032581D02*
X0304150Y0032581D01*
X0300506Y0030982D02*
X0277100Y0030982D01*
X0277100Y0029384D02*
X0298687Y0029384D01*
X0297439Y0027785D02*
X0277100Y0027785D01*
X0270981Y0034179D02*
X0262619Y0034179D01*
X0263500Y0035778D02*
X0270100Y0035778D01*
X0270100Y0037376D02*
X0263500Y0037376D01*
X0263065Y0038975D02*
X0270535Y0038975D01*
X0272134Y0040573D02*
X0262100Y0040573D01*
X0256500Y0040573D02*
X0246749Y0040573D01*
X0248348Y0038975D02*
X0255535Y0038975D01*
X0255100Y0037376D02*
X0248700Y0037376D01*
X0248700Y0035778D02*
X0255100Y0035778D01*
X0255981Y0034179D02*
X0247902Y0034179D01*
X0240252Y0038975D02*
X0215386Y0038975D01*
X0206800Y0038975D02*
X0206800Y0038975D01*
X0206800Y0040573D02*
X0206800Y0040573D01*
X0206800Y0042172D02*
X0206800Y0042172D01*
X0206800Y0043770D02*
X0206800Y0043770D01*
X0206800Y0045369D02*
X0206800Y0045369D01*
X0214705Y0048566D02*
X0256074Y0048566D01*
X0309450Y0032581D02*
X0316961Y0032581D01*
X0316961Y0030982D02*
X0313094Y0030982D01*
X0314913Y0029384D02*
X0316961Y0029384D01*
X0316961Y0027785D02*
X0316161Y0027785D01*
X0191500Y0067748D02*
X0177992Y0067748D01*
X0180286Y0069346D02*
X0191500Y0069346D01*
X0191500Y0070945D02*
X0180992Y0070945D01*
X0181000Y0072543D02*
X0191500Y0072543D01*
X0191500Y0074142D02*
X0180376Y0074142D01*
X0178262Y0075740D02*
X0191500Y0075740D01*
X0107455Y0094923D02*
X0104600Y0094923D01*
X0104600Y0096521D02*
X0107400Y0096521D01*
X0094000Y0075740D02*
X0089789Y0075740D01*
X0091388Y0074142D02*
X0094000Y0074142D01*
X0094000Y0072543D02*
X0091700Y0072543D01*
X0091700Y0070945D02*
X0094000Y0070945D01*
X0094000Y0069346D02*
X0091276Y0069346D01*
X0089678Y0067748D02*
X0093788Y0067748D01*
X0092190Y0066149D02*
X0089380Y0066149D01*
X0161000Y0027785D02*
X0184245Y0027785D01*
X0182994Y0026187D02*
X0161373Y0026187D01*
X0301700Y0093324D02*
X0301900Y0093324D01*
X0301900Y0094923D02*
X0301700Y0094923D01*
X0299977Y0097400D02*
X0303623Y0097400D01*
X0306200Y0099977D01*
X0306200Y0103623D01*
X0303623Y0106200D01*
X0299977Y0106200D01*
X0297400Y0103623D01*
X0297400Y0099977D01*
X0299977Y0097400D01*
X0299258Y0098120D02*
X0289600Y0098120D01*
X0289600Y0099718D02*
X0297659Y0099718D01*
X0297400Y0101317D02*
X0289600Y0101317D01*
X0289600Y0102915D02*
X0297400Y0102915D01*
X0298291Y0104514D02*
X0289600Y0104514D01*
X0289600Y0106112D02*
X0299890Y0106112D01*
X0299667Y0107711D02*
X0289600Y0107711D01*
X0303710Y0106112D02*
X0309890Y0106112D01*
X0309667Y0107711D02*
X0303933Y0107711D01*
X0305532Y0109309D02*
X0308068Y0109309D01*
X0307400Y0110908D02*
X0306200Y0110908D01*
X0306200Y0112506D02*
X0307400Y0112506D01*
X0307882Y0114105D02*
X0305718Y0114105D01*
X0304600Y0115703D02*
X0309000Y0115703D01*
X0309000Y0117302D02*
X0304600Y0117302D01*
X0305123Y0118900D02*
X0308477Y0118900D01*
X0308291Y0104514D02*
X0305309Y0104514D01*
X0306200Y0102915D02*
X0307400Y0102915D01*
X0307400Y0101317D02*
X0306200Y0101317D01*
X0305941Y0099718D02*
X0307659Y0099718D01*
X0309258Y0098120D02*
X0304342Y0098120D01*
X0305183Y0094923D02*
X0308417Y0094923D01*
X0307200Y0093324D02*
X0306400Y0093324D01*
X0311700Y0093324D02*
X0311900Y0093324D01*
X0311900Y0094923D02*
X0311700Y0094923D01*
X0316400Y0093324D02*
X0316961Y0093324D01*
X0316961Y0146075D02*
X0314658Y0146075D01*
M02*
