G75*
%MOIN*%
%OFA0B0*%
%FSLAX25Y25*%
%IPPOS*%
%LPD*%
%AMOC8*
5,1,8,0,0,1.08239X$1,22.5*
%
%ADD10C,0.13398*%
%ADD11C,0.06000*%
%ADD12C,0.06400*%
%ADD13OC8,0.06400*%
%ADD14C,0.07200*%
%ADD15R,0.10800X0.05800*%
%ADD16OC8,0.06000*%
%ADD17OC8,0.07400*%
%ADD18OC8,0.06800*%
%ADD19C,0.10800*%
%ADD20OC8,0.10800*%
%ADD21C,0.05156*%
D10*
X0016800Y0021800D03*
X0016800Y0156800D03*
X0306800Y0021800D03*
X0311800Y0156800D03*
D11*
X0212000Y0071800D02*
X0206800Y0071800D01*
X0206800Y0061800D02*
X0212000Y0061800D01*
X0212000Y0051800D02*
X0206800Y0051800D01*
X0206800Y0041800D02*
X0212000Y0041800D01*
X0216800Y0024400D02*
X0216800Y0019200D01*
X0206800Y0019200D02*
X0206800Y0024400D01*
X0196800Y0024400D02*
X0196800Y0019200D01*
X0186800Y0019200D02*
X0186800Y0024400D01*
X0176800Y0041800D02*
X0171600Y0041800D01*
X0171600Y0051800D02*
X0176800Y0051800D01*
X0176800Y0061800D02*
X0171600Y0061800D01*
X0171600Y0071800D02*
X0176800Y0071800D01*
X0141800Y0024400D02*
X0141800Y0019200D01*
X0131800Y0019200D02*
X0131800Y0024400D01*
X0121800Y0024400D02*
X0121800Y0019200D01*
X0111800Y0019200D02*
X0111800Y0024400D01*
X0101800Y0024400D02*
X0101800Y0019200D01*
X0226800Y0019200D02*
X0226800Y0024400D01*
X0236800Y0024400D02*
X0236800Y0019200D01*
X0091800Y0149200D02*
X0091800Y0154400D01*
X0081800Y0154400D02*
X0081800Y0149200D01*
X0071800Y0149200D02*
X0071800Y0154400D01*
X0061800Y0154400D02*
X0061800Y0149200D01*
X0051800Y0149200D02*
X0051800Y0154400D01*
X0041800Y0154400D02*
X0041800Y0149200D01*
X0031800Y0149200D02*
X0031800Y0154400D01*
D12*
X0311800Y0121800D03*
D13*
X0301800Y0121800D03*
X0301800Y0111800D03*
X0311800Y0111800D03*
X0311800Y0101800D03*
X0301800Y0101800D03*
X0301800Y0091800D03*
X0311800Y0091800D03*
X0311800Y0081800D03*
X0301800Y0081800D03*
D14*
X0211800Y0091800D03*
X0211800Y0101800D03*
X0211800Y0111800D03*
X0211800Y0121800D03*
X0211800Y0131800D03*
X0211800Y0141800D03*
X0211800Y0151800D03*
X0181800Y0151800D03*
X0181800Y0141800D03*
X0181800Y0131800D03*
X0181800Y0121800D03*
X0181800Y0111800D03*
X0181800Y0101800D03*
X0181800Y0091800D03*
D15*
X0171800Y0091800D03*
X0171800Y0101800D03*
X0171800Y0111800D03*
X0171800Y0121800D03*
X0171800Y0131800D03*
X0171800Y0141800D03*
X0171800Y0151800D03*
X0221800Y0151800D03*
X0221800Y0141800D03*
X0221800Y0131800D03*
X0221800Y0121800D03*
X0221800Y0111800D03*
X0221800Y0101800D03*
X0221800Y0091800D03*
D16*
X0236800Y0086800D03*
X0244300Y0086800D03*
X0251800Y0086800D03*
X0259300Y0086800D03*
X0266800Y0086800D03*
X0274300Y0086800D03*
X0274300Y0036800D03*
X0259300Y0036800D03*
X0244300Y0036800D03*
X0156800Y0026800D03*
X0156800Y0076800D03*
X0131800Y0096800D03*
X0111800Y0096800D03*
X0084300Y0134300D03*
X0034300Y0134300D03*
X0236800Y0136800D03*
X0251800Y0136800D03*
X0266800Y0136800D03*
X0251800Y0149300D03*
X0251800Y0159300D03*
D17*
X0086800Y0111800D03*
X0086800Y0101800D03*
X0086800Y0091800D03*
X0086800Y0081800D03*
X0086800Y0071800D03*
X0086800Y0061800D03*
X0086800Y0051800D03*
X0086800Y0041800D03*
X0016800Y0041800D03*
X0016800Y0051800D03*
X0016800Y0061800D03*
X0016800Y0071800D03*
X0016800Y0081800D03*
X0016800Y0091800D03*
X0016800Y0101800D03*
X0016800Y0111800D03*
D18*
X0116800Y0116800D03*
X0126800Y0116800D03*
X0126800Y0126800D03*
X0116800Y0126800D03*
X0116800Y0136800D03*
X0126800Y0136800D03*
X0126800Y0146800D03*
X0116800Y0146800D03*
D19*
X0131800Y0066800D03*
D20*
X0111800Y0066800D03*
D21*
X0061800Y0081800D03*
X0046800Y0071800D03*
X0031800Y0064300D03*
X0161800Y0131800D03*
X0114300Y0156800D03*
M02*
