G75*
%MOIN*%
%OFA0B0*%
%FSLAX25Y25*%
%IPPOS*%
%LPD*%
%AMOC8*
5,1,8,0,0,1.08239X$1,22.5*
%
%ADD10C,0.01000*%
%ADD11C,0.00600*%
%ADD12C,0.00300*%
%ADD13C,0.00400*%
%ADD14C,0.00500*%
%ADD15C,0.00800*%
%ADD16R,0.02400X0.03400*%
%ADD17R,0.02500X0.09000*%
%ADD18C,0.01200*%
%ADD19R,0.03400X0.02400*%
D10*
X0207300Y0084300D02*
X0207302Y0084389D01*
X0207308Y0084478D01*
X0207318Y0084567D01*
X0207332Y0084655D01*
X0207349Y0084742D01*
X0207371Y0084828D01*
X0207397Y0084914D01*
X0207426Y0084998D01*
X0207459Y0085081D01*
X0207495Y0085162D01*
X0207536Y0085242D01*
X0207579Y0085319D01*
X0207626Y0085395D01*
X0207677Y0085468D01*
X0207730Y0085539D01*
X0207787Y0085608D01*
X0207847Y0085674D01*
X0207910Y0085738D01*
X0207975Y0085798D01*
X0208043Y0085856D01*
X0208114Y0085910D01*
X0208187Y0085961D01*
X0208262Y0086009D01*
X0208339Y0086054D01*
X0208418Y0086095D01*
X0208499Y0086132D01*
X0208581Y0086166D01*
X0208665Y0086197D01*
X0208750Y0086223D01*
X0208836Y0086246D01*
X0208923Y0086264D01*
X0209011Y0086279D01*
X0209100Y0086290D01*
X0209189Y0086297D01*
X0209278Y0086300D01*
X0209367Y0086299D01*
X0209456Y0086294D01*
X0209544Y0086285D01*
X0209633Y0086272D01*
X0209720Y0086255D01*
X0209807Y0086235D01*
X0209893Y0086210D01*
X0209977Y0086182D01*
X0210060Y0086150D01*
X0210142Y0086114D01*
X0210222Y0086075D01*
X0210300Y0086032D01*
X0210376Y0085986D01*
X0210450Y0085936D01*
X0210522Y0085883D01*
X0210591Y0085827D01*
X0210658Y0085768D01*
X0210722Y0085706D01*
X0210783Y0085642D01*
X0210842Y0085574D01*
X0210897Y0085504D01*
X0210949Y0085432D01*
X0210998Y0085357D01*
X0211043Y0085281D01*
X0211085Y0085202D01*
X0211123Y0085122D01*
X0211158Y0085040D01*
X0211189Y0084956D01*
X0211217Y0084871D01*
X0211240Y0084785D01*
X0211260Y0084698D01*
X0211276Y0084611D01*
X0211288Y0084522D01*
X0211296Y0084434D01*
X0211300Y0084345D01*
X0211300Y0084255D01*
X0211296Y0084166D01*
X0211288Y0084078D01*
X0211276Y0083989D01*
X0211260Y0083902D01*
X0211240Y0083815D01*
X0211217Y0083729D01*
X0211189Y0083644D01*
X0211158Y0083560D01*
X0211123Y0083478D01*
X0211085Y0083398D01*
X0211043Y0083319D01*
X0210998Y0083243D01*
X0210949Y0083168D01*
X0210897Y0083096D01*
X0210842Y0083026D01*
X0210783Y0082958D01*
X0210722Y0082894D01*
X0210658Y0082832D01*
X0210591Y0082773D01*
X0210522Y0082717D01*
X0210450Y0082664D01*
X0210376Y0082614D01*
X0210300Y0082568D01*
X0210222Y0082525D01*
X0210142Y0082486D01*
X0210060Y0082450D01*
X0209977Y0082418D01*
X0209893Y0082390D01*
X0209807Y0082365D01*
X0209720Y0082345D01*
X0209633Y0082328D01*
X0209544Y0082315D01*
X0209456Y0082306D01*
X0209367Y0082301D01*
X0209278Y0082300D01*
X0209189Y0082303D01*
X0209100Y0082310D01*
X0209011Y0082321D01*
X0208923Y0082336D01*
X0208836Y0082354D01*
X0208750Y0082377D01*
X0208665Y0082403D01*
X0208581Y0082434D01*
X0208499Y0082468D01*
X0208418Y0082505D01*
X0208339Y0082546D01*
X0208262Y0082591D01*
X0208187Y0082639D01*
X0208114Y0082690D01*
X0208043Y0082744D01*
X0207975Y0082802D01*
X0207910Y0082862D01*
X0207847Y0082926D01*
X0207787Y0082992D01*
X0207730Y0083061D01*
X0207677Y0083132D01*
X0207626Y0083205D01*
X0207579Y0083281D01*
X0207536Y0083358D01*
X0207495Y0083438D01*
X0207459Y0083519D01*
X0207426Y0083602D01*
X0207397Y0083686D01*
X0207371Y0083772D01*
X0207349Y0083858D01*
X0207332Y0083945D01*
X0207318Y0084033D01*
X0207308Y0084122D01*
X0207302Y0084211D01*
X0207300Y0084300D01*
X0131800Y0121800D02*
X0111800Y0121800D01*
X0111800Y0131800D02*
X0131800Y0131800D01*
X0131800Y0141800D02*
X0111800Y0141800D01*
X0255769Y0147354D02*
X0255938Y0147453D01*
X0256104Y0147557D01*
X0256268Y0147664D01*
X0256429Y0147775D01*
X0256587Y0147890D01*
X0256742Y0148009D01*
X0256895Y0148132D01*
X0257044Y0148258D01*
X0257190Y0148388D01*
X0257333Y0148522D01*
X0257473Y0148659D01*
X0257609Y0148799D01*
X0257742Y0148943D01*
X0257871Y0149090D01*
X0257997Y0149240D01*
X0258118Y0149393D01*
X0258237Y0149549D01*
X0258351Y0149708D01*
X0258461Y0149869D01*
X0258567Y0150034D01*
X0258670Y0150200D01*
X0258768Y0150370D01*
X0258862Y0150541D01*
X0258952Y0150715D01*
X0259037Y0150891D01*
X0259119Y0151069D01*
X0259195Y0151249D01*
X0259268Y0151431D01*
X0259336Y0151614D01*
X0259399Y0151799D01*
X0259458Y0151986D01*
X0259512Y0152174D01*
X0259562Y0152363D01*
X0259607Y0152553D01*
X0259647Y0152745D01*
X0259683Y0152937D01*
X0259714Y0153130D01*
X0259740Y0153324D01*
X0259762Y0153519D01*
X0259778Y0153714D01*
X0259790Y0153909D01*
X0259798Y0154105D01*
X0259800Y0154300D01*
X0248035Y0147241D02*
X0247867Y0147334D01*
X0247701Y0147430D01*
X0247537Y0147530D01*
X0247376Y0147635D01*
X0247217Y0147743D01*
X0247061Y0147855D01*
X0246907Y0147971D01*
X0246757Y0148090D01*
X0246609Y0148213D01*
X0246464Y0148339D01*
X0246323Y0148469D01*
X0246184Y0148602D01*
X0246049Y0148739D01*
X0245917Y0148879D01*
X0245789Y0149021D01*
X0245664Y0149167D01*
X0245542Y0149316D01*
X0245424Y0149468D01*
X0245310Y0149622D01*
X0245200Y0149780D01*
X0245093Y0149939D01*
X0244990Y0150102D01*
X0244891Y0150267D01*
X0244796Y0150434D01*
X0244706Y0150603D01*
X0244619Y0150774D01*
X0244536Y0150948D01*
X0244458Y0151123D01*
X0244384Y0151301D01*
X0244314Y0151480D01*
X0244248Y0151660D01*
X0244187Y0151842D01*
X0244130Y0152026D01*
X0244078Y0152211D01*
X0244030Y0152397D01*
X0243986Y0152584D01*
X0243947Y0152772D01*
X0243913Y0152961D01*
X0243883Y0153151D01*
X0243858Y0153341D01*
X0243837Y0153532D01*
X0243821Y0153724D01*
X0243809Y0153916D01*
X0243802Y0154108D01*
X0243800Y0154300D01*
X0256968Y0160407D02*
X0257114Y0160280D01*
X0257256Y0160151D01*
X0257396Y0160017D01*
X0257532Y0159881D01*
X0257665Y0159741D01*
X0257795Y0159598D01*
X0257921Y0159451D01*
X0258043Y0159302D01*
X0258162Y0159150D01*
X0258277Y0158995D01*
X0258389Y0158838D01*
X0258496Y0158678D01*
X0258600Y0158515D01*
X0258699Y0158349D01*
X0258795Y0158182D01*
X0258887Y0158012D01*
X0258974Y0157840D01*
X0259058Y0157666D01*
X0259137Y0157490D01*
X0259211Y0157312D01*
X0259282Y0157132D01*
X0259348Y0156951D01*
X0259410Y0156768D01*
X0259467Y0156584D01*
X0259520Y0156398D01*
X0259568Y0156211D01*
X0259612Y0156023D01*
X0259651Y0155834D01*
X0259686Y0155644D01*
X0259716Y0155454D01*
X0259742Y0155263D01*
X0259763Y0155071D01*
X0259779Y0154878D01*
X0259791Y0154686D01*
X0259798Y0154493D01*
X0259800Y0154300D01*
X0246678Y0160446D02*
X0246530Y0160319D01*
X0246385Y0160189D01*
X0246244Y0160056D01*
X0246105Y0159919D01*
X0245970Y0159779D01*
X0245839Y0159635D01*
X0245711Y0159488D01*
X0245586Y0159339D01*
X0245465Y0159186D01*
X0245348Y0159031D01*
X0245235Y0158872D01*
X0245126Y0158711D01*
X0245021Y0158547D01*
X0244919Y0158381D01*
X0244822Y0158212D01*
X0244729Y0158042D01*
X0244640Y0157868D01*
X0244555Y0157693D01*
X0244475Y0157516D01*
X0244399Y0157337D01*
X0244327Y0157156D01*
X0244260Y0156973D01*
X0244197Y0156789D01*
X0244139Y0156603D01*
X0244085Y0156416D01*
X0244036Y0156228D01*
X0243991Y0156038D01*
X0243951Y0155848D01*
X0243916Y0155656D01*
X0243885Y0155464D01*
X0243859Y0155271D01*
X0243838Y0155077D01*
X0243821Y0154883D01*
X0243809Y0154689D01*
X0243802Y0154495D01*
X0243800Y0154300D01*
D11*
X0255483Y0149564D02*
X0255602Y0149658D01*
X0255718Y0149756D01*
X0255832Y0149856D01*
X0255943Y0149960D01*
X0256051Y0150066D01*
X0256157Y0150174D01*
X0256259Y0150286D01*
X0256359Y0150400D01*
X0256457Y0150516D01*
X0256551Y0150635D01*
X0256642Y0150756D01*
X0256730Y0150880D01*
X0256815Y0151006D01*
X0256896Y0151133D01*
X0256975Y0151263D01*
X0257050Y0151395D01*
X0257121Y0151528D01*
X0257190Y0151664D01*
X0257255Y0151801D01*
X0257316Y0151939D01*
X0257374Y0152080D01*
X0257428Y0152221D01*
X0257479Y0152364D01*
X0257526Y0152508D01*
X0257570Y0152653D01*
X0257609Y0152800D01*
X0257645Y0152947D01*
X0257678Y0153095D01*
X0257706Y0153244D01*
X0257731Y0153394D01*
X0257752Y0153544D01*
X0257769Y0153694D01*
X0257783Y0153846D01*
X0257792Y0153997D01*
X0257798Y0154148D01*
X0257800Y0154300D01*
X0248200Y0149500D02*
X0248081Y0149592D01*
X0247964Y0149686D01*
X0247850Y0149784D01*
X0247738Y0149884D01*
X0247628Y0149988D01*
X0247522Y0150093D01*
X0247417Y0150202D01*
X0247316Y0150313D01*
X0247218Y0150427D01*
X0247122Y0150543D01*
X0247029Y0150661D01*
X0246940Y0150782D01*
X0246853Y0150905D01*
X0246770Y0151030D01*
X0246689Y0151157D01*
X0246612Y0151286D01*
X0246538Y0151417D01*
X0246467Y0151550D01*
X0246400Y0151684D01*
X0246336Y0151820D01*
X0246276Y0151958D01*
X0246219Y0152097D01*
X0246166Y0152238D01*
X0246116Y0152380D01*
X0246069Y0152523D01*
X0246027Y0152667D01*
X0245987Y0152812D01*
X0245952Y0152958D01*
X0245920Y0153105D01*
X0245892Y0153253D01*
X0245868Y0153401D01*
X0245847Y0153550D01*
X0245830Y0153700D01*
X0245817Y0153849D01*
X0245808Y0153999D01*
X0245802Y0154150D01*
X0245800Y0154300D01*
X0255483Y0159036D02*
X0255602Y0158942D01*
X0255718Y0158844D01*
X0255832Y0158744D01*
X0255943Y0158640D01*
X0256051Y0158534D01*
X0256157Y0158426D01*
X0256259Y0158314D01*
X0256359Y0158200D01*
X0256457Y0158084D01*
X0256551Y0157965D01*
X0256642Y0157844D01*
X0256730Y0157720D01*
X0256815Y0157594D01*
X0256896Y0157467D01*
X0256975Y0157337D01*
X0257050Y0157205D01*
X0257121Y0157072D01*
X0257190Y0156936D01*
X0257255Y0156799D01*
X0257316Y0156661D01*
X0257374Y0156520D01*
X0257428Y0156379D01*
X0257479Y0156236D01*
X0257526Y0156092D01*
X0257570Y0155947D01*
X0257609Y0155800D01*
X0257645Y0155653D01*
X0257678Y0155505D01*
X0257706Y0155356D01*
X0257731Y0155206D01*
X0257752Y0155056D01*
X0257769Y0154906D01*
X0257783Y0154754D01*
X0257792Y0154603D01*
X0257798Y0154452D01*
X0257800Y0154300D01*
X0248313Y0159182D02*
X0248188Y0159091D01*
X0248066Y0158997D01*
X0247947Y0158899D01*
X0247830Y0158799D01*
X0247716Y0158695D01*
X0247604Y0158589D01*
X0247496Y0158480D01*
X0247390Y0158368D01*
X0247287Y0158253D01*
X0247187Y0158136D01*
X0247089Y0158016D01*
X0246996Y0157894D01*
X0246905Y0157770D01*
X0246817Y0157643D01*
X0246733Y0157514D01*
X0246652Y0157382D01*
X0246575Y0157249D01*
X0246501Y0157114D01*
X0246430Y0156977D01*
X0246363Y0156838D01*
X0246300Y0156698D01*
X0246240Y0156555D01*
X0246184Y0156412D01*
X0246132Y0156267D01*
X0246083Y0156121D01*
X0246038Y0155973D01*
X0245997Y0155825D01*
X0245960Y0155675D01*
X0245926Y0155525D01*
X0245897Y0155373D01*
X0245871Y0155221D01*
X0245849Y0155069D01*
X0245832Y0154916D01*
X0245818Y0154762D01*
X0245808Y0154608D01*
X0245802Y0154454D01*
X0245800Y0154300D01*
X0246800Y0128800D02*
X0256800Y0128800D01*
X0256860Y0128798D01*
X0256921Y0128793D01*
X0256980Y0128784D01*
X0257039Y0128771D01*
X0257098Y0128755D01*
X0257155Y0128735D01*
X0257210Y0128712D01*
X0257265Y0128685D01*
X0257317Y0128656D01*
X0257368Y0128623D01*
X0257417Y0128587D01*
X0257463Y0128549D01*
X0257507Y0128507D01*
X0257549Y0128463D01*
X0257587Y0128417D01*
X0257623Y0128368D01*
X0257656Y0128317D01*
X0257685Y0128265D01*
X0257712Y0128210D01*
X0257735Y0128155D01*
X0257755Y0128098D01*
X0257771Y0128039D01*
X0257784Y0127980D01*
X0257793Y0127921D01*
X0257798Y0127860D01*
X0257800Y0127800D01*
X0257800Y0125300D01*
X0257300Y0124800D01*
X0257300Y0098800D01*
X0257800Y0098300D01*
X0257800Y0095800D01*
X0257798Y0095740D01*
X0257793Y0095679D01*
X0257784Y0095620D01*
X0257771Y0095561D01*
X0257755Y0095502D01*
X0257735Y0095445D01*
X0257712Y0095390D01*
X0257685Y0095335D01*
X0257656Y0095283D01*
X0257623Y0095232D01*
X0257587Y0095183D01*
X0257549Y0095137D01*
X0257507Y0095093D01*
X0257463Y0095051D01*
X0257417Y0095013D01*
X0257368Y0094977D01*
X0257317Y0094944D01*
X0257265Y0094915D01*
X0257210Y0094888D01*
X0257155Y0094865D01*
X0257098Y0094845D01*
X0257039Y0094829D01*
X0256980Y0094816D01*
X0256921Y0094807D01*
X0256860Y0094802D01*
X0256800Y0094800D01*
X0246800Y0094800D01*
X0246740Y0094802D01*
X0246679Y0094807D01*
X0246620Y0094816D01*
X0246561Y0094829D01*
X0246502Y0094845D01*
X0246445Y0094865D01*
X0246390Y0094888D01*
X0246335Y0094915D01*
X0246283Y0094944D01*
X0246232Y0094977D01*
X0246183Y0095013D01*
X0246137Y0095051D01*
X0246093Y0095093D01*
X0246051Y0095137D01*
X0246013Y0095183D01*
X0245977Y0095232D01*
X0245944Y0095283D01*
X0245915Y0095335D01*
X0245888Y0095390D01*
X0245865Y0095445D01*
X0245845Y0095502D01*
X0245829Y0095561D01*
X0245816Y0095620D01*
X0245807Y0095679D01*
X0245802Y0095740D01*
X0245800Y0095800D01*
X0245800Y0098300D01*
X0246300Y0098800D01*
X0246300Y0124800D01*
X0245800Y0125300D01*
X0245800Y0127800D01*
X0245802Y0127860D01*
X0245807Y0127921D01*
X0245816Y0127980D01*
X0245829Y0128039D01*
X0245845Y0128098D01*
X0245865Y0128155D01*
X0245888Y0128210D01*
X0245915Y0128265D01*
X0245944Y0128317D01*
X0245977Y0128368D01*
X0246013Y0128417D01*
X0246051Y0128463D01*
X0246093Y0128507D01*
X0246137Y0128549D01*
X0246183Y0128587D01*
X0246232Y0128623D01*
X0246283Y0128656D01*
X0246335Y0128685D01*
X0246390Y0128712D01*
X0246445Y0128735D01*
X0246502Y0128755D01*
X0246561Y0128771D01*
X0246620Y0128784D01*
X0246679Y0128793D01*
X0246740Y0128798D01*
X0246800Y0128800D01*
X0242800Y0127800D02*
X0242800Y0125300D01*
X0242300Y0124800D01*
X0242300Y0098800D01*
X0242800Y0098300D01*
X0242800Y0095800D01*
X0242798Y0095740D01*
X0242793Y0095679D01*
X0242784Y0095620D01*
X0242771Y0095561D01*
X0242755Y0095502D01*
X0242735Y0095445D01*
X0242712Y0095390D01*
X0242685Y0095335D01*
X0242656Y0095283D01*
X0242623Y0095232D01*
X0242587Y0095183D01*
X0242549Y0095137D01*
X0242507Y0095093D01*
X0242463Y0095051D01*
X0242417Y0095013D01*
X0242368Y0094977D01*
X0242317Y0094944D01*
X0242265Y0094915D01*
X0242210Y0094888D01*
X0242155Y0094865D01*
X0242098Y0094845D01*
X0242039Y0094829D01*
X0241980Y0094816D01*
X0241921Y0094807D01*
X0241860Y0094802D01*
X0241800Y0094800D01*
X0231800Y0094800D01*
X0231740Y0094802D01*
X0231679Y0094807D01*
X0231620Y0094816D01*
X0231561Y0094829D01*
X0231502Y0094845D01*
X0231445Y0094865D01*
X0231390Y0094888D01*
X0231335Y0094915D01*
X0231283Y0094944D01*
X0231232Y0094977D01*
X0231183Y0095013D01*
X0231137Y0095051D01*
X0231093Y0095093D01*
X0231051Y0095137D01*
X0231013Y0095183D01*
X0230977Y0095232D01*
X0230944Y0095283D01*
X0230915Y0095335D01*
X0230888Y0095390D01*
X0230865Y0095445D01*
X0230845Y0095502D01*
X0230829Y0095561D01*
X0230816Y0095620D01*
X0230807Y0095679D01*
X0230802Y0095740D01*
X0230800Y0095800D01*
X0230800Y0098300D01*
X0231300Y0098800D01*
X0231300Y0124800D01*
X0230800Y0125300D01*
X0230800Y0127800D01*
X0230802Y0127860D01*
X0230807Y0127921D01*
X0230816Y0127980D01*
X0230829Y0128039D01*
X0230845Y0128098D01*
X0230865Y0128155D01*
X0230888Y0128210D01*
X0230915Y0128265D01*
X0230944Y0128317D01*
X0230977Y0128368D01*
X0231013Y0128417D01*
X0231051Y0128463D01*
X0231093Y0128507D01*
X0231137Y0128549D01*
X0231183Y0128587D01*
X0231232Y0128623D01*
X0231283Y0128656D01*
X0231335Y0128685D01*
X0231390Y0128712D01*
X0231445Y0128735D01*
X0231502Y0128755D01*
X0231561Y0128771D01*
X0231620Y0128784D01*
X0231679Y0128793D01*
X0231740Y0128798D01*
X0231800Y0128800D01*
X0241800Y0128800D01*
X0241860Y0128798D01*
X0241921Y0128793D01*
X0241980Y0128784D01*
X0242039Y0128771D01*
X0242098Y0128755D01*
X0242155Y0128735D01*
X0242210Y0128712D01*
X0242265Y0128685D01*
X0242317Y0128656D01*
X0242368Y0128623D01*
X0242417Y0128587D01*
X0242463Y0128549D01*
X0242507Y0128507D01*
X0242549Y0128463D01*
X0242587Y0128417D01*
X0242623Y0128368D01*
X0242656Y0128317D01*
X0242685Y0128265D01*
X0242712Y0128210D01*
X0242735Y0128155D01*
X0242755Y0128098D01*
X0242771Y0128039D01*
X0242784Y0127980D01*
X0242793Y0127921D01*
X0242798Y0127860D01*
X0242800Y0127800D01*
X0260800Y0127800D02*
X0260800Y0125300D01*
X0261300Y0124800D01*
X0261300Y0098800D01*
X0260800Y0098300D01*
X0260800Y0095800D01*
X0260802Y0095740D01*
X0260807Y0095679D01*
X0260816Y0095620D01*
X0260829Y0095561D01*
X0260845Y0095502D01*
X0260865Y0095445D01*
X0260888Y0095390D01*
X0260915Y0095335D01*
X0260944Y0095283D01*
X0260977Y0095232D01*
X0261013Y0095183D01*
X0261051Y0095137D01*
X0261093Y0095093D01*
X0261137Y0095051D01*
X0261183Y0095013D01*
X0261232Y0094977D01*
X0261283Y0094944D01*
X0261335Y0094915D01*
X0261390Y0094888D01*
X0261445Y0094865D01*
X0261502Y0094845D01*
X0261561Y0094829D01*
X0261620Y0094816D01*
X0261679Y0094807D01*
X0261740Y0094802D01*
X0261800Y0094800D01*
X0271800Y0094800D01*
X0271860Y0094802D01*
X0271921Y0094807D01*
X0271980Y0094816D01*
X0272039Y0094829D01*
X0272098Y0094845D01*
X0272155Y0094865D01*
X0272210Y0094888D01*
X0272265Y0094915D01*
X0272317Y0094944D01*
X0272368Y0094977D01*
X0272417Y0095013D01*
X0272463Y0095051D01*
X0272507Y0095093D01*
X0272549Y0095137D01*
X0272587Y0095183D01*
X0272623Y0095232D01*
X0272656Y0095283D01*
X0272685Y0095335D01*
X0272712Y0095390D01*
X0272735Y0095445D01*
X0272755Y0095502D01*
X0272771Y0095561D01*
X0272784Y0095620D01*
X0272793Y0095679D01*
X0272798Y0095740D01*
X0272800Y0095800D01*
X0272800Y0098300D01*
X0272300Y0098800D01*
X0272300Y0124800D01*
X0272800Y0125300D01*
X0272800Y0127800D01*
X0272798Y0127860D01*
X0272793Y0127921D01*
X0272784Y0127980D01*
X0272771Y0128039D01*
X0272755Y0128098D01*
X0272735Y0128155D01*
X0272712Y0128210D01*
X0272685Y0128265D01*
X0272656Y0128317D01*
X0272623Y0128368D01*
X0272587Y0128417D01*
X0272549Y0128463D01*
X0272507Y0128507D01*
X0272463Y0128549D01*
X0272417Y0128587D01*
X0272368Y0128623D01*
X0272317Y0128656D01*
X0272265Y0128685D01*
X0272210Y0128712D01*
X0272155Y0128735D01*
X0272098Y0128755D01*
X0272039Y0128771D01*
X0271980Y0128784D01*
X0271921Y0128793D01*
X0271860Y0128798D01*
X0271800Y0128800D01*
X0261800Y0128800D01*
X0261740Y0128798D01*
X0261679Y0128793D01*
X0261620Y0128784D01*
X0261561Y0128771D01*
X0261502Y0128755D01*
X0261445Y0128735D01*
X0261390Y0128712D01*
X0261335Y0128685D01*
X0261283Y0128656D01*
X0261232Y0128623D01*
X0261183Y0128587D01*
X0261137Y0128549D01*
X0261093Y0128507D01*
X0261051Y0128463D01*
X0261013Y0128417D01*
X0260977Y0128368D01*
X0260944Y0128317D01*
X0260915Y0128265D01*
X0260888Y0128210D01*
X0260865Y0128155D01*
X0260845Y0128098D01*
X0260829Y0128039D01*
X0260816Y0127980D01*
X0260807Y0127921D01*
X0260802Y0127860D01*
X0260800Y0127800D01*
X0294800Y0124300D02*
X0294800Y0079300D01*
X0294802Y0079202D01*
X0294808Y0079104D01*
X0294817Y0079006D01*
X0294831Y0078909D01*
X0294848Y0078812D01*
X0294869Y0078716D01*
X0294894Y0078621D01*
X0294922Y0078527D01*
X0294955Y0078435D01*
X0294990Y0078343D01*
X0295030Y0078253D01*
X0295072Y0078165D01*
X0295119Y0078078D01*
X0295168Y0077994D01*
X0295221Y0077911D01*
X0295277Y0077831D01*
X0295337Y0077752D01*
X0295399Y0077676D01*
X0295464Y0077603D01*
X0295532Y0077532D01*
X0295603Y0077464D01*
X0295676Y0077399D01*
X0295752Y0077337D01*
X0295831Y0077277D01*
X0295911Y0077221D01*
X0295994Y0077168D01*
X0296078Y0077119D01*
X0296165Y0077072D01*
X0296253Y0077030D01*
X0296343Y0076990D01*
X0296435Y0076955D01*
X0296527Y0076922D01*
X0296621Y0076894D01*
X0296716Y0076869D01*
X0296812Y0076848D01*
X0296909Y0076831D01*
X0297006Y0076817D01*
X0297104Y0076808D01*
X0297202Y0076802D01*
X0297300Y0076800D01*
X0316300Y0076800D01*
X0316398Y0076802D01*
X0316496Y0076808D01*
X0316594Y0076817D01*
X0316691Y0076831D01*
X0316788Y0076848D01*
X0316884Y0076869D01*
X0316979Y0076894D01*
X0317073Y0076922D01*
X0317165Y0076955D01*
X0317257Y0076990D01*
X0317347Y0077030D01*
X0317435Y0077072D01*
X0317522Y0077119D01*
X0317606Y0077168D01*
X0317689Y0077221D01*
X0317769Y0077277D01*
X0317848Y0077337D01*
X0317924Y0077399D01*
X0317997Y0077464D01*
X0318068Y0077532D01*
X0318136Y0077603D01*
X0318201Y0077676D01*
X0318263Y0077752D01*
X0318323Y0077831D01*
X0318379Y0077911D01*
X0318432Y0077994D01*
X0318481Y0078078D01*
X0318528Y0078165D01*
X0318570Y0078253D01*
X0318610Y0078343D01*
X0318645Y0078435D01*
X0318678Y0078527D01*
X0318706Y0078621D01*
X0318731Y0078716D01*
X0318752Y0078812D01*
X0318769Y0078909D01*
X0318783Y0079006D01*
X0318792Y0079104D01*
X0318798Y0079202D01*
X0318800Y0079300D01*
X0318800Y0124300D01*
X0318798Y0124398D01*
X0318792Y0124496D01*
X0318783Y0124594D01*
X0318769Y0124691D01*
X0318752Y0124788D01*
X0318731Y0124884D01*
X0318706Y0124979D01*
X0318678Y0125073D01*
X0318645Y0125165D01*
X0318610Y0125257D01*
X0318570Y0125347D01*
X0318528Y0125435D01*
X0318481Y0125522D01*
X0318432Y0125606D01*
X0318379Y0125689D01*
X0318323Y0125769D01*
X0318263Y0125848D01*
X0318201Y0125924D01*
X0318136Y0125997D01*
X0318068Y0126068D01*
X0317997Y0126136D01*
X0317924Y0126201D01*
X0317848Y0126263D01*
X0317769Y0126323D01*
X0317689Y0126379D01*
X0317606Y0126432D01*
X0317522Y0126481D01*
X0317435Y0126528D01*
X0317347Y0126570D01*
X0317257Y0126610D01*
X0317165Y0126645D01*
X0317073Y0126678D01*
X0316979Y0126706D01*
X0316884Y0126731D01*
X0316788Y0126752D01*
X0316691Y0126769D01*
X0316594Y0126783D01*
X0316496Y0126792D01*
X0316398Y0126798D01*
X0316300Y0126800D01*
X0297300Y0126800D01*
X0297202Y0126798D01*
X0297104Y0126792D01*
X0297006Y0126783D01*
X0296909Y0126769D01*
X0296812Y0126752D01*
X0296716Y0126731D01*
X0296621Y0126706D01*
X0296527Y0126678D01*
X0296435Y0126645D01*
X0296343Y0126610D01*
X0296253Y0126570D01*
X0296165Y0126528D01*
X0296078Y0126481D01*
X0295994Y0126432D01*
X0295911Y0126379D01*
X0295831Y0126323D01*
X0295752Y0126263D01*
X0295676Y0126201D01*
X0295603Y0126136D01*
X0295532Y0126068D01*
X0295464Y0125997D01*
X0295399Y0125924D01*
X0295337Y0125848D01*
X0295277Y0125769D01*
X0295221Y0125689D01*
X0295168Y0125606D01*
X0295119Y0125522D01*
X0295072Y0125435D01*
X0295030Y0125347D01*
X0294990Y0125257D01*
X0294955Y0125165D01*
X0294922Y0125073D01*
X0294894Y0124979D01*
X0294869Y0124884D01*
X0294848Y0124788D01*
X0294831Y0124691D01*
X0294817Y0124594D01*
X0294808Y0124496D01*
X0294802Y0124398D01*
X0294800Y0124300D01*
X0279300Y0078800D02*
X0269300Y0078800D01*
X0269240Y0078798D01*
X0269179Y0078793D01*
X0269120Y0078784D01*
X0269061Y0078771D01*
X0269002Y0078755D01*
X0268945Y0078735D01*
X0268890Y0078712D01*
X0268835Y0078685D01*
X0268783Y0078656D01*
X0268732Y0078623D01*
X0268683Y0078587D01*
X0268637Y0078549D01*
X0268593Y0078507D01*
X0268551Y0078463D01*
X0268513Y0078417D01*
X0268477Y0078368D01*
X0268444Y0078317D01*
X0268415Y0078265D01*
X0268388Y0078210D01*
X0268365Y0078155D01*
X0268345Y0078098D01*
X0268329Y0078039D01*
X0268316Y0077980D01*
X0268307Y0077921D01*
X0268302Y0077860D01*
X0268300Y0077800D01*
X0268300Y0075300D01*
X0268800Y0074800D01*
X0268800Y0048800D01*
X0268300Y0048300D01*
X0268300Y0045800D01*
X0268302Y0045740D01*
X0268307Y0045679D01*
X0268316Y0045620D01*
X0268329Y0045561D01*
X0268345Y0045502D01*
X0268365Y0045445D01*
X0268388Y0045390D01*
X0268415Y0045335D01*
X0268444Y0045283D01*
X0268477Y0045232D01*
X0268513Y0045183D01*
X0268551Y0045137D01*
X0268593Y0045093D01*
X0268637Y0045051D01*
X0268683Y0045013D01*
X0268732Y0044977D01*
X0268783Y0044944D01*
X0268835Y0044915D01*
X0268890Y0044888D01*
X0268945Y0044865D01*
X0269002Y0044845D01*
X0269061Y0044829D01*
X0269120Y0044816D01*
X0269179Y0044807D01*
X0269240Y0044802D01*
X0269300Y0044800D01*
X0279300Y0044800D01*
X0279360Y0044802D01*
X0279421Y0044807D01*
X0279480Y0044816D01*
X0279539Y0044829D01*
X0279598Y0044845D01*
X0279655Y0044865D01*
X0279710Y0044888D01*
X0279765Y0044915D01*
X0279817Y0044944D01*
X0279868Y0044977D01*
X0279917Y0045013D01*
X0279963Y0045051D01*
X0280007Y0045093D01*
X0280049Y0045137D01*
X0280087Y0045183D01*
X0280123Y0045232D01*
X0280156Y0045283D01*
X0280185Y0045335D01*
X0280212Y0045390D01*
X0280235Y0045445D01*
X0280255Y0045502D01*
X0280271Y0045561D01*
X0280284Y0045620D01*
X0280293Y0045679D01*
X0280298Y0045740D01*
X0280300Y0045800D01*
X0280300Y0048300D01*
X0279800Y0048800D01*
X0279800Y0074800D01*
X0280300Y0075300D01*
X0280300Y0077800D01*
X0280298Y0077860D01*
X0280293Y0077921D01*
X0280284Y0077980D01*
X0280271Y0078039D01*
X0280255Y0078098D01*
X0280235Y0078155D01*
X0280212Y0078210D01*
X0280185Y0078265D01*
X0280156Y0078317D01*
X0280123Y0078368D01*
X0280087Y0078417D01*
X0280049Y0078463D01*
X0280007Y0078507D01*
X0279963Y0078549D01*
X0279917Y0078587D01*
X0279868Y0078623D01*
X0279817Y0078656D01*
X0279765Y0078685D01*
X0279710Y0078712D01*
X0279655Y0078735D01*
X0279598Y0078755D01*
X0279539Y0078771D01*
X0279480Y0078784D01*
X0279421Y0078793D01*
X0279360Y0078798D01*
X0279300Y0078800D01*
X0265300Y0077800D02*
X0265300Y0075300D01*
X0264800Y0074800D01*
X0264800Y0048800D01*
X0265300Y0048300D01*
X0265300Y0045800D01*
X0265298Y0045740D01*
X0265293Y0045679D01*
X0265284Y0045620D01*
X0265271Y0045561D01*
X0265255Y0045502D01*
X0265235Y0045445D01*
X0265212Y0045390D01*
X0265185Y0045335D01*
X0265156Y0045283D01*
X0265123Y0045232D01*
X0265087Y0045183D01*
X0265049Y0045137D01*
X0265007Y0045093D01*
X0264963Y0045051D01*
X0264917Y0045013D01*
X0264868Y0044977D01*
X0264817Y0044944D01*
X0264765Y0044915D01*
X0264710Y0044888D01*
X0264655Y0044865D01*
X0264598Y0044845D01*
X0264539Y0044829D01*
X0264480Y0044816D01*
X0264421Y0044807D01*
X0264360Y0044802D01*
X0264300Y0044800D01*
X0254300Y0044800D01*
X0254240Y0044802D01*
X0254179Y0044807D01*
X0254120Y0044816D01*
X0254061Y0044829D01*
X0254002Y0044845D01*
X0253945Y0044865D01*
X0253890Y0044888D01*
X0253835Y0044915D01*
X0253783Y0044944D01*
X0253732Y0044977D01*
X0253683Y0045013D01*
X0253637Y0045051D01*
X0253593Y0045093D01*
X0253551Y0045137D01*
X0253513Y0045183D01*
X0253477Y0045232D01*
X0253444Y0045283D01*
X0253415Y0045335D01*
X0253388Y0045390D01*
X0253365Y0045445D01*
X0253345Y0045502D01*
X0253329Y0045561D01*
X0253316Y0045620D01*
X0253307Y0045679D01*
X0253302Y0045740D01*
X0253300Y0045800D01*
X0253300Y0048300D01*
X0253800Y0048800D01*
X0253800Y0074800D01*
X0253300Y0075300D01*
X0253300Y0077800D01*
X0253302Y0077860D01*
X0253307Y0077921D01*
X0253316Y0077980D01*
X0253329Y0078039D01*
X0253345Y0078098D01*
X0253365Y0078155D01*
X0253388Y0078210D01*
X0253415Y0078265D01*
X0253444Y0078317D01*
X0253477Y0078368D01*
X0253513Y0078417D01*
X0253551Y0078463D01*
X0253593Y0078507D01*
X0253637Y0078549D01*
X0253683Y0078587D01*
X0253732Y0078623D01*
X0253783Y0078656D01*
X0253835Y0078685D01*
X0253890Y0078712D01*
X0253945Y0078735D01*
X0254002Y0078755D01*
X0254061Y0078771D01*
X0254120Y0078784D01*
X0254179Y0078793D01*
X0254240Y0078798D01*
X0254300Y0078800D01*
X0264300Y0078800D01*
X0264360Y0078798D01*
X0264421Y0078793D01*
X0264480Y0078784D01*
X0264539Y0078771D01*
X0264598Y0078755D01*
X0264655Y0078735D01*
X0264710Y0078712D01*
X0264765Y0078685D01*
X0264817Y0078656D01*
X0264868Y0078623D01*
X0264917Y0078587D01*
X0264963Y0078549D01*
X0265007Y0078507D01*
X0265049Y0078463D01*
X0265087Y0078417D01*
X0265123Y0078368D01*
X0265156Y0078317D01*
X0265185Y0078265D01*
X0265212Y0078210D01*
X0265235Y0078155D01*
X0265255Y0078098D01*
X0265271Y0078039D01*
X0265284Y0077980D01*
X0265293Y0077921D01*
X0265298Y0077860D01*
X0265300Y0077800D01*
X0250300Y0077800D02*
X0250300Y0075300D01*
X0249800Y0074800D01*
X0249800Y0048800D01*
X0250300Y0048300D01*
X0250300Y0045800D01*
X0250298Y0045740D01*
X0250293Y0045679D01*
X0250284Y0045620D01*
X0250271Y0045561D01*
X0250255Y0045502D01*
X0250235Y0045445D01*
X0250212Y0045390D01*
X0250185Y0045335D01*
X0250156Y0045283D01*
X0250123Y0045232D01*
X0250087Y0045183D01*
X0250049Y0045137D01*
X0250007Y0045093D01*
X0249963Y0045051D01*
X0249917Y0045013D01*
X0249868Y0044977D01*
X0249817Y0044944D01*
X0249765Y0044915D01*
X0249710Y0044888D01*
X0249655Y0044865D01*
X0249598Y0044845D01*
X0249539Y0044829D01*
X0249480Y0044816D01*
X0249421Y0044807D01*
X0249360Y0044802D01*
X0249300Y0044800D01*
X0239300Y0044800D01*
X0239240Y0044802D01*
X0239179Y0044807D01*
X0239120Y0044816D01*
X0239061Y0044829D01*
X0239002Y0044845D01*
X0238945Y0044865D01*
X0238890Y0044888D01*
X0238835Y0044915D01*
X0238783Y0044944D01*
X0238732Y0044977D01*
X0238683Y0045013D01*
X0238637Y0045051D01*
X0238593Y0045093D01*
X0238551Y0045137D01*
X0238513Y0045183D01*
X0238477Y0045232D01*
X0238444Y0045283D01*
X0238415Y0045335D01*
X0238388Y0045390D01*
X0238365Y0045445D01*
X0238345Y0045502D01*
X0238329Y0045561D01*
X0238316Y0045620D01*
X0238307Y0045679D01*
X0238302Y0045740D01*
X0238300Y0045800D01*
X0238300Y0048300D01*
X0238800Y0048800D01*
X0238800Y0074800D01*
X0238300Y0075300D01*
X0238300Y0077800D01*
X0238302Y0077860D01*
X0238307Y0077921D01*
X0238316Y0077980D01*
X0238329Y0078039D01*
X0238345Y0078098D01*
X0238365Y0078155D01*
X0238388Y0078210D01*
X0238415Y0078265D01*
X0238444Y0078317D01*
X0238477Y0078368D01*
X0238513Y0078417D01*
X0238551Y0078463D01*
X0238593Y0078507D01*
X0238637Y0078549D01*
X0238683Y0078587D01*
X0238732Y0078623D01*
X0238783Y0078656D01*
X0238835Y0078685D01*
X0238890Y0078712D01*
X0238945Y0078735D01*
X0239002Y0078755D01*
X0239061Y0078771D01*
X0239120Y0078784D01*
X0239179Y0078793D01*
X0239240Y0078798D01*
X0239300Y0078800D01*
X0249300Y0078800D01*
X0249360Y0078798D01*
X0249421Y0078793D01*
X0249480Y0078784D01*
X0249539Y0078771D01*
X0249598Y0078755D01*
X0249655Y0078735D01*
X0249710Y0078712D01*
X0249765Y0078685D01*
X0249817Y0078656D01*
X0249868Y0078623D01*
X0249917Y0078587D01*
X0249963Y0078549D01*
X0250007Y0078507D01*
X0250049Y0078463D01*
X0250087Y0078417D01*
X0250123Y0078368D01*
X0250156Y0078317D01*
X0250185Y0078265D01*
X0250212Y0078210D01*
X0250235Y0078155D01*
X0250255Y0078098D01*
X0250271Y0078039D01*
X0250284Y0077980D01*
X0250293Y0077921D01*
X0250298Y0077860D01*
X0250300Y0077800D01*
X0203300Y0076800D02*
X0195800Y0076800D01*
X0195798Y0076674D01*
X0195792Y0076549D01*
X0195782Y0076424D01*
X0195768Y0076299D01*
X0195751Y0076174D01*
X0195729Y0076050D01*
X0195704Y0075927D01*
X0195674Y0075805D01*
X0195641Y0075684D01*
X0195604Y0075564D01*
X0195564Y0075445D01*
X0195519Y0075328D01*
X0195471Y0075211D01*
X0195419Y0075097D01*
X0195364Y0074984D01*
X0195305Y0074873D01*
X0195243Y0074764D01*
X0195177Y0074657D01*
X0195108Y0074552D01*
X0195036Y0074449D01*
X0194961Y0074348D01*
X0194882Y0074250D01*
X0194800Y0074155D01*
X0194716Y0074062D01*
X0194628Y0073972D01*
X0194538Y0073884D01*
X0194445Y0073800D01*
X0194350Y0073718D01*
X0194252Y0073639D01*
X0194151Y0073564D01*
X0194048Y0073492D01*
X0193943Y0073423D01*
X0193836Y0073357D01*
X0193727Y0073295D01*
X0193616Y0073236D01*
X0193503Y0073181D01*
X0193389Y0073129D01*
X0193272Y0073081D01*
X0193155Y0073036D01*
X0193036Y0072996D01*
X0192916Y0072959D01*
X0192795Y0072926D01*
X0192673Y0072896D01*
X0192550Y0072871D01*
X0192426Y0072849D01*
X0192301Y0072832D01*
X0192176Y0072818D01*
X0192051Y0072808D01*
X0191926Y0072802D01*
X0191800Y0072800D01*
X0191674Y0072802D01*
X0191549Y0072808D01*
X0191424Y0072818D01*
X0191299Y0072832D01*
X0191174Y0072849D01*
X0191050Y0072871D01*
X0190927Y0072896D01*
X0190805Y0072926D01*
X0190684Y0072959D01*
X0190564Y0072996D01*
X0190445Y0073036D01*
X0190328Y0073081D01*
X0190211Y0073129D01*
X0190097Y0073181D01*
X0189984Y0073236D01*
X0189873Y0073295D01*
X0189764Y0073357D01*
X0189657Y0073423D01*
X0189552Y0073492D01*
X0189449Y0073564D01*
X0189348Y0073639D01*
X0189250Y0073718D01*
X0189155Y0073800D01*
X0189062Y0073884D01*
X0188972Y0073972D01*
X0188884Y0074062D01*
X0188800Y0074155D01*
X0188718Y0074250D01*
X0188639Y0074348D01*
X0188564Y0074449D01*
X0188492Y0074552D01*
X0188423Y0074657D01*
X0188357Y0074764D01*
X0188295Y0074873D01*
X0188236Y0074984D01*
X0188181Y0075097D01*
X0188129Y0075211D01*
X0188081Y0075328D01*
X0188036Y0075445D01*
X0187996Y0075564D01*
X0187959Y0075684D01*
X0187926Y0075805D01*
X0187896Y0075927D01*
X0187871Y0076050D01*
X0187849Y0076174D01*
X0187832Y0076299D01*
X0187818Y0076424D01*
X0187808Y0076549D01*
X0187802Y0076674D01*
X0187800Y0076800D01*
X0180300Y0076800D01*
X0180300Y0036800D01*
X0203300Y0036800D01*
X0203300Y0076800D01*
X0162800Y0067800D02*
X0162800Y0065300D01*
X0162300Y0064800D01*
X0162300Y0038800D01*
X0162800Y0038300D01*
X0162800Y0035800D01*
X0162798Y0035740D01*
X0162793Y0035679D01*
X0162784Y0035620D01*
X0162771Y0035561D01*
X0162755Y0035502D01*
X0162735Y0035445D01*
X0162712Y0035390D01*
X0162685Y0035335D01*
X0162656Y0035283D01*
X0162623Y0035232D01*
X0162587Y0035183D01*
X0162549Y0035137D01*
X0162507Y0035093D01*
X0162463Y0035051D01*
X0162417Y0035013D01*
X0162368Y0034977D01*
X0162317Y0034944D01*
X0162265Y0034915D01*
X0162210Y0034888D01*
X0162155Y0034865D01*
X0162098Y0034845D01*
X0162039Y0034829D01*
X0161980Y0034816D01*
X0161921Y0034807D01*
X0161860Y0034802D01*
X0161800Y0034800D01*
X0151800Y0034800D01*
X0151740Y0034802D01*
X0151679Y0034807D01*
X0151620Y0034816D01*
X0151561Y0034829D01*
X0151502Y0034845D01*
X0151445Y0034865D01*
X0151390Y0034888D01*
X0151335Y0034915D01*
X0151283Y0034944D01*
X0151232Y0034977D01*
X0151183Y0035013D01*
X0151137Y0035051D01*
X0151093Y0035093D01*
X0151051Y0035137D01*
X0151013Y0035183D01*
X0150977Y0035232D01*
X0150944Y0035283D01*
X0150915Y0035335D01*
X0150888Y0035390D01*
X0150865Y0035445D01*
X0150845Y0035502D01*
X0150829Y0035561D01*
X0150816Y0035620D01*
X0150807Y0035679D01*
X0150802Y0035740D01*
X0150800Y0035800D01*
X0150800Y0038300D01*
X0151300Y0038800D01*
X0151300Y0064800D01*
X0150800Y0065300D01*
X0150800Y0067800D01*
X0150802Y0067860D01*
X0150807Y0067921D01*
X0150816Y0067980D01*
X0150829Y0068039D01*
X0150845Y0068098D01*
X0150865Y0068155D01*
X0150888Y0068210D01*
X0150915Y0068265D01*
X0150944Y0068317D01*
X0150977Y0068368D01*
X0151013Y0068417D01*
X0151051Y0068463D01*
X0151093Y0068507D01*
X0151137Y0068549D01*
X0151183Y0068587D01*
X0151232Y0068623D01*
X0151283Y0068656D01*
X0151335Y0068685D01*
X0151390Y0068712D01*
X0151445Y0068735D01*
X0151502Y0068755D01*
X0151561Y0068771D01*
X0151620Y0068784D01*
X0151679Y0068793D01*
X0151740Y0068798D01*
X0151800Y0068800D01*
X0161800Y0068800D01*
X0161860Y0068798D01*
X0161921Y0068793D01*
X0161980Y0068784D01*
X0162039Y0068771D01*
X0162098Y0068755D01*
X0162155Y0068735D01*
X0162210Y0068712D01*
X0162265Y0068685D01*
X0162317Y0068656D01*
X0162368Y0068623D01*
X0162417Y0068587D01*
X0162463Y0068549D01*
X0162507Y0068507D01*
X0162549Y0068463D01*
X0162587Y0068417D01*
X0162623Y0068368D01*
X0162656Y0068317D01*
X0162685Y0068265D01*
X0162712Y0068210D01*
X0162735Y0068155D01*
X0162755Y0068098D01*
X0162771Y0068039D01*
X0162784Y0067980D01*
X0162793Y0067921D01*
X0162798Y0067860D01*
X0162800Y0067800D01*
X0138300Y0061800D02*
X0135300Y0061800D01*
X0136800Y0060300D02*
X0136800Y0063300D01*
X0126300Y0066800D02*
X0125300Y0066800D01*
X0125300Y0062300D01*
X0122800Y0062300D01*
X0122800Y0071300D01*
X0125300Y0071300D01*
X0125300Y0066800D01*
X0101800Y0066800D02*
X0101806Y0067291D01*
X0101824Y0067781D01*
X0101854Y0068271D01*
X0101896Y0068760D01*
X0101950Y0069248D01*
X0102016Y0069735D01*
X0102094Y0070219D01*
X0102184Y0070702D01*
X0102286Y0071182D01*
X0102399Y0071660D01*
X0102524Y0072134D01*
X0102661Y0072606D01*
X0102809Y0073074D01*
X0102969Y0073538D01*
X0103140Y0073998D01*
X0103322Y0074454D01*
X0103516Y0074905D01*
X0103720Y0075351D01*
X0103936Y0075792D01*
X0104162Y0076228D01*
X0104398Y0076658D01*
X0104645Y0077082D01*
X0104903Y0077500D01*
X0105171Y0077911D01*
X0105448Y0078316D01*
X0105736Y0078714D01*
X0106033Y0079105D01*
X0106340Y0079488D01*
X0106656Y0079863D01*
X0106981Y0080231D01*
X0107315Y0080591D01*
X0107658Y0080942D01*
X0108009Y0081285D01*
X0108369Y0081619D01*
X0108737Y0081944D01*
X0109112Y0082260D01*
X0109495Y0082567D01*
X0109886Y0082864D01*
X0110284Y0083152D01*
X0110689Y0083429D01*
X0111100Y0083697D01*
X0111518Y0083955D01*
X0111942Y0084202D01*
X0112372Y0084438D01*
X0112808Y0084664D01*
X0113249Y0084880D01*
X0113695Y0085084D01*
X0114146Y0085278D01*
X0114602Y0085460D01*
X0115062Y0085631D01*
X0115526Y0085791D01*
X0115994Y0085939D01*
X0116466Y0086076D01*
X0116940Y0086201D01*
X0117418Y0086314D01*
X0117898Y0086416D01*
X0118381Y0086506D01*
X0118865Y0086584D01*
X0119352Y0086650D01*
X0119840Y0086704D01*
X0120329Y0086746D01*
X0120819Y0086776D01*
X0121309Y0086794D01*
X0121800Y0086800D01*
X0122291Y0086794D01*
X0122781Y0086776D01*
X0123271Y0086746D01*
X0123760Y0086704D01*
X0124248Y0086650D01*
X0124735Y0086584D01*
X0125219Y0086506D01*
X0125702Y0086416D01*
X0126182Y0086314D01*
X0126660Y0086201D01*
X0127134Y0086076D01*
X0127606Y0085939D01*
X0128074Y0085791D01*
X0128538Y0085631D01*
X0128998Y0085460D01*
X0129454Y0085278D01*
X0129905Y0085084D01*
X0130351Y0084880D01*
X0130792Y0084664D01*
X0131228Y0084438D01*
X0131658Y0084202D01*
X0132082Y0083955D01*
X0132500Y0083697D01*
X0132911Y0083429D01*
X0133316Y0083152D01*
X0133714Y0082864D01*
X0134105Y0082567D01*
X0134488Y0082260D01*
X0134863Y0081944D01*
X0135231Y0081619D01*
X0135591Y0081285D01*
X0135942Y0080942D01*
X0136285Y0080591D01*
X0136619Y0080231D01*
X0136944Y0079863D01*
X0137260Y0079488D01*
X0137567Y0079105D01*
X0137864Y0078714D01*
X0138152Y0078316D01*
X0138429Y0077911D01*
X0138697Y0077500D01*
X0138955Y0077082D01*
X0139202Y0076658D01*
X0139438Y0076228D01*
X0139664Y0075792D01*
X0139880Y0075351D01*
X0140084Y0074905D01*
X0140278Y0074454D01*
X0140460Y0073998D01*
X0140631Y0073538D01*
X0140791Y0073074D01*
X0140939Y0072606D01*
X0141076Y0072134D01*
X0141201Y0071660D01*
X0141314Y0071182D01*
X0141416Y0070702D01*
X0141506Y0070219D01*
X0141584Y0069735D01*
X0141650Y0069248D01*
X0141704Y0068760D01*
X0141746Y0068271D01*
X0141776Y0067781D01*
X0141794Y0067291D01*
X0141800Y0066800D01*
X0141794Y0066309D01*
X0141776Y0065819D01*
X0141746Y0065329D01*
X0141704Y0064840D01*
X0141650Y0064352D01*
X0141584Y0063865D01*
X0141506Y0063381D01*
X0141416Y0062898D01*
X0141314Y0062418D01*
X0141201Y0061940D01*
X0141076Y0061466D01*
X0140939Y0060994D01*
X0140791Y0060526D01*
X0140631Y0060062D01*
X0140460Y0059602D01*
X0140278Y0059146D01*
X0140084Y0058695D01*
X0139880Y0058249D01*
X0139664Y0057808D01*
X0139438Y0057372D01*
X0139202Y0056942D01*
X0138955Y0056518D01*
X0138697Y0056100D01*
X0138429Y0055689D01*
X0138152Y0055284D01*
X0137864Y0054886D01*
X0137567Y0054495D01*
X0137260Y0054112D01*
X0136944Y0053737D01*
X0136619Y0053369D01*
X0136285Y0053009D01*
X0135942Y0052658D01*
X0135591Y0052315D01*
X0135231Y0051981D01*
X0134863Y0051656D01*
X0134488Y0051340D01*
X0134105Y0051033D01*
X0133714Y0050736D01*
X0133316Y0050448D01*
X0132911Y0050171D01*
X0132500Y0049903D01*
X0132082Y0049645D01*
X0131658Y0049398D01*
X0131228Y0049162D01*
X0130792Y0048936D01*
X0130351Y0048720D01*
X0129905Y0048516D01*
X0129454Y0048322D01*
X0128998Y0048140D01*
X0128538Y0047969D01*
X0128074Y0047809D01*
X0127606Y0047661D01*
X0127134Y0047524D01*
X0126660Y0047399D01*
X0126182Y0047286D01*
X0125702Y0047184D01*
X0125219Y0047094D01*
X0124735Y0047016D01*
X0124248Y0046950D01*
X0123760Y0046896D01*
X0123271Y0046854D01*
X0122781Y0046824D01*
X0122291Y0046806D01*
X0121800Y0046800D01*
X0121309Y0046806D01*
X0120819Y0046824D01*
X0120329Y0046854D01*
X0119840Y0046896D01*
X0119352Y0046950D01*
X0118865Y0047016D01*
X0118381Y0047094D01*
X0117898Y0047184D01*
X0117418Y0047286D01*
X0116940Y0047399D01*
X0116466Y0047524D01*
X0115994Y0047661D01*
X0115526Y0047809D01*
X0115062Y0047969D01*
X0114602Y0048140D01*
X0114146Y0048322D01*
X0113695Y0048516D01*
X0113249Y0048720D01*
X0112808Y0048936D01*
X0112372Y0049162D01*
X0111942Y0049398D01*
X0111518Y0049645D01*
X0111100Y0049903D01*
X0110689Y0050171D01*
X0110284Y0050448D01*
X0109886Y0050736D01*
X0109495Y0051033D01*
X0109112Y0051340D01*
X0108737Y0051656D01*
X0108369Y0051981D01*
X0108009Y0052315D01*
X0107658Y0052658D01*
X0107315Y0053009D01*
X0106981Y0053369D01*
X0106656Y0053737D01*
X0106340Y0054112D01*
X0106033Y0054495D01*
X0105736Y0054886D01*
X0105448Y0055284D01*
X0105171Y0055689D01*
X0104903Y0056100D01*
X0104645Y0056518D01*
X0104398Y0056942D01*
X0104162Y0057372D01*
X0103936Y0057808D01*
X0103720Y0058249D01*
X0103516Y0058695D01*
X0103322Y0059146D01*
X0103140Y0059602D01*
X0102969Y0060062D01*
X0102809Y0060526D01*
X0102661Y0060994D01*
X0102524Y0061466D01*
X0102399Y0061940D01*
X0102286Y0062418D01*
X0102184Y0062898D01*
X0102094Y0063381D01*
X0102016Y0063865D01*
X0101950Y0064352D01*
X0101896Y0064840D01*
X0101854Y0065329D01*
X0101824Y0065819D01*
X0101806Y0066309D01*
X0101800Y0066800D01*
X0117300Y0066800D02*
X0119300Y0066800D01*
X0108300Y0091800D02*
X0135300Y0091800D01*
X0135360Y0091802D01*
X0135421Y0091807D01*
X0135480Y0091816D01*
X0135539Y0091829D01*
X0135598Y0091845D01*
X0135655Y0091865D01*
X0135710Y0091888D01*
X0135765Y0091915D01*
X0135817Y0091944D01*
X0135868Y0091977D01*
X0135917Y0092013D01*
X0135963Y0092051D01*
X0136007Y0092093D01*
X0136049Y0092137D01*
X0136087Y0092183D01*
X0136123Y0092232D01*
X0136156Y0092283D01*
X0136185Y0092335D01*
X0136212Y0092390D01*
X0136235Y0092445D01*
X0136255Y0092502D01*
X0136271Y0092561D01*
X0136284Y0092620D01*
X0136293Y0092679D01*
X0136298Y0092740D01*
X0136300Y0092800D01*
X0136300Y0100800D01*
X0136298Y0100860D01*
X0136293Y0100921D01*
X0136284Y0100980D01*
X0136271Y0101039D01*
X0136255Y0101098D01*
X0136235Y0101155D01*
X0136212Y0101210D01*
X0136185Y0101265D01*
X0136156Y0101317D01*
X0136123Y0101368D01*
X0136087Y0101417D01*
X0136049Y0101463D01*
X0136007Y0101507D01*
X0135963Y0101549D01*
X0135917Y0101587D01*
X0135868Y0101623D01*
X0135817Y0101656D01*
X0135765Y0101685D01*
X0135710Y0101712D01*
X0135655Y0101735D01*
X0135598Y0101755D01*
X0135539Y0101771D01*
X0135480Y0101784D01*
X0135421Y0101793D01*
X0135360Y0101798D01*
X0135300Y0101800D01*
X0108300Y0101800D01*
X0108240Y0101798D01*
X0108179Y0101793D01*
X0108120Y0101784D01*
X0108061Y0101771D01*
X0108002Y0101755D01*
X0107945Y0101735D01*
X0107890Y0101712D01*
X0107835Y0101685D01*
X0107783Y0101656D01*
X0107732Y0101623D01*
X0107683Y0101587D01*
X0107637Y0101549D01*
X0107593Y0101507D01*
X0107551Y0101463D01*
X0107513Y0101417D01*
X0107477Y0101368D01*
X0107444Y0101317D01*
X0107415Y0101265D01*
X0107388Y0101210D01*
X0107365Y0101155D01*
X0107345Y0101098D01*
X0107329Y0101039D01*
X0107316Y0100980D01*
X0107307Y0100921D01*
X0107302Y0100860D01*
X0107300Y0100800D01*
X0107300Y0092800D01*
X0107302Y0092740D01*
X0107307Y0092679D01*
X0107316Y0092620D01*
X0107329Y0092561D01*
X0107345Y0092502D01*
X0107365Y0092445D01*
X0107388Y0092390D01*
X0107415Y0092335D01*
X0107444Y0092283D01*
X0107477Y0092232D01*
X0107513Y0092183D01*
X0107551Y0092137D01*
X0107593Y0092093D01*
X0107637Y0092051D01*
X0107683Y0092013D01*
X0107732Y0091977D01*
X0107783Y0091944D01*
X0107835Y0091915D01*
X0107890Y0091888D01*
X0107945Y0091865D01*
X0108002Y0091845D01*
X0108061Y0091829D01*
X0108120Y0091816D01*
X0108179Y0091807D01*
X0108240Y0091802D01*
X0108300Y0091800D01*
X0115800Y0096800D02*
X0120500Y0096800D01*
X0123000Y0096800D02*
X0127800Y0096800D01*
X0129300Y0111800D02*
X0114300Y0111800D01*
X0111800Y0114300D01*
X0111800Y0119300D01*
X0114300Y0121800D01*
X0111800Y0124300D01*
X0111800Y0129300D01*
X0114300Y0131800D01*
X0111800Y0134300D01*
X0111800Y0139300D01*
X0114300Y0141800D01*
X0111800Y0144300D01*
X0111800Y0149300D01*
X0114300Y0151800D01*
X0129300Y0151800D01*
X0131800Y0149300D01*
X0131800Y0144300D01*
X0129300Y0141800D01*
X0131800Y0139300D01*
X0131800Y0134300D01*
X0129300Y0131800D01*
X0131800Y0129300D01*
X0131800Y0124300D01*
X0129300Y0121800D01*
X0131800Y0119300D01*
X0131800Y0114300D01*
X0129300Y0111800D01*
X0109000Y0114600D02*
X0104730Y0114600D01*
X0102595Y0116735D01*
X0104730Y0118870D01*
X0109000Y0118870D01*
X0105797Y0118870D02*
X0105797Y0114600D01*
X0105797Y0124600D02*
X0105797Y0127803D01*
X0106865Y0128870D01*
X0107932Y0128870D01*
X0109000Y0127803D01*
X0109000Y0124600D01*
X0102595Y0124600D01*
X0102595Y0127803D01*
X0103662Y0128870D01*
X0104730Y0128870D01*
X0105797Y0127803D01*
X0103662Y0134600D02*
X0102595Y0135668D01*
X0102595Y0137803D01*
X0103662Y0138870D01*
X0107932Y0138870D02*
X0109000Y0137803D01*
X0109000Y0135668D01*
X0107932Y0134600D01*
X0103662Y0134600D01*
X0102595Y0144600D02*
X0102595Y0147803D01*
X0103662Y0148870D01*
X0107932Y0148870D01*
X0109000Y0147803D01*
X0109000Y0144600D01*
X0102595Y0144600D01*
X0096800Y0146800D02*
X0087800Y0146800D01*
X0086800Y0147800D01*
X0085800Y0146800D01*
X0077800Y0146800D01*
X0076800Y0147800D01*
X0075800Y0146800D01*
X0067800Y0146800D01*
X0066800Y0147800D01*
X0065800Y0146800D01*
X0057800Y0146800D01*
X0056800Y0147800D01*
X0055800Y0146800D01*
X0047800Y0146800D01*
X0046800Y0147800D01*
X0045800Y0146800D01*
X0037800Y0146800D01*
X0036800Y0147800D01*
X0035800Y0146800D01*
X0026800Y0146800D01*
X0026800Y0156800D01*
X0035800Y0156800D01*
X0036800Y0155800D01*
X0037800Y0156800D01*
X0045800Y0156800D01*
X0046800Y0155800D01*
X0047800Y0156800D01*
X0055800Y0156800D01*
X0056800Y0155800D01*
X0057800Y0156800D01*
X0065800Y0156800D01*
X0066800Y0155800D01*
X0067800Y0156800D01*
X0075800Y0156800D01*
X0076800Y0155800D01*
X0077800Y0156800D01*
X0085800Y0156800D01*
X0086800Y0155800D01*
X0087800Y0156800D01*
X0096800Y0156800D01*
X0096800Y0146800D01*
X0076300Y0139300D02*
X0076300Y0129300D01*
X0076298Y0129240D01*
X0076293Y0129179D01*
X0076284Y0129120D01*
X0076271Y0129061D01*
X0076255Y0129002D01*
X0076235Y0128945D01*
X0076212Y0128890D01*
X0076185Y0128835D01*
X0076156Y0128783D01*
X0076123Y0128732D01*
X0076087Y0128683D01*
X0076049Y0128637D01*
X0076007Y0128593D01*
X0075963Y0128551D01*
X0075917Y0128513D01*
X0075868Y0128477D01*
X0075817Y0128444D01*
X0075765Y0128415D01*
X0075710Y0128388D01*
X0075655Y0128365D01*
X0075598Y0128345D01*
X0075539Y0128329D01*
X0075480Y0128316D01*
X0075421Y0128307D01*
X0075360Y0128302D01*
X0075300Y0128300D01*
X0072800Y0128300D01*
X0072300Y0128800D01*
X0046300Y0128800D01*
X0045800Y0128300D01*
X0043300Y0128300D01*
X0043240Y0128302D01*
X0043179Y0128307D01*
X0043120Y0128316D01*
X0043061Y0128329D01*
X0043002Y0128345D01*
X0042945Y0128365D01*
X0042890Y0128388D01*
X0042835Y0128415D01*
X0042783Y0128444D01*
X0042732Y0128477D01*
X0042683Y0128513D01*
X0042637Y0128551D01*
X0042593Y0128593D01*
X0042551Y0128637D01*
X0042513Y0128683D01*
X0042477Y0128732D01*
X0042444Y0128783D01*
X0042415Y0128835D01*
X0042388Y0128890D01*
X0042365Y0128945D01*
X0042345Y0129002D01*
X0042329Y0129061D01*
X0042316Y0129120D01*
X0042307Y0129179D01*
X0042302Y0129240D01*
X0042300Y0129300D01*
X0042300Y0139300D01*
X0042302Y0139360D01*
X0042307Y0139421D01*
X0042316Y0139480D01*
X0042329Y0139539D01*
X0042345Y0139598D01*
X0042365Y0139655D01*
X0042388Y0139710D01*
X0042415Y0139765D01*
X0042444Y0139817D01*
X0042477Y0139868D01*
X0042513Y0139917D01*
X0042551Y0139963D01*
X0042593Y0140007D01*
X0042637Y0140049D01*
X0042683Y0140087D01*
X0042732Y0140123D01*
X0042783Y0140156D01*
X0042835Y0140185D01*
X0042890Y0140212D01*
X0042945Y0140235D01*
X0043002Y0140255D01*
X0043061Y0140271D01*
X0043120Y0140284D01*
X0043179Y0140293D01*
X0043240Y0140298D01*
X0043300Y0140300D01*
X0045800Y0140300D01*
X0046300Y0139800D01*
X0072300Y0139800D01*
X0072800Y0140300D01*
X0075300Y0140300D01*
X0075360Y0140298D01*
X0075421Y0140293D01*
X0075480Y0140284D01*
X0075539Y0140271D01*
X0075598Y0140255D01*
X0075655Y0140235D01*
X0075710Y0140212D01*
X0075765Y0140185D01*
X0075817Y0140156D01*
X0075868Y0140123D01*
X0075917Y0140087D01*
X0075963Y0140049D01*
X0076007Y0140007D01*
X0076049Y0139963D01*
X0076087Y0139917D01*
X0076123Y0139868D01*
X0076156Y0139817D01*
X0076185Y0139765D01*
X0076212Y0139710D01*
X0076235Y0139655D01*
X0076255Y0139598D01*
X0076271Y0139539D01*
X0076284Y0139480D01*
X0076293Y0139421D01*
X0076298Y0139360D01*
X0076300Y0139300D01*
X0161398Y0140671D02*
X0161398Y0141539D01*
X0161398Y0141105D02*
X0164000Y0141105D01*
X0164000Y0140671D02*
X0164000Y0141539D01*
X0163566Y0142636D02*
X0164000Y0143069D01*
X0164000Y0143937D01*
X0163566Y0144370D01*
X0164000Y0145582D02*
X0164000Y0147317D01*
X0164000Y0146450D02*
X0161398Y0146450D01*
X0162265Y0145582D01*
X0161831Y0144370D02*
X0161398Y0143937D01*
X0161398Y0143069D01*
X0161831Y0142636D01*
X0163566Y0142636D01*
X0146800Y0026800D02*
X0137800Y0026800D01*
X0136800Y0025800D01*
X0135800Y0026800D01*
X0127800Y0026800D01*
X0126800Y0025800D01*
X0125800Y0026800D01*
X0117800Y0026800D01*
X0116800Y0025800D01*
X0115800Y0026800D01*
X0107800Y0026800D01*
X0106800Y0025800D01*
X0105800Y0026800D01*
X0096800Y0026800D01*
X0096800Y0016800D01*
X0105800Y0016800D01*
X0106800Y0017800D01*
X0107800Y0016800D01*
X0115800Y0016800D01*
X0116800Y0017800D01*
X0117800Y0016800D01*
X0125800Y0016800D01*
X0126800Y0017800D01*
X0127800Y0016800D01*
X0135800Y0016800D01*
X0136800Y0017800D01*
X0137800Y0016800D01*
X0146800Y0016800D01*
X0146800Y0026800D01*
X0181800Y0026800D02*
X0181800Y0016800D01*
X0190800Y0016800D01*
X0191800Y0017800D01*
X0192800Y0016800D01*
X0200800Y0016800D01*
X0201800Y0017800D01*
X0202800Y0016800D01*
X0210800Y0016800D01*
X0211800Y0017800D01*
X0212800Y0016800D01*
X0220800Y0016800D01*
X0221800Y0017800D01*
X0222800Y0016800D01*
X0230800Y0016800D01*
X0231800Y0017800D01*
X0232800Y0016800D01*
X0241800Y0016800D01*
X0241800Y0026800D01*
X0232800Y0026800D01*
X0231800Y0025800D01*
X0230800Y0026800D01*
X0222800Y0026800D01*
X0221800Y0025800D01*
X0220800Y0026800D01*
X0212800Y0026800D01*
X0211800Y0025800D01*
X0210800Y0026800D01*
X0202800Y0026800D01*
X0201800Y0025800D01*
X0200800Y0026800D01*
X0192800Y0026800D01*
X0191800Y0025800D01*
X0190800Y0026800D01*
X0181800Y0026800D01*
D12*
X0236248Y0032950D02*
X0236248Y0034401D01*
X0236731Y0034885D01*
X0237699Y0034885D01*
X0238183Y0034401D01*
X0238183Y0032950D01*
X0239150Y0032950D02*
X0236248Y0032950D01*
X0238183Y0033917D02*
X0239150Y0034885D01*
X0238666Y0035897D02*
X0238183Y0035897D01*
X0237699Y0036380D01*
X0237699Y0037348D01*
X0238183Y0037831D01*
X0238666Y0037831D01*
X0239150Y0037348D01*
X0239150Y0036380D01*
X0238666Y0035897D01*
X0237699Y0036380D02*
X0237215Y0035897D01*
X0236731Y0035897D01*
X0236248Y0036380D01*
X0236248Y0037348D01*
X0236731Y0037831D01*
X0237215Y0037831D01*
X0237699Y0037348D01*
X0251248Y0037348D02*
X0251731Y0037831D01*
X0252215Y0037831D01*
X0252699Y0037348D01*
X0253183Y0037831D01*
X0253666Y0037831D01*
X0254150Y0037348D01*
X0254150Y0036380D01*
X0253666Y0035897D01*
X0254150Y0034885D02*
X0253183Y0033917D01*
X0253183Y0034401D02*
X0253183Y0032950D01*
X0254150Y0032950D02*
X0251248Y0032950D01*
X0251248Y0034401D01*
X0251731Y0034885D01*
X0252699Y0034885D01*
X0253183Y0034401D01*
X0251731Y0035897D02*
X0251248Y0036380D01*
X0251248Y0037348D01*
X0252699Y0037348D02*
X0252699Y0036864D01*
X0266248Y0037348D02*
X0267699Y0035897D01*
X0267699Y0037831D01*
X0269150Y0037348D02*
X0266248Y0037348D01*
X0266731Y0034885D02*
X0267699Y0034885D01*
X0268183Y0034401D01*
X0268183Y0032950D01*
X0269150Y0032950D02*
X0266248Y0032950D01*
X0266248Y0034401D01*
X0266731Y0034885D01*
X0268183Y0033917D02*
X0269150Y0034885D01*
X0303594Y0071250D02*
X0304562Y0071250D01*
X0305045Y0071734D01*
X0305045Y0072701D01*
X0304078Y0072701D01*
X0303110Y0071734D02*
X0303594Y0071250D01*
X0303110Y0071734D02*
X0303110Y0073669D01*
X0303594Y0074152D01*
X0304562Y0074152D01*
X0305045Y0073669D01*
X0306057Y0074152D02*
X0307992Y0071250D01*
X0307992Y0074152D01*
X0309003Y0074152D02*
X0310455Y0074152D01*
X0310938Y0073669D01*
X0310938Y0071734D01*
X0310455Y0071250D01*
X0309003Y0071250D01*
X0309003Y0074152D01*
X0306057Y0074152D02*
X0306057Y0071250D01*
X0204796Y0077950D02*
X0202861Y0077950D01*
X0204796Y0079885D01*
X0204796Y0080369D01*
X0204312Y0080852D01*
X0203345Y0080852D01*
X0202861Y0080369D01*
X0201849Y0080369D02*
X0201366Y0080852D01*
X0200398Y0080852D01*
X0199914Y0080369D01*
X0199914Y0078434D01*
X0200398Y0077950D01*
X0201366Y0077950D01*
X0201849Y0078434D01*
X0198917Y0077950D02*
X0197950Y0077950D01*
X0198434Y0077950D02*
X0198434Y0080852D01*
X0198917Y0080852D02*
X0197950Y0080852D01*
X0164150Y0075331D02*
X0164150Y0073397D01*
X0162215Y0075331D01*
X0161731Y0075331D01*
X0161248Y0074848D01*
X0161248Y0073880D01*
X0161731Y0073397D01*
X0161731Y0072385D02*
X0162699Y0072385D01*
X0163183Y0071901D01*
X0163183Y0070450D01*
X0164150Y0070450D02*
X0161248Y0070450D01*
X0161248Y0071901D01*
X0161731Y0072385D01*
X0163183Y0071417D02*
X0164150Y0072385D01*
X0141350Y0095041D02*
X0140866Y0094557D01*
X0138931Y0094557D01*
X0138448Y0095041D01*
X0138448Y0096008D01*
X0138931Y0096492D01*
X0138931Y0097503D02*
X0138448Y0097987D01*
X0138448Y0098955D01*
X0138931Y0099438D01*
X0139415Y0099438D01*
X0141350Y0097503D01*
X0141350Y0099438D01*
X0140866Y0096492D02*
X0141350Y0096008D01*
X0141350Y0095041D01*
X0100650Y0067438D02*
X0100650Y0065503D01*
X0100650Y0066471D02*
X0097748Y0066471D01*
X0098715Y0065503D01*
X0098231Y0064492D02*
X0097748Y0064008D01*
X0097748Y0063041D01*
X0098231Y0062557D01*
X0100166Y0062557D01*
X0100650Y0063041D01*
X0100650Y0064008D01*
X0100166Y0064492D01*
X0029150Y0130450D02*
X0026248Y0130450D01*
X0026248Y0131901D01*
X0026731Y0132385D01*
X0027699Y0132385D01*
X0028183Y0131901D01*
X0028183Y0130450D01*
X0028183Y0131417D02*
X0029150Y0132385D01*
X0028666Y0133397D02*
X0029150Y0133880D01*
X0029150Y0134848D01*
X0028666Y0135331D01*
X0028183Y0135331D01*
X0027699Y0134848D01*
X0027699Y0133397D01*
X0028666Y0133397D01*
X0027699Y0133397D02*
X0026731Y0134364D01*
X0026248Y0135331D01*
X0030417Y0141950D02*
X0030417Y0144852D01*
X0029450Y0144852D02*
X0031385Y0144852D01*
X0032397Y0144852D02*
X0034331Y0141950D01*
X0032397Y0141950D02*
X0034331Y0144852D01*
X0039450Y0144852D02*
X0040901Y0144852D01*
X0041385Y0144369D01*
X0041385Y0143401D01*
X0040901Y0142917D01*
X0039450Y0142917D01*
X0039450Y0141950D02*
X0039450Y0144852D01*
X0040417Y0142917D02*
X0041385Y0141950D01*
X0042397Y0141950D02*
X0044331Y0144852D01*
X0042397Y0144852D02*
X0044331Y0141950D01*
X0049450Y0141950D02*
X0049450Y0144852D01*
X0050417Y0143885D01*
X0051385Y0144852D01*
X0051385Y0141950D01*
X0052397Y0142434D02*
X0052397Y0144369D01*
X0052880Y0144852D01*
X0053848Y0144852D01*
X0054331Y0144369D01*
X0054331Y0142434D01*
X0053848Y0141950D01*
X0052880Y0141950D01*
X0052397Y0142434D01*
X0059450Y0141950D02*
X0059450Y0144852D01*
X0060417Y0143885D01*
X0061385Y0144852D01*
X0061385Y0141950D01*
X0062397Y0141950D02*
X0063364Y0141950D01*
X0062880Y0141950D02*
X0062880Y0144852D01*
X0062397Y0144852D02*
X0063364Y0144852D01*
X0079450Y0144852D02*
X0079450Y0143401D01*
X0080417Y0143885D01*
X0080901Y0143885D01*
X0081385Y0143401D01*
X0081385Y0142434D01*
X0080901Y0141950D01*
X0079934Y0141950D01*
X0079450Y0142434D01*
X0082397Y0142917D02*
X0083364Y0141950D01*
X0084331Y0142917D01*
X0084331Y0144852D01*
X0082397Y0144852D02*
X0082397Y0142917D01*
X0081385Y0144852D02*
X0079450Y0144852D01*
X0089450Y0144369D02*
X0089450Y0142434D01*
X0089934Y0141950D01*
X0090901Y0141950D01*
X0091385Y0142434D01*
X0091385Y0143401D01*
X0090417Y0143401D01*
X0089450Y0144369D02*
X0089934Y0144852D01*
X0090901Y0144852D01*
X0091385Y0144369D01*
X0241248Y0136864D02*
X0244150Y0136864D01*
X0244150Y0135897D02*
X0244150Y0137831D01*
X0242215Y0135897D02*
X0241248Y0136864D01*
X0241731Y0134885D02*
X0242699Y0134885D01*
X0243183Y0134401D01*
X0243183Y0132950D01*
X0244150Y0132950D02*
X0241248Y0132950D01*
X0241248Y0134401D01*
X0241731Y0134885D01*
X0243183Y0133917D02*
X0244150Y0134885D01*
X0256248Y0134401D02*
X0256248Y0132950D01*
X0259150Y0132950D01*
X0258183Y0132950D02*
X0258183Y0134401D01*
X0257699Y0134885D01*
X0256731Y0134885D01*
X0256248Y0134401D01*
X0256248Y0135897D02*
X0257699Y0135897D01*
X0257215Y0136864D01*
X0257215Y0137348D01*
X0257699Y0137831D01*
X0258666Y0137831D01*
X0259150Y0137348D01*
X0259150Y0136380D01*
X0258666Y0135897D01*
X0259150Y0134885D02*
X0258183Y0133917D01*
X0256248Y0135897D02*
X0256248Y0137831D01*
X0271248Y0137831D02*
X0271248Y0135897D01*
X0271731Y0134885D02*
X0272699Y0134885D01*
X0273183Y0134401D01*
X0273183Y0132950D01*
X0274150Y0132950D02*
X0271248Y0132950D01*
X0271248Y0134401D01*
X0271731Y0134885D01*
X0273183Y0133917D02*
X0274150Y0134885D01*
X0274150Y0135897D02*
X0273666Y0135897D01*
X0271731Y0137831D01*
X0271248Y0137831D01*
X0304450Y0132352D02*
X0304450Y0130901D01*
X0305417Y0131385D01*
X0305901Y0131385D01*
X0306385Y0130901D01*
X0306385Y0129934D01*
X0305901Y0129450D01*
X0304934Y0129450D01*
X0304450Y0129934D01*
X0307397Y0130417D02*
X0308364Y0129450D01*
X0309331Y0130417D01*
X0309331Y0132352D01*
X0307397Y0132352D02*
X0307397Y0130417D01*
X0306385Y0132352D02*
X0304450Y0132352D01*
D13*
X0032767Y0019500D02*
X0032000Y0020267D01*
X0032767Y0019500D02*
X0034302Y0019500D01*
X0035069Y0020267D01*
X0035069Y0021035D01*
X0034302Y0021802D01*
X0032767Y0021802D01*
X0032000Y0022569D01*
X0032000Y0023337D01*
X0032767Y0024104D01*
X0034302Y0024104D01*
X0035069Y0023337D01*
X0036604Y0024104D02*
X0038139Y0024104D01*
X0037371Y0024104D02*
X0037371Y0019500D01*
X0036604Y0019500D02*
X0038139Y0019500D01*
X0039673Y0019500D02*
X0042742Y0024104D01*
X0044277Y0024104D02*
X0046579Y0024104D01*
X0047346Y0023337D01*
X0047346Y0022569D01*
X0046579Y0021802D01*
X0044277Y0021802D01*
X0044277Y0019500D02*
X0044277Y0024104D01*
X0046579Y0021802D02*
X0047346Y0021035D01*
X0047346Y0020267D01*
X0046579Y0019500D01*
X0044277Y0019500D01*
X0042742Y0019500D02*
X0039673Y0024104D01*
X0048881Y0024104D02*
X0048881Y0023337D01*
X0050416Y0021802D01*
X0050416Y0019500D01*
X0053485Y0019500D02*
X0053485Y0024104D01*
X0056554Y0019500D01*
X0056554Y0024104D01*
X0058089Y0024104D02*
X0059624Y0024104D01*
X0058856Y0024104D02*
X0058856Y0019500D01*
X0058089Y0019500D02*
X0059624Y0019500D01*
X0061158Y0019500D02*
X0061158Y0024104D01*
X0064227Y0019500D01*
X0064227Y0024104D01*
X0065762Y0024104D02*
X0065762Y0019500D01*
X0068831Y0019500D01*
X0067297Y0021802D02*
X0065762Y0021802D01*
X0065762Y0024104D02*
X0068831Y0024104D01*
X0074970Y0023337D02*
X0075737Y0024104D01*
X0077272Y0024104D01*
X0078039Y0023337D01*
X0078039Y0022569D01*
X0074970Y0019500D01*
X0078039Y0019500D01*
X0079574Y0020267D02*
X0080341Y0019500D01*
X0081876Y0019500D01*
X0082643Y0020267D01*
X0082643Y0023337D01*
X0079574Y0020267D01*
X0079574Y0023337D01*
X0080341Y0024104D01*
X0081876Y0024104D01*
X0082643Y0023337D01*
X0084178Y0023337D02*
X0084945Y0024104D01*
X0086480Y0024104D01*
X0087247Y0023337D01*
X0087247Y0022569D01*
X0084178Y0019500D01*
X0087247Y0019500D01*
X0088782Y0019500D02*
X0091851Y0022569D01*
X0091851Y0023337D01*
X0091084Y0024104D01*
X0089549Y0024104D01*
X0088782Y0023337D01*
X0088782Y0019500D02*
X0091851Y0019500D01*
X0051950Y0023337D02*
X0051950Y0024104D01*
X0051950Y0023337D02*
X0050416Y0021802D01*
X0068015Y0119500D02*
X0069550Y0121035D01*
X0069550Y0124104D01*
X0071084Y0122569D02*
X0072619Y0124104D01*
X0074154Y0122569D01*
X0074154Y0119500D01*
X0075688Y0119500D02*
X0078757Y0119500D01*
X0080292Y0120267D02*
X0081059Y0119500D01*
X0082594Y0119500D01*
X0083361Y0120267D01*
X0083361Y0124104D01*
X0084896Y0124104D02*
X0084896Y0119500D01*
X0087965Y0119500D01*
X0086431Y0121802D02*
X0084896Y0121802D01*
X0084896Y0124104D02*
X0087965Y0124104D01*
X0080292Y0124104D02*
X0080292Y0120267D01*
X0075688Y0119500D02*
X0075688Y0124104D01*
X0074154Y0121802D02*
X0071084Y0121802D01*
X0071084Y0122569D02*
X0071084Y0119500D01*
X0068015Y0119500D02*
X0066480Y0121035D01*
X0066480Y0124104D01*
D14*
X0079300Y0126800D02*
X0031800Y0126800D01*
X0031800Y0119300D01*
X0039300Y0116800D01*
X0079300Y0116800D01*
X0079300Y0126800D01*
X0079300Y0116800D02*
X0081800Y0116800D01*
X0081800Y0061800D01*
X0021800Y0061800D01*
X0021800Y0116800D01*
X0021800Y0119300D01*
X0031800Y0119300D01*
X0021800Y0116800D02*
X0011800Y0116800D01*
X0011800Y0036800D01*
X0091800Y0036800D01*
X0091800Y0116800D01*
X0081800Y0116800D01*
X0133546Y0116551D02*
X0135047Y0115050D01*
X0133546Y0116551D02*
X0138050Y0116551D01*
X0138050Y0115050D02*
X0138050Y0118053D01*
X0137047Y0122050D02*
X0136297Y0122050D01*
X0135546Y0122801D01*
X0135546Y0124302D01*
X0136297Y0125053D01*
X0137798Y0124302D02*
X0138549Y0125053D01*
X0139299Y0125053D01*
X0140050Y0124302D01*
X0140050Y0122801D01*
X0139299Y0122050D01*
X0137798Y0122801D02*
X0137798Y0124302D01*
X0137798Y0122801D02*
X0137047Y0122050D01*
X0137798Y0126654D02*
X0137798Y0128155D01*
X0135546Y0126654D02*
X0140050Y0126654D01*
X0140050Y0129656D01*
X0140050Y0131258D02*
X0135546Y0131258D01*
X0135546Y0129656D02*
X0135546Y0126654D01*
X0140050Y0131258D02*
X0140050Y0134260D01*
X0140050Y0135862D02*
X0135546Y0135862D01*
X0135546Y0138864D01*
X0136297Y0140466D02*
X0139299Y0140466D01*
X0140050Y0141216D01*
X0140050Y0142718D01*
X0139299Y0143468D01*
X0136297Y0143468D02*
X0135546Y0142718D01*
X0135546Y0141216D01*
X0136297Y0140466D01*
X0140050Y0138864D02*
X0140050Y0135862D01*
X0137798Y0135862D02*
X0137798Y0137363D01*
X0135546Y0145070D02*
X0135546Y0148072D01*
X0135546Y0146571D02*
X0140050Y0146571D01*
X0110050Y0147801D02*
X0109299Y0147050D01*
X0108549Y0147050D01*
X0107798Y0147801D01*
X0107798Y0149302D01*
X0108549Y0150053D01*
X0109299Y0150053D01*
X0110050Y0149302D01*
X0110050Y0147801D01*
X0107798Y0147801D02*
X0107047Y0147050D01*
X0106297Y0147050D01*
X0105546Y0147801D01*
X0105546Y0149302D01*
X0106297Y0150053D01*
X0107047Y0150053D01*
X0107798Y0149302D01*
X0093053Y0161803D02*
X0090050Y0158801D01*
X0090050Y0158050D01*
X0093053Y0161803D02*
X0093053Y0162554D01*
X0090050Y0162554D01*
X0033053Y0158050D02*
X0030050Y0158050D01*
X0031551Y0158050D02*
X0031551Y0162554D01*
X0030050Y0161053D01*
X0278546Y0111010D02*
X0278546Y0108758D01*
X0283050Y0108758D01*
X0281549Y0108758D02*
X0281549Y0111010D01*
X0280798Y0111760D01*
X0279297Y0111760D01*
X0278546Y0111010D01*
X0281549Y0110259D02*
X0283050Y0111760D01*
X0283050Y0107156D02*
X0278546Y0107156D01*
X0278546Y0104154D02*
X0283050Y0104154D01*
X0281549Y0105655D01*
X0283050Y0107156D01*
X0280798Y0102553D02*
X0279297Y0102553D01*
X0278546Y0101802D01*
X0278546Y0099550D01*
X0283050Y0099550D01*
X0281549Y0099550D02*
X0281549Y0101802D01*
X0280798Y0102553D01*
X0289297Y0083949D02*
X0292299Y0080946D01*
X0293050Y0081697D01*
X0293050Y0083198D01*
X0292299Y0083949D01*
X0289297Y0083949D01*
X0288546Y0083198D01*
X0288546Y0081697D01*
X0289297Y0080946D01*
X0292299Y0080946D01*
X0293050Y0079345D02*
X0293050Y0076342D01*
X0293050Y0077843D02*
X0288546Y0077843D01*
X0290047Y0076342D01*
X0322047Y0118946D02*
X0320546Y0120447D01*
X0325050Y0120447D01*
X0325050Y0118946D02*
X0325050Y0121949D01*
X0238328Y0033054D02*
X0236827Y0033054D01*
X0237578Y0033054D02*
X0237578Y0028550D01*
X0238328Y0028550D02*
X0236827Y0028550D01*
X0235226Y0029301D02*
X0235226Y0032303D01*
X0234475Y0033054D01*
X0232223Y0033054D01*
X0232223Y0028550D01*
X0234475Y0028550D01*
X0235226Y0029301D01*
X0230655Y0028550D02*
X0229154Y0028550D01*
X0229905Y0028550D02*
X0229905Y0033054D01*
X0230655Y0033054D02*
X0229154Y0033054D01*
X0227553Y0033054D02*
X0226051Y0031553D01*
X0224550Y0033054D01*
X0224550Y0028550D01*
X0227553Y0028550D02*
X0227553Y0033054D01*
X0235947Y0015554D02*
X0235947Y0011050D01*
X0234446Y0011050D02*
X0237449Y0011050D01*
X0234446Y0014053D02*
X0235947Y0015554D01*
X0187449Y0015554D02*
X0185947Y0014803D01*
X0184446Y0013302D01*
X0186698Y0013302D01*
X0187449Y0012551D01*
X0187449Y0011801D01*
X0186698Y0011050D01*
X0185197Y0011050D01*
X0184446Y0011801D01*
X0184446Y0013302D01*
X0149949Y0019550D02*
X0146946Y0019550D01*
X0148447Y0019550D02*
X0148447Y0024054D01*
X0146946Y0022553D01*
X0136348Y0028550D02*
X0136348Y0033054D01*
X0134847Y0033054D02*
X0137849Y0033054D01*
X0133245Y0033054D02*
X0133245Y0029301D01*
X0132495Y0028550D01*
X0130993Y0028550D01*
X0130243Y0029301D01*
X0130243Y0033054D01*
X0128641Y0032303D02*
X0127891Y0033054D01*
X0126390Y0033054D01*
X0125639Y0032303D01*
X0125639Y0029301D01*
X0126390Y0028550D01*
X0127891Y0028550D01*
X0128641Y0029301D01*
X0128641Y0032303D01*
X0119434Y0032303D02*
X0119434Y0029301D01*
X0118683Y0028550D01*
X0117182Y0028550D01*
X0116431Y0029301D01*
X0116431Y0032303D01*
X0117182Y0033054D01*
X0118683Y0033054D01*
X0119434Y0032303D01*
X0114863Y0033054D02*
X0113362Y0033054D01*
X0114112Y0033054D02*
X0114112Y0028550D01*
X0113362Y0028550D02*
X0114863Y0028550D01*
X0111760Y0029301D02*
X0111760Y0032303D01*
X0111010Y0033054D01*
X0108758Y0033054D01*
X0108758Y0028550D01*
X0111010Y0028550D01*
X0111760Y0029301D01*
X0107156Y0029301D02*
X0107156Y0033054D01*
X0104154Y0033054D02*
X0104154Y0029301D01*
X0104905Y0028550D01*
X0106406Y0028550D01*
X0107156Y0029301D01*
X0102553Y0028550D02*
X0102553Y0031553D01*
X0101051Y0033054D01*
X0099550Y0031553D01*
X0099550Y0028550D01*
X0099550Y0030802D02*
X0102553Y0030802D01*
X0094449Y0024054D02*
X0091446Y0024054D01*
X0091446Y0021802D01*
X0092947Y0022553D01*
X0093698Y0022553D01*
X0094449Y0021802D01*
X0094449Y0020301D01*
X0093698Y0019550D01*
X0092197Y0019550D01*
X0091446Y0020301D01*
X0121035Y0027799D02*
X0124038Y0027799D01*
D15*
X0186800Y0086800D02*
X0192800Y0086800D01*
X0192802Y0086926D01*
X0192808Y0087051D01*
X0192818Y0087176D01*
X0192832Y0087301D01*
X0192849Y0087426D01*
X0192871Y0087550D01*
X0192896Y0087673D01*
X0192926Y0087795D01*
X0192959Y0087916D01*
X0192996Y0088036D01*
X0193036Y0088155D01*
X0193081Y0088272D01*
X0193129Y0088389D01*
X0193181Y0088503D01*
X0193236Y0088616D01*
X0193295Y0088727D01*
X0193357Y0088836D01*
X0193423Y0088943D01*
X0193492Y0089048D01*
X0193564Y0089151D01*
X0193639Y0089252D01*
X0193718Y0089350D01*
X0193800Y0089445D01*
X0193884Y0089538D01*
X0193972Y0089628D01*
X0194062Y0089716D01*
X0194155Y0089800D01*
X0194250Y0089882D01*
X0194348Y0089961D01*
X0194449Y0090036D01*
X0194552Y0090108D01*
X0194657Y0090177D01*
X0194764Y0090243D01*
X0194873Y0090305D01*
X0194984Y0090364D01*
X0195097Y0090419D01*
X0195211Y0090471D01*
X0195328Y0090519D01*
X0195445Y0090564D01*
X0195564Y0090604D01*
X0195684Y0090641D01*
X0195805Y0090674D01*
X0195927Y0090704D01*
X0196050Y0090729D01*
X0196174Y0090751D01*
X0196299Y0090768D01*
X0196424Y0090782D01*
X0196549Y0090792D01*
X0196674Y0090798D01*
X0196800Y0090800D01*
X0196926Y0090798D01*
X0197051Y0090792D01*
X0197176Y0090782D01*
X0197301Y0090768D01*
X0197426Y0090751D01*
X0197550Y0090729D01*
X0197673Y0090704D01*
X0197795Y0090674D01*
X0197916Y0090641D01*
X0198036Y0090604D01*
X0198155Y0090564D01*
X0198272Y0090519D01*
X0198389Y0090471D01*
X0198503Y0090419D01*
X0198616Y0090364D01*
X0198727Y0090305D01*
X0198836Y0090243D01*
X0198943Y0090177D01*
X0199048Y0090108D01*
X0199151Y0090036D01*
X0199252Y0089961D01*
X0199350Y0089882D01*
X0199445Y0089800D01*
X0199538Y0089716D01*
X0199628Y0089628D01*
X0199716Y0089538D01*
X0199800Y0089445D01*
X0199882Y0089350D01*
X0199961Y0089252D01*
X0200036Y0089151D01*
X0200108Y0089048D01*
X0200177Y0088943D01*
X0200243Y0088836D01*
X0200305Y0088727D01*
X0200364Y0088616D01*
X0200419Y0088503D01*
X0200471Y0088389D01*
X0200519Y0088272D01*
X0200564Y0088155D01*
X0200604Y0088036D01*
X0200641Y0087916D01*
X0200674Y0087795D01*
X0200704Y0087673D01*
X0200729Y0087550D01*
X0200751Y0087426D01*
X0200768Y0087301D01*
X0200782Y0087176D01*
X0200792Y0087051D01*
X0200798Y0086926D01*
X0200800Y0086800D01*
X0206800Y0086800D01*
X0206800Y0156800D01*
X0186800Y0156800D01*
X0186800Y0086800D01*
D16*
X0156800Y0070500D03*
X0156800Y0033100D03*
X0244300Y0043100D03*
X0259300Y0043100D03*
X0274300Y0043100D03*
X0274300Y0080500D03*
X0259300Y0080500D03*
X0244300Y0080500D03*
X0236800Y0093100D03*
X0251800Y0093100D03*
X0266800Y0093100D03*
X0266800Y0130500D03*
X0251800Y0130500D03*
X0236800Y0130500D03*
D17*
X0119550Y0066800D03*
D18*
X0120500Y0094300D02*
X0120500Y0096800D01*
X0120500Y0099300D01*
X0123000Y0099300D02*
X0123000Y0096800D01*
X0123000Y0094300D01*
D19*
X0078000Y0134300D03*
X0040600Y0134300D03*
M02*
